<?xml version="1.0" encoding="utf-8"?>
<!-- Generator: Adobe Illustrator 27.9.0, SVG Export Plug-In . SVG Version: 6.00 Build 0)  -->
<svg version="1.1" id="icon" xmlns="http://www.w3.org/2000/svg" xmlns:xlink="http://www.w3.org/1999/xlink" x="0px" y="0px"
	 viewBox="0 0 800 800" style="enable-background:new 0 0 800 800;" xml:space="preserve">
<style type="text/css">
	.st0{fill:#E1E9EF;}
	.st1{fill:#F4EFDC;}
</style>
<g id="Layer_2">
	<polygon class="st0" points="559,113 529,146 552.36,177.384 480.536,259.989 423.665,251.137 358.874,265.795 303.173,313.434 
		133.873,509.119 138.27,545.031 166.854,596.496 229.15,649.103 298.776,685.016 324.428,685.016 360.34,652.035 531.839,452.686 
		550.162,394.053 545.764,339.819 528.907,306.105 604.396,221.821 632.247,241.588 652.035,231.677 665.227,200.567 	"/>
	<polygon class="st1" points="419.705,353.744 309.037,435.829 184.443,492.995 184.443,538.435 220.356,585.341 251.137,606.595 
		360.34,532.572 495.927,465.145 489.698,429.966 463.746,374.077 434.591,353.744 	"/>
</g>
<g>
	<path d="M665.871,190.19l-90.017-78.166c-9.345-8.1-23.557-7.106-31.674,2.247l-16.176,18.642
		c-8.116,9.345-7.114,23.557,2.231,31.666l12.827,11.134l-68.595,79.008c-54.341-23.248-119.828-10.182-160.62,36.803
		L135.67,496.774c-7.13,8.205-13.816,23.234-5.206,48.181c19.733,57.195,109.953,135.515,169.355,147.027
		c5.296,1.019,10.081,1.471,14.414,1.471c16.904,0,26.888-6.863,32.555-13.395L524.972,474.81
		c40.779-46.978,44.526-113.651,13.87-164.198l68.595-79.014l12.822,11.132c4.108,3.565,9.265,5.481,14.673,5.481
		c0.534,0,1.075-0.016,1.625-0.056c5.99-0.42,11.456-3.145,15.368-7.664l16.184-18.634
		C676.227,212.51,675.224,198.307,665.871,190.19z M512.474,463.96L334.29,669.21c-6.216,7.146-16.75,9.353-31.317,6.516
		c-53.922-10.445-138.943-84.253-156.858-136.17c-4.842-14.034-4.155-24.778,2.054-31.932l178.175-205.249
		c24.341-28.028,58.651-42.385,93.146-42.385c28.642,0,57.422,9.911,80.704,30.113C551.504,334.654,557.009,412.642,512.474,463.96z
		 M529.079,296.612c-5.336-6.758-11.301-13.16-18.037-19.008c-6.732-5.846-13.907-10.849-21.344-15.182l65.86-75.858l39.381,34.185
		L529.079,296.612z M655.612,211.007l-16.192,18.634c-1.019,1.18-2.449,1.892-4.034,1.997c-1.447,0.202-3.088-0.38-4.277-1.407
		l-19.066-16.552c-0.002-0.001-0.002-0.002-0.005-0.004c-0.002-0.002-0.004-0.002-0.004-0.002l-51.86-45.019
		c-0.005-0.004-0.006-0.012-0.012-0.016c-0.006-0.005-0.012-0.006-0.018-0.01l-19.06-16.546c-1.172-1.027-1.884-2.458-1.997-4.034
		c-0.104-1.585,0.396-3.104,1.415-4.285l16.177-18.642c1.164-1.342,2.813-2.029,4.463-2.029c1.374,0,2.748,0.477,3.864,1.439
		l90.017,78.158C657.431,204.782,657.706,208.59,655.612,211.007z"/>
	<path d="M452.295,354.776c-17.907-14.511-29.362-11.609-34.576-8.561c-0.182,0.107-0.39,0.276-0.58,0.396
		c-0.034,0.023-0.075,0.024-0.107,0.048l-0.612,0.443c-0.305,0.215-0.597,0.404-0.912,0.658l-112.576,81.31l-116.898,51.9
		c-0.267,0.121-0.542,0.259-0.8,0.412c-5.214,3.032-13.411,11.52-9.661,34.285c2.345,14.204,8.812,30.93,18.222,47.106
		c15.715,27.042,38.667,50.251,56.888,50.251c3.388,0,6.622-0.808,9.604-2.547c0.251-0.137,0.493-0.299,0.728-0.469l97.609-71.318
		l133.526-63.049c0.083-0.039,0.132-0.117,0.214-0.159c0.134-0.074,0.283-0.095,0.417-0.173
		c19.022-11.059,10.089-49.322-8.561-81.399C474.817,377.735,463.483,363.838,452.295,354.776z M350.846,524.058
		c-0.477,0.226-0.93,0.493-1.35,0.8l-97.754,71.424c-4.842,1.989-25.005-9.774-43.639-41.836
		c-8.424-14.479-14.171-29.208-16.193-41.472c-1.714-10.38-0.097-15.869,1.439-17.139l117.091-51.981
		c0.517-0.234,1.018-0.517,1.487-0.857l95.424-68.922c0.15,2.029,0.331,4.099,0.713,6.415c2.336,14.204,8.812,30.93,18.214,47.115
		c10.464,17.995,24.127,34.251,37.466,43.141L350.846,524.058z M484.524,460.935l-0.263,0.123
		c-4.571,2.066-24.932-9.55-43.672-41.779c-8.416-14.479-14.164-29.216-16.193-41.48c-1.698-10.305-0.111-15.738,1.409-17.052
		l0.34-0.245c0.299-0.153,0.705-0.255,1.259-0.255c2.522,0,7.567,1.803,14.471,7.389c9.66,7.825,19.612,20.113,28.035,34.6
		C488.771,434.673,488.711,458.226,484.524,460.935z"/>
	<path d="M457.97,409.182c-4.373-7.535-6.249-13.186-6.71-15.651c1.245-2.433,1.261-5.425-0.21-7.955
		c-2.296-3.961-7.365-5.295-11.318-2.991c-10.097,5.877-3.444,22.232,3.929,34.916c3.533,6.071,7.502,11.512,11.181,15.319
		c4.341,4.495,8.44,6.75,12.247,6.75c1.722,0,3.388-0.461,4.98-1.391c3.953-2.304,5.287-7.364,2.991-11.318
		c-1.471-2.53-4.082-3.994-6.807-4.107C466.329,421.13,462.352,416.7,457.97,409.182z"/>
</g>
</svg>
