<?xml version="1.0" encoding="utf-8"?>
<!-- Generator: Adobe Illustrator 27.4.1, SVG Export Plug-In . SVG Version: 6.00 Build 0)  -->
<svg version="1.1" id="Layer_1" xmlns="http://www.w3.org/2000/svg" xmlns:xlink="http://www.w3.org/1999/xlink" x="0px" y="0px"
	 viewBox="0 0 500 500" style="enable-background:new 0 0 500 500;" xml:space="preserve">
<style type="text/css">
	.st0{fill:url(#SVGID_1_);}
	.st1{fill:#B17F4A;}
	.st2{fill:#123858;}
	.st3{fill:none;stroke:#E94E1B;stroke-width:5;stroke-linecap:round;stroke-miterlimit:10;}
	.st4{opacity:0.05;}
	.st5{fill:#3DBFED;}
	.st6{fill:#FFFFFF;}
</style>
<g>
	<radialGradient id="SVGID_1_" cx="316.399" cy="221.6786" r="66.5251" gradientUnits="userSpaceOnUse">
		<stop  offset="0.3992" style="stop-color:#FFED00"/>
		<stop  offset="1" style="stop-color:#FFED00;stop-opacity:0"/>
	</radialGradient>
	<path class="st0" d="M376.815,218.705c-4.668-7.135-6.673-15.687-5.662-24.153l1.362-11.412l-11.002-3.323
		c-8.162-2.465-15.195-7.728-19.863-14.863l-6.292-9.618l-10.564,4.526c-7.837,3.358-16.607,3.847-24.769,1.382l-11.002-3.323
		l-5.183,10.258c-3.845,7.61-10.249,13.622-18.086,16.98l-10.564,4.526l2.623,11.19c1.946,8.301,0.905,17.023-2.94,24.633
		l-5.183,10.258l9.202,6.886c6.827,5.108,11.635,12.458,13.581,20.76l2.623,11.19l11.475-0.64
		c8.513-0.475,16.921,2.065,23.748,7.173l9.202,6.886l8.379-7.867c6.216-5.836,14.29-9.295,22.803-9.77l11.475-0.64l1.362-11.412
		c1.01-8.466,4.972-16.306,11.188-22.142l8.379-7.867L376.815,218.705z M316.399,265.773c-24.353,0-44.095-19.742-44.095-44.095
		s19.742-44.095,44.095-44.095s44.095,19.742,44.095,44.095S340.752,265.773,316.399,265.773z"/>
	<g>
		<g>
			<path class="st1" d="M31.799,96.968c1.003-1.227,2.247-2.733,3.049-4.221c0.749-1.378,0.926-2.402,0.652-3.799
				c-0.558-3.003-2.624-4.967-3.64-5.814c-0.79,1.145-1.705,2.153-2.581,3.135c-0.588,0.664-1.144,1.295-1.659,1.972
				c-1.131,1.487-1.753,3.562-1.956,4.338c-0.048,0.164-0.082,0.28-0.1,0.339l-0.094,0.303l-0.003,0.008
				c-0.793,2.574-0.325,6.507,3.346,9.496c0.35-1.188,0.976-3.066,1.807-4.245l0.001,0C30.92,98.05,31.326,97.547,31.799,96.968z
				 M24.574,91.079l-0.001-0.002c-1.537-3.452-1.245-6.253,0.716-7.853c1.603-1.307,3.962-1.489,5.35-0.903
				c-0.738,1.066-1.605,2.036-2.455,2.979c-0.585,0.652-1.199,1.333-1.743,2.046C25.526,88.544,24.933,90.011,24.574,91.079z
				 M39.63,99.605l-9.517,3.955c0.277-1.01,0.919-3.083,1.718-4.243c0.27-0.396,0.659-0.88,1.106-1.429
				c0.891-1.099,1.957-2.419,2.793-3.79l0.007,0.011C36.788,94.888,38.884,96.715,39.63,99.605z"/>
		</g>
		<g>
			<path class="st1" d="M40.167,104.86l-0.008-0.01c-0.761,1.41-1.756,2.781-2.588,3.922c-0.415,0.569-0.783,1.074-1.037,1.485
				c-0.755,1.207-1.305,3.316-1.532,4.34l9.329-4.441C43.425,107.312,41.276,105.576,40.167,104.86z M33.69,113.812
				c-3.814-2.801-4.484-6.702-3.826-9.311l0.003-0.008l0.079-0.307c0.015-0.06,0.044-0.178,0.086-0.346
				c0.022-0.075,0.052-0.182,0.08-0.28l9.518-3.955l0.043,0.11c0.335,1.385,0.225,2.412-0.453,3.825
				c-0.736,1.531-1.905,3.1-2.837,4.373c-0.441,0.601-0.82,1.124-1.097,1.566l-0.001,0C34.524,110.695,33.964,112.615,33.69,113.812
				z"/>
		</g>
		<g>
			<path class="st1" d="M45.134,115.374l-0.008-0.01c-0.709,1.457-1.613,2.866-2.389,4.049c-0.385,0.589-0.725,1.111-0.957,1.533
				c-0.693,1.243-1.154,3.387-1.315,4.413l9.093-4.907C48.517,117.657,46.262,116.042,45.134,115.374z M39.11,124.646
				c-3.932-2.614-4.82-6.465-4.282-9.111l0.003-0.008l0.065-0.311c0.012-0.061,0.035-0.18,0.068-0.349
				c0.017-0.076,0.042-0.184,0.065-0.283l9.306-4.43l0.049,0.107c0.395,1.372,0.336,2.402-0.262,3.844
				c-0.643,1.559-1.757,3.198-2.618,4.513c-0.409,0.622-0.76,1.162-1.013,1.618l-0.001,0
				C39.799,121.484,39.328,123.434,39.11,124.646z"/>
		</g>
		<g>
			<path class="st1" d="M50.626,125.624l-0.009-0.01c-0.623,1.484-1.486,2.955-2.188,4.168c-0.353,0.607-0.665,1.145-0.875,1.578
				c-0.614,1.267-0.99,3.447-1.094,4.477l8.833-5.36C54.127,127.729,51.774,126.241,50.626,125.624z M45.076,135.19
				c-4.057-2.414-5.152-6.208-4.735-8.884l0.002-0.008l0.048-0.314c0.008-0.061,0.025-0.181,0.049-0.351
				c0.013-0.077,0.032-0.186,0.05-0.286l9.07-4.894l0.055,0.104c0.479,1.341,0.442,2.391-0.071,3.855
				c-0.563,1.59-1.577,3.273-2.385,4.638c-0.383,0.645-0.706,1.203-0.934,1.669l-0.001,0C45.599,132,45.243,133.962,45.076,135.19z"
				/>
		</g>
		<g>
			<path class="st1" d="M56.626,135.585l-0.009-0.009c-0.544,1.512-1.324,3.019-1.977,4.275c-0.327,0.627-0.606,1.177-0.793,1.62
				c-0.55,1.298-0.795,3.48-0.863,4.526l8.549-5.802C60.224,137.511,57.808,136.14,56.626,135.585z M51.572,145.417
				c-4.198-2.19-5.446-5.949-5.185-8.63l0.002-0.008l0.031-0.315c0.005-0.062,0.015-0.182,0.03-0.353
				c0.009-0.077,0.022-0.187,0.034-0.288l8.811-5.347l0.061,0.101c0.549,1.314,0.58,2.354,0.122,3.854
				c-0.48,1.615-1.403,3.344-2.137,4.747c-0.347,0.662-0.644,1.237-0.852,1.717l-0.001,0.001
				C51.916,142.215,51.676,144.182,51.572,145.417z"/>
		</g>
		<g>
			<path class="st1" d="M63.106,145.189l-0.009-0.009c-0.457,1.524-1.142,3.075-1.707,4.37c-0.278,0.643-0.522,1.215-0.676,1.671
				c-0.468,1.343-0.515,3.552-0.469,4.614l7.997-6.542C66.766,146.845,64.328,145.649,63.106,145.189z M58.764,155.358
				c-4.441-1.948-5.937-5.716-5.809-8.404l0.001-0.008l0.014-0.317c0.002-0.062,0.006-0.183,0.013-0.355
				c0.006-0.078,0.014-0.189,0.022-0.291l8.528-5.788l0.064,0.099c0.61,1.276,0.683,2.315,0.316,3.818
				c-0.404,1.636-1.229,3.415-1.866,4.857c-0.303,0.682-0.561,1.276-0.735,1.771l-0.001,0.001
				C58.846,152.087,58.736,154.105,58.764,155.358z"/>
		</g>
		<g>
			<path class="st1" d="M70.221,153.978l-0.01-0.007c-0.297,1.554-0.778,3.157-1.175,4.522c-0.196,0.678-0.352,1.272-0.441,1.747
				c-0.279,1.396,0.021,3.616,0.264,4.666l6.851-7.734C73.962,155.084,71.472,154.279,70.221,153.978z M67.292,164.642
				c-4.799-1.357-6.829-5.123-6.978-7.836l0-0.009l-0.019-0.322c-0.004-0.063-0.011-0.186-0.022-0.361
				c-0.002-0.08-0.005-0.192-0.008-0.296l7.977-6.526l0.07,0.089c0.692,1.18,0.85,2.174,0.629,3.692
				c-0.236,1.641-0.864,3.509-1.308,5.014c-0.214,0.714-0.392,1.338-0.498,1.854l-0.001,0.001
				C66.844,161.352,67.06,163.379,67.292,164.642z"/>
		</g>
		<g>
			<path class="st1" d="M78.335,161.311l-0.011-0.005c-0.02,1.568-0.166,3.215-0.27,4.639c-0.053,0.71-0.07,1.315-0.053,1.8
				c0.029,0.707,0.235,1.59,0.504,2.431c0.282,0.818,0.634,1.582,0.878,2.075l4.781-9.159
				C82.087,161.557,79.597,161.348,78.335,161.311z M77.761,172.35c-2.523-0.135-4.595-1.092-6.031-2.345
				c-1.455-1.247-2.281-2.786-2.635-4.134l-0.001-0.009l-0.073-0.323c-0.015-0.063-0.044-0.185-0.085-0.359
				c-0.016-0.079-0.039-0.192-0.059-0.295l6.834-7.715l0.08,0.074c0.824,1.023,1.127,1.929,1.157,3.453
				c0.047,1.625-0.225,3.587-0.346,5.143c-0.063,0.742-0.105,1.391-0.098,1.921l-0.001,0.001
				C76.512,169.213,77.214,171.153,77.761,172.35z"/>
		</g>
		<g>
			<path class="st1" d="M87.611,166.344l-0.012-0.002c0.383,1.519,0.705,3.128,0.996,4.527c0.145,0.699,0.294,1.294,0.448,1.749
				c0.433,1.348,1.809,3.162,2.553,3.943l2.113-10.114C91.217,165.515,88.817,166.041,87.611,166.344z M90.081,177.11
				c-2.438,0.56-4.71,0.233-6.476-0.609c-1.785-0.817-3.033-2.132-3.738-3.357l-0.003-0.008l-0.156-0.3
				c-0.031-0.058-0.092-0.172-0.178-0.333c-0.036-0.074-0.087-0.179-0.134-0.275l4.769-9.137l0.09,0.05
				c0.991,0.769,1.484,1.539,1.887,3c0.454,1.533,0.712,3.511,1.029,5.034c0.143,0.729,0.283,1.364,0.438,1.871l0,0.001
				C88.019,174.459,89.238,176.091,90.081,177.11z"/>
		</g>
		<g>
			<path class="st1" d="M98.05,168.727l-0.012,0.001c0.771,1.393,1.473,2.887,2.068,4.179c0.298,0.638,0.571,1.209,0.816,1.617
				c0.71,1.212,2.382,2.716,3.223,3.349l0.186-10.331C101.539,167.076,99.172,168.156,98.05,168.727z M102.812,178.698
				c-4.413,2.122-8.596,0.62-10.519-1.416l-0.005-0.007l-0.228-0.244c-0.045-0.047-0.133-0.139-0.257-0.269
				c-0.054-0.061-0.131-0.147-0.201-0.226l2.108-10.089l0.103,0.023c1.187,0.497,1.926,1.087,2.706,2.421
				c0.867,1.375,1.607,3.22,2.264,4.642c0.308,0.676,0.585,1.261,0.845,1.718l0,0.001
				C100.338,176.522,101.825,177.881,102.812,178.698z"/>
		</g>
		<g>
			<path class="st1" d="M109.222,169.067l-0.012,0.003c1.004,1.248,1.911,2.67,2.668,3.858c0.378,0.594,0.715,1.119,1.007,1.505
				c0.849,1.125,2.632,2.428,3.504,2.995l-0.795-10.302C112.623,166.933,110.278,168.339,109.222,169.067z M115.181,178.372
				c-3.998,2.551-8.045,1.728-10.247,0.075l-0.006-0.006l-0.259-0.196c-0.051-0.038-0.15-0.111-0.292-0.215
				c-0.062-0.049-0.151-0.119-0.232-0.184l0.185-10.305l0.112,0.003c1.334,0.256,2.211,0.742,3.232,1.914
				c1.113,1.248,2.128,2.921,2.969,4.267c0.397,0.629,0.745,1.172,1.057,1.591l0,0.001
				C112.56,176.47,114.157,177.676,115.181,178.372z"/>
		</g>
		<g>
			<path class="st1" d="M120.784,168.256l-0.012,0.004c1.11,1.176,2.094,2.56,2.903,3.715c0.404,0.577,0.761,1.087,1.064,1.46
				c0.891,1.098,2.682,2.347,3.56,2.896l-1.038-10.28C124.226,165.937,121.823,167.449,120.784,168.256z M127.134,177.305
				c-3.831,2.633-7.636,2.071-9.933,0.62l-0.007-0.005l-0.267-0.171c-0.053-0.033-0.155-0.096-0.301-0.187
				c-0.065-0.043-0.157-0.105-0.241-0.161l-0.793-10.276l0.118-0.008c1.419,0.112,2.369,0.55,3.506,1.628
				c1.229,1.171,2.357,2.78,3.26,4.078c0.428,0.612,0.798,1.139,1.126,1.544l0,0.001
				C124.502,175.477,126.113,176.632,127.134,177.305z"/>
		</g>
		<g>
			<path class="st1" d="M132.494,167.073l-0.012,0.004c1.128,1.159,2.137,2.521,2.974,3.65c0.418,0.565,0.789,1.066,1.103,1.43
				c0.922,1.076,2.768,2.268,3.677,2.774l-1.425-10.233C135.834,164.69,133.519,166.251,132.494,167.073z M139.092,175.954
				c-3.824,2.762-7.696,2.266-9.975,0.857l-0.007-0.005l-0.268-0.166c-0.053-0.031-0.156-0.093-0.303-0.181
				c-0.065-0.042-0.158-0.101-0.243-0.156l-1.035-10.254l0.119-0.011c1.442,0.073,2.412,0.504,3.563,1.555
				c1.25,1.141,2.402,2.736,3.337,4.015c0.441,0.604,0.825,1.118,1.164,1.514l0,0.001
				C136.373,174.205,138.032,175.315,139.092,175.954z"/>
		</g>
		<g>
			<path class="st1" d="M144.004,165.495l-0.012,0.005c1.175,1.107,2.254,2.406,3.156,3.479c0.45,0.538,0.852,1.015,1.19,1.358
				c0.989,1.022,2.929,2.081,3.884,2.51l-2.175-10.101C147.142,162.945,144.973,164.627,144.004,165.495z M151.136,173.956
				c-3.695,3.026-7.7,2.751-10.054,1.422l-0.007-0.005l-0.278-0.154c-0.055-0.029-0.161-0.087-0.313-0.168
				c-0.068-0.039-0.163-0.095-0.251-0.146l-1.422-10.208l0.116-0.015c1.419,0.019,2.389,0.42,3.575,1.409
				c1.288,1.079,2.519,2.613,3.526,3.842c0.474,0.575,0.888,1.064,1.252,1.438l0,0.001
				C148.274,172.391,150.019,173.399,151.136,173.956z"/>
		</g>
		<g>
			<path class="st1" d="M155.197,163.138l-0.011,0.006c1.258,1.009,2.444,2.185,3.448,3.167c0.501,0.491,0.95,0.925,1.322,1.232
				c1.092,0.928,3.149,1.752,4.16,2.064l-3.315-9.786c-1.391,0.279-2.577,0.839-3.522,1.487
				C156.343,161.969,155.631,162.673,155.197,163.138z M163.142,170.838c-3.423,3.437-7.563,3.54-10.034,2.389l-0.007-0.004
				l-0.292-0.133c-0.057-0.025-0.169-0.074-0.328-0.143c-0.071-0.034-0.172-0.082-0.264-0.126l-2.17-10.076l0.113-0.023
				c1.39-0.079,2.369,0.252,3.618,1.133c1.358,0.966,2.72,2.395,3.838,3.518c0.525,0.522,0.987,0.971,1.386,1.305l0,0.001
				C160.093,169.588,161.956,170.431,163.142,170.838z"/>
		</g>
		<g>
			<path class="st1" d="M165.865,159.615l-0.01,0.007c1.371,0.854,2.684,1.82,3.825,2.665c0.566,0.416,1.074,0.781,1.488,1.033
				c1.223,0.774,3.383,1.231,4.45,1.39l-4.821-9.139c-0.66,0.226-1.24,0.536-1.758,0.886c-0.537,0.322-1.007,0.692-1.416,1.074
				C166.806,158.294,166.23,159.111,165.865,159.615z M174.83,166.083c-2.928,3.975-7.164,4.645-9.777,3.798l-0.008-0.003
				l-0.31-0.097c-0.061-0.018-0.179-0.054-0.347-0.104c-0.075-0.025-0.182-0.061-0.28-0.095l-3.307-9.762l0.107-0.035
				c1.349-0.213,2.329-0.011,3.665,0.709c1.45,0.785,2.998,2.056,4.249,2.986c0.592,0.444,1.114,0.823,1.559,1.098l0,0.001
				C171.59,165.319,173.59,165.901,174.83,166.083z"/>
		</g>
		<g>
			<path class="st1" d="M175.675,154.579l-0.009,0.008c1.468,0.585,2.942,1.313,4.218,1.936c0.633,0.307,1.202,0.573,1.658,0.745
				c1.356,0.54,3.552,0.556,4.65,0.531l-6.474-8.053c-1.21,0.685-2.064,1.621-2.731,2.481
				C176.331,153.102,175.936,154.021,175.675,154.579z M185.666,159.287c-0.506,1.132-1.187,2.048-1.935,2.807
				c-0.751,0.75-1.532,1.404-2.377,1.808c-1.687,0.82-3.347,1.15-4.754,0.926l-0.008-0.002l-0.326-0.046
				c-0.064-0.008-0.188-0.024-0.364-0.047c-0.079-0.013-0.192-0.032-0.295-0.049l-4.809-9.116l0.098-0.05
				c1.281-0.39,2.236-0.379,3.673,0.126c1.557,0.548,3.294,1.523,4.687,2.202c0.663,0.331,1.247,0.609,1.736,0.798l0.001,0.001
				C182.332,159.171,184.406,159.331,185.666,159.287z"/>
		</g>
		<g>
			<path class="st1" d="M184.405,147.786l-0.007,0.01c1.573,0.314,3.181,0.792,4.529,1.218c0.672,0.209,1.269,0.393,1.741,0.499
				c1.377,0.312,3.567,0.163,4.598,0.049l-7.214-7.397C185.616,143.955,184.735,146.549,184.405,147.786z M194.953,151.052
				c-1.382,4.489-5.005,6.514-7.784,6.673l-0.009,0l-0.322,0.02c-0.063,0.004-0.186,0.013-0.362,0.026
				c-0.081,0.002-0.196,0.004-0.301,0.007l-6.458-8.032l0.087-0.066c1.159-0.68,2.149-0.821,3.675-0.6
				c1.645,0.227,3.517,0.871,5.019,1.339c0.71,0.224,1.326,0.414,1.835,0.532l0.001,0.001
				C191.737,151.276,193.731,151.17,194.953,151.052z"/>
		</g>
		<g>
			<path class="st1" d="M192.854,139.674l-0.007,0.011c1.621,0.206,3.265,0.674,4.611,1.085c0.672,0.203,1.266,0.389,1.735,0.505
				c1.381,0.339,3.515,0.267,4.522,0.26l-6.83-7.753C194.164,135.627,193.181,138.384,192.854,139.674z M203.393,142.957
				c-1.33,4.246-4.5,6.127-7.191,6.475l-0.008,0l-0.312,0.037c-0.061,0.008-0.18,0.024-0.348,0.046
				c-0.077,0.008-0.186,0.018-0.286,0.028l-7.196-7.378l0.087-0.083c1.185-0.848,2.201-1.119,3.785-1.019
				c1.707,0.113,3.598,0.66,5.116,1.117c0.715,0.215,1.33,0.402,1.835,0.521l0.001,0.001
				C200.258,143.01,202.215,143.003,203.393,142.957z"/>
		</g>
		<g>
			<path class="st1" d="M202.154,131.468l-0.01,0.01c1.651,0.37,3.213,1.021,4.494,1.634c0.643,0.31,1.2,0.593,1.639,0.783
				c0.647,0.281,1.488,0.498,2.275,0.68c0.802,0.211,1.545,0.378,2.016,0.476l-5.055-9.011
				C204.186,127.403,202.678,130.207,202.154,131.468z M212.037,136.335c-0.481,0.93-0.99,1.75-1.568,2.358
				c-0.567,0.649-1.178,1.178-1.831,1.558c-1.286,0.829-2.723,1.165-4.011,1.231l-0.008-0.001l-0.303,0.01
				c-0.059,0.003-0.175,0.009-0.339,0.017c-0.075,0.001-0.182,0.003-0.28,0.005l-6.812-7.734l0.098-0.084
				c1.297-0.855,2.412-1.104,4.025-0.884c1.722,0.219,3.588,0.996,5.017,1.646c0.678,0.306,1.253,0.578,1.727,0.768l0.001,0.001
				C209.08,135.784,210.928,136.089,212.037,136.335z"/>
		</g>
		<g>
			<path class="st1" d="M213.538,124.925l-0.013,0.008c0.763,0.388,1.476,0.849,2.123,1.329c0.66,0.514,1.256,1.052,1.775,1.544
				c0.512,0.488,0.963,0.918,1.313,1.251c0.522,0.467,1.238,0.941,1.904,1.356c0.67,0.448,1.306,0.874,1.715,1.147l-1.72-10.188
				c-1.84,0.004-3.395,0.758-4.605,1.444C214.807,123.488,214.004,124.367,213.538,124.925z M221.45,132.556
				c-1.423,1.564-2.792,2.182-4.118,2.609c-0.675,0.155-1.344,0.242-1.996,0.265c-0.653,0.016-1.311-0.107-1.91-0.225l-0.007-0.002
				l-0.282-0.059c-0.056-0.01-0.164-0.031-0.318-0.06c-0.07-0.015-0.17-0.037-0.262-0.057l-5.042-8.989l0.122-0.068
				c1.534-0.654,2.819-0.589,4.335-0.042c1.691,0.659,3.278,1.916,4.443,2.929c0.556,0.506,1.035,0.943,1.422,1.297l0,0.001
				C218.93,131.099,220.524,131.978,221.45,132.556z"/>
		</g>
		<g>
			<path class="st1" d="M226.736,122.381l-0.015,0.003c1.161,1.186,2.013,2.789,2.652,4.038c0.315,0.627,0.593,1.181,0.808,1.608
				c0.686,1.168,2.017,2.84,2.616,3.584l1.693-10.193c-0.851-0.241-1.686-0.376-2.477-0.416c-0.806,0.017-1.562,0.112-2.241,0.249
				C228.414,121.517,227.367,121.968,226.736,122.381z M231.58,132.281c-0.954,0.368-1.814,0.766-2.615,0.899
				c-0.802,0.146-1.546,0.132-2.234,0.127c-0.692-0.042-1.345-0.214-1.959-0.472c-0.612-0.251-1.168-0.475-1.679-0.822l-0.006-0.005
				l-0.239-0.157c-0.048-0.03-0.141-0.088-0.273-0.171c-0.06-0.04-0.145-0.096-0.223-0.148l-1.715-10.163l0.142-0.021
				c1.731-0.055,2.886,0.289,4.142,1.454c1.359,1.232,2.403,2.845,3.144,4.271c0.348,0.665,0.649,1.239,0.891,1.702l0,0.001
				C229.662,130.04,230.877,131.328,231.58,132.281z"/>
		</g>
		<g>
			<path class="st1" d="M239.805,124.221l-0.014-0.001c0.699,1.537,1.075,3.247,1.343,4.625c0.132,0.692,0.236,1.3,0.345,1.759
				c0.34,1.329,1.236,3.311,1.672,4.165l4.123-9.474C244.346,123.519,241.129,123.922,239.805,124.221z M241.762,135.108
				c-1.062,0.135-2.016,0.179-2.877,0.123c-0.859-0.058-1.614-0.32-2.3-0.568c-1.371-0.46-2.432-1.502-3.217-2.39l-0.004-0.007
				l-0.183-0.223c-0.037-0.043-0.109-0.127-0.211-0.246c-0.045-0.056-0.109-0.136-0.168-0.209l1.689-10.167l0.138,0.023
				c1.623,0.448,2.531,1.248,3.359,2.669c0.901,1.533,1.394,3.425,1.701,5.012c0.151,0.736,0.268,1.369,0.391,1.869l0,0.001
				C240.432,132.357,241.273,134.029,241.762,135.108z"/>
		</g>
		<g>
			<path class="st1" d="M251.639,129.134l-0.014-0.004c0.326,1.65,0.365,3.369,0.357,4.778c-0.004,0.704-0.016,1.322,0.006,1.796
				c0.078,1.386,0.649,3.483,0.947,4.418l5.657-8.646C256.093,129.298,252.974,129.11,251.639,129.134z M251.485,140.202
				c-2.189-0.12-3.901-0.607-5.167-1.524c-1.301-0.798-2.184-2-2.749-3.125l-0.003-0.007l-0.132-0.263
				c-0.027-0.051-0.079-0.151-0.154-0.293c-0.032-0.066-0.078-0.159-0.119-0.245l4.112-9.451l0.123,0.053
				c1.405,0.799,2.051,1.787,2.535,3.319c0.52,1.664,0.585,3.64,0.579,5.242c0.003,0.749-0.003,1.392,0.024,1.908l0,0.001
				C250.621,137.222,251.163,139.052,251.485,140.202z"/>
		</g>
		<g>
			<path class="st1" d="M262.194,135.882l-0.013-0.006c0.083,1.654-0.128,3.364-0.327,4.758c-0.1,0.697-0.195,1.31-0.235,1.785
				c-0.101,1.381,0.217,3.539,0.407,4.515l6.659-7.9C266.51,136.614,263.52,136.028,262.194,135.882z M260.564,146.822
				c-4.397-0.724-6.545-3.361-7.333-5.844l-0.002-0.008l-0.091-0.286c-0.019-0.056-0.056-0.165-0.108-0.319
				c-0.022-0.071-0.052-0.172-0.08-0.265l5.643-8.624l0.109,0.071c1.201,1.009,1.683,2.047,1.904,3.631
				c0.235,1.721,0.018,3.672-0.208,5.255c-0.102,0.742-0.194,1.38-0.237,1.896l-0.001,0.001
				C260.052,143.746,260.374,145.635,260.564,146.822z"/>
		</g>
		<g>
			<path class="st1" d="M271.702,143.773l-0.012-0.007c-0.093,1.638-0.487,3.318-0.826,4.684c-0.171,0.684-0.327,1.285-0.415,1.754
				c-0.249,1.368-0.103,3.549,0.009,4.558l7.314-7.298C275.9,144.952,273.003,144.032,271.702,143.773z M268.995,154.499
				c-4.371-1.183-6.253-4.098-6.772-6.67l-0.001-0.008l-0.058-0.299c-0.012-0.058-0.037-0.172-0.071-0.333
				c-0.013-0.074-0.032-0.179-0.049-0.276l6.642-7.881l0.097,0.083c1.038,1.137,1.411,2.193,1.437,3.792
				c0.026,1.734-0.395,3.643-0.781,5.192c-0.178,0.727-0.335,1.352-0.429,1.862l-0.001,0.001
				C268.755,151.366,268.889,153.283,268.995,154.499z"/>
		</g>
		<g>
			<path class="st1" d="M280.335,152.334l-0.011-0.008c-0.215,1.621-0.691,3.253-1.105,4.598c-0.208,0.672-0.389,1.26-0.505,1.73
				c-0.336,1.38-0.274,3.546-0.211,4.561l7.652-6.943C284.374,153.668,281.631,152.664,280.335,152.334z M277.049,162.886
				c-4.334-1.406-6.129-4.579-6.462-7.2l0-0.008l-0.035-0.308c-0.008-0.06-0.023-0.177-0.045-0.344
				c-0.008-0.076-0.018-0.184-0.028-0.283l7.296-7.28l0.087,0.089c0.885,1.21,1.198,2.237,1.089,3.827
				c-0.117,1.722-0.68,3.613-1.141,5.123c-0.217,0.713-0.406,1.327-0.526,1.831l-0.001,0.001
				C276.966,159.71,276.992,161.684,277.049,162.886z"/>
		</g>
		<g>
			<path class="st1" d="M288.482,161.258l-0.011-0.008c-0.291,1.608-0.834,3.207-1.318,4.537c-0.243,0.665-0.46,1.25-0.596,1.712
				c-0.398,1.361-0.434,3.523-0.416,4.538l7.971-6.574C292.439,162.793,289.775,161.637,288.482,161.258z M284.701,171.643
				c-4.252-1.619-5.918-4.855-6.112-7.501l0-0.008l-0.022-0.308c-0.005-0.06-0.015-0.178-0.03-0.345
				c-0.004-0.076-0.01-0.184-0.015-0.284l7.633-6.925l0.083,0.092c0.84,1.238,1.086,2.294,0.9,3.88
				c-0.195,1.711-0.844,3.571-1.374,5.055c-0.25,0.701-0.467,1.305-0.609,1.801l-0.001,0.001
				C284.756,168.477,284.698,170.442,284.701,171.643z"/>
		</g>
		<g>
			<path class="st1" d="M296.201,170.554l-0.01-0.009c-0.355,1.583-0.991,3.17-1.54,4.477c-0.273,0.652-0.516,1.226-0.673,1.68
				c-0.46,1.339-0.59,3.492-0.62,4.506l8.272-6.191C300.061,172.289,297.482,170.988,296.201,170.554z M291.935,180.749
				c-4.181-1.811-5.692-5.121-5.749-7.784l0.001-0.008l-0.008-0.308c-0.002-0.06-0.007-0.178-0.014-0.345
				c-0.001-0.076-0.002-0.184-0.003-0.283l7.952-6.557l0.079,0.096c0.783,1.274,0.955,2.36,0.709,3.923
				c-0.272,1.697-1.004,3.521-1.602,4.978c-0.287,0.692-0.537,1.289-0.706,1.781l-0.001,0.001
				C292.131,177.595,291.985,179.551,291.935,180.749z"/>
		</g>
		<g>
			<path class="st1" d="M303.477,180.2l-0.01-0.009c-0.442,1.574-1.155,3.131-1.758,4.407c-0.302,0.637-0.571,1.198-0.748,1.644
				c-0.52,1.314-0.741,3.451-0.839,4.477l8.554-5.795C307.268,182.104,304.701,180.719,303.477,180.2z M298.736,190.184
				c-4.107-1.995-5.44-5.387-5.387-8.038l0.001-0.008l0.01-0.311c0.001-0.061,0.003-0.18,0.006-0.348
				c0.004-0.077,0.009-0.186,0.014-0.285l8.251-6.176l0.072,0.101c0.698,1.328,0.842,2.403,0.52,3.954
				c-0.346,1.678-1.161,3.465-1.843,4.903c-0.318,0.677-0.595,1.26-0.786,1.744l-0.001,0.001
				C299.072,187.048,298.84,188.992,298.736,190.184z"/>
		</g>
		<g>
			<path class="st1" d="M310.28,190.186l-0.009-0.01c-0.52,1.554-1.297,3.07-1.959,4.316c-0.33,0.622-0.625,1.169-0.821,1.605
				c-0.567,1.28-0.923,3.425-1.056,4.437l8.818-5.386C314.007,192.247,311.466,190.769,310.28,190.186z M305.074,199.935
				c-4.003-2.189-5.171-5.643-5.003-8.283l0.002-0.008l0.024-0.31c0.004-0.061,0.011-0.179,0.021-0.347
				c0.007-0.076,0.017-0.185,0.027-0.284l8.533-5.781l0.068,0.104c0.639,1.356,0.736,2.435,0.345,3.967
				c-0.414,1.653-1.347,3.422-2.08,4.816c-0.349,0.661-0.651,1.229-0.864,1.703l-0.001,0.001
				C305.559,196.818,305.259,198.734,305.074,199.935z"/>
		</g>
		<g>
			<path class="st1" d="M316.334,220.289c0.277-1.167,0.803-3.069,1.502-4.308c0.256-0.451,0.61-0.99,1.018-1.615
				c0.862-1.318,1.927-2.973,2.517-4.591c0.554-1.499,0.55-2.578,0.03-3.981c-1.097-3.034-3.608-4.674-4.803-5.31l-0.009-0.01
				c-0.589,1.526-1.433,3.002-2.151,4.214c-0.358,0.604-0.677,1.136-0.893,1.563c-0.782,1.531-1.237,4.32-1.322,4.858l-0.007,0.042
				c-0.005,0.034-0.009,0.059-0.009,0.059l-0.002,0.005c-0.002,0.013-0.006,0.034-0.007,0.044c-0.266,1.306-0.21,2.907,0.393,4.507
				C313.212,217.358,314.383,218.948,316.334,220.289z M306.435,200.534l8.818-5.386l0.055,0.111
				c0.578,1.383,0.633,2.459,0.166,3.974c-0.518,1.647-1.508,3.355-2.309,4.716c-0.378,0.643-0.706,1.196-0.94,1.658l-0.001,0
				c-0.63,1.266-1.056,3.185-1.287,4.371c-3.888-2.378-4.892-5.884-4.603-8.51l0.002-0.008l0.038-0.308
				c0.006-0.06,0.019-0.178,0.036-0.345C306.417,200.731,306.426,200.633,306.435,200.534z M317.665,221.033
				c0.22-0.987,0.737-3.101,1.446-4.337c0.235-0.409,0.583-0.928,0.983-1.531c0.744-1.131,1.618-2.503,2.269-3.939l0.009,0.013
				c2.219,3.323,2.367,6.268,0.607,8.185C321.531,220.993,319.11,221.493,317.665,221.033z"/>
		</g>
	</g>
	<path class="st2" d="M444.71,324.495l-9.987-13.724c-0.028-0.036-0.053-0.074-0.08-0.11l-2.637-3.624
		c-3.227-6.39-6.453-12.779-9.679-19.17c0.245,7.154,0.492,14.308,0.739,21.463l-0.569,4.456c-0.006,0.037-0.008,0.074-0.015,0.111
		l-2.153,16.851l0.374,0.338l3.748-3.84c3.43,33.231-16.292,65.028-48.053,76.397l-30.754-119.949l40.484-10.38
		c3.654-0.937,5.858-4.659,4.921-8.314c-0.937-3.655-4.659-5.858-8.314-4.921l-40.484,10.38l-7.589-29.601
		c8.131-5.082,12.439-15.024,9.934-24.795c-3.096-12.077-15.441-19.384-27.519-16.287c-12.078,3.097-19.384,15.441-16.287,27.519
		c2.505,9.771,11.065,16.414,20.638,16.957l7.59,29.602l-40.481,10.379c-3.654,0.937-5.858,4.659-4.921,8.314
		c0.937,3.655,4.659,5.858,8.314,4.921l40.484-10.38l30.753,119.947c-33.313,5.316-65.902-13.07-78.883-43.852l5.133,1.562
		l0.165-0.476l-9.995-13.736c-0.022-0.03-0.043-0.061-0.066-0.09l-2.643-3.632c-3.226-6.39-6.452-12.78-9.679-19.17
		c0.246,7.154,0.493,14.307,0.739,21.463l-0.568,4.446c-0.007,0.045-0.011,0.09-0.018,0.135l-2.152,16.836l0.308,0.355l5.013-5.11
		c15.527,40.685,59.57,64.21,102.741,53.141s70.46-52.882,64.498-96.019l6.853,2.068L444.71,324.495z M320.471,213.01
		c4.778-1.225,9.665,1.665,10.891,6.446c1.226,4.781-1.668,9.666-6.446,10.891s-9.665-1.665-10.891-6.446
		C312.799,219.12,315.693,214.235,320.471,213.01z"/>
	<g>
		<g>
			<path class="st1" d="M368.505,192.946c-1.247-0.941-2.749-2.165-4.177-3.014c-1.314-0.771-2.238-0.943-3.535-0.803
				c-0.692,0.086-1.316,0.283-1.889,0.521c-0.579,0.212-1.101,0.488-1.566,0.79c-0.926,0.624-1.645,1.283-2.086,1.717
				c0.982,0.957,1.852,1.976,2.723,2.924c0.592,0.65,1.166,1.261,1.801,1.833c1.399,1.3,3.47,1.932,4.273,2.181
				c0.168,0.055,0.287,0.093,0.347,0.113l0.311,0.105l0.008,0.004c1.335,0.462,3.007,0.456,4.796-0.035
				c1.738-0.593,3.58-1.717,4.975-3.736c-1.252-0.222-3.2-0.695-4.426-1.488l0-0.001
				C369.615,193.78,369.094,193.396,368.505,192.946z M362.436,200.148l-0.002,0.001c-3.718,1.36-6.632,0.696-7.913-1.473
				c-1.053-1.766-0.856-4.139-0.156-5.429c0.905,0.881,1.737,1.872,2.57,2.835c0.578,0.675,1.179,1.311,1.844,1.926
				C359.887,199.016,361.36,199.764,362.436,200.148z M370.363,185.089l4.882,9.076c-1.069-0.172-3.217-0.629-4.408-1.346
				c-0.411-0.246-0.922-0.622-1.485-1.042c-1.132-0.844-2.46-1.868-3.776-2.68l0.01-0.007
				C366.275,188.018,367.801,185.974,370.363,185.089z"/>
		</g>
		<g>
			<path class="st1" d="M375.152,184.062l-0.008,0.009c1.45,0.56,2.978,1.366,4.223,1.953c0.626,0.3,1.187,0.561,1.637,0.728
				c1.315,0.5,3.56,0.617,4.606,0.543l-6.49-8.04C376.78,180.617,375.651,182.913,375.152,184.062z M385.118,188.793
				c-2.071,4.453-6.185,5.85-8.893,5.499l-0.008-0.002l-0.32-0.037c-0.062-0.006-0.184-0.019-0.357-0.037
				c-0.079-0.013-0.191-0.032-0.294-0.049l-4.882-9.077l0.097-0.047c1.22-0.446,2.185-0.408,3.631,0.118
				c1.541,0.529,3.244,1.45,4.661,2.17c0.665,0.335,1.26,0.635,1.739,0.814l0.001,0.001
				C381.811,188.652,383.833,188.787,385.118,188.793z"/>
		</g>
		<g>
			<path class="st1" d="M383.651,177.379l-0.007,0.01c1.567,0.322,3.129,0.744,4.496,1.124c0.676,0.184,1.28,0.34,1.757,0.424
				c1.422,0.281,3.562-0.106,4.625-0.333l-7.881-6.681c-1.034,0.886-1.676,1.954-2.162,2.923
				C384.017,175.831,383.799,176.792,383.651,177.379z M394.302,180.157c-1.215,4.761-4.956,6.957-7.72,7.063l-0.009,0l-0.324,0.018
				c-0.063,0.004-0.186,0.013-0.361,0.025c-0.079,0.003-0.192,0.006-0.295,0.01l-6.473-8.02l0.084-0.067
				c1.133-0.644,2.113-0.758,3.592-0.551c1.607,0.232,3.503,0.877,4.995,1.288c0.71,0.201,1.331,0.366,1.844,0.461l0.001,0.001
				C391.039,180.651,393.082,180.435,394.302,180.157z"/>
		</g>
		<g>
			<path class="st1" d="M390.724,169.24l-0.004,0.011c1.55-0.012,3.225,0.145,4.638,0.253c0.712,0.059,1.316,0.083,1.794,0.07
				c1.394-0.043,3.499-0.765,4.499-1.243l-9.062-4.963c-0.835,1.001-1.29,2.191-1.529,3.244
				C390.779,167.651,390.724,168.615,390.724,169.24z M401.714,169.909c-0.079,1.209-0.301,2.342-0.699,3.313
				c-0.409,0.965-0.933,1.811-1.517,2.527c-1.211,1.403-2.693,2.25-4.021,2.609l-0.009,0.001l-0.32,0.076
				c-0.062,0.015-0.183,0.046-0.355,0.089c-0.078,0.017-0.19,0.04-0.292,0.062l-7.862-6.665l0.071-0.08
				c1.026-0.811,1.872-1.176,3.415-1.21c1.673-0.036,3.552,0.164,5.135,0.308c0.742,0.065,1.389,0.112,1.916,0.11l0.001,0.001
				C398.643,171.064,400.513,170.388,401.714,169.909z"/>
		</g>
		<g>
			<path class="st1" d="M394.377,162.572l0.004,0.003c1.222-0.529,2.321-1.667,2.945-2.87c0.318-0.597,0.521-1.202,0.645-1.67
				c0.365-1.397,0.08-3.664-0.213-4.758l-6.837,7.747c0.368,0.461,0.765,0.841,1.178,1.165c0.216,0.168,0.405,0.292,0.581,0.39
				c0.179,0.104,0.354,0.187,0.399,0.109C393.417,162.527,393.983,162.504,394.377,162.572z M399.386,153.619
				c0.625,0.214,1.188,0.455,1.75,0.783c0.576,0.356,1.074,0.688,1.764,1.454c1.258,1.367,2.078,3.026,2.342,4.643
				c0.572,3.307-1.113,6.017-2.643,7.231l-0.01,0.007c-0.126,0.112-0.233,0.182-0.335,0.236c-0.06,0.035-0.178,0.105-0.345,0.203
				c-0.076,0.038-0.183,0.092-0.282,0.141l-9.04-4.95c0.02-0.024,0.024-0.054,0.044-0.078c0.087-0.102,0.17-0.189,0.246-0.258
				l0.127,0.035c0.099,0.025,0.222,0.046,0.38,0.059c0.316,0.023,0.771,0.016,1.391-0.132c1.362-0.296,2.957-1.386,3.835-2.649
				c0.423-0.586,0.712-1.175,0.875-1.704l0.001,0C399.86,157.054,399.642,154.926,399.386,153.619z"/>
		</g>
		<g>
			<path class="st1" d="M388.547,157.347l0.01,0.003c-0.047-1.515-0.041-3.171-0.112-4.57c-0.034-0.697-0.086-1.32-0.173-1.793
				c-0.231-1.408-1.404-3.365-1.997-4.234l-3.377,9.765c1.236,0.646,2.272,0.831,3.229,0.897
				C387.088,157.478,387.969,157.414,388.547,157.347z M387.818,146.401c2.507-0.288,4.914,0.516,6.549,1.705
				c1.675,1.195,2.689,2.777,3.099,4.181l0.002,0.009l0.094,0.33c0.018,0.064,0.055,0.19,0.106,0.368
				c0.019,0.082,0.047,0.197,0.072,0.303l-6.82,7.728c-0.02-0.025-0.049-0.037-0.068-0.062c-0.69-0.894-0.939-1.718-0.991-3.183
				c-0.059-1.581,0.05-3.506,0.021-5.084c-0.01-0.747-0.048-1.391-0.123-1.916l0-0.001
				C389.574,149.342,388.535,147.473,387.818,146.401z"/>
		</g>
		<g>
			<path class="st1" d="M378.485,153.345l0.014,0.002c-0.588-1.579-0.871-3.304-0.974-4.716c-0.04-0.699-0.075-1.316-0.102-1.792
				c-0.134-1.39-0.466-3.325-0.447-4.164l-6.6,7.95c1.536,1.544,3.324,2.311,4.813,2.634
				C376.64,153.556,377.785,153.455,378.485,153.345z M378.17,142.516c0.891-0.067,1.61-0.083,2.291,0.015
				c0.708,0.109,1.376,0.33,2.019,0.649c1.279,0.633,2.462,1.67,3.234,2.79l0.004,0.007l0.179,0.263
				c0.036,0.051,0.107,0.151,0.208,0.294c0.044,0.066,0.105,0.16,0.162,0.246l-3.369,9.74l-0.103-0.037
				c-1.166-0.634-1.925-1.418-2.567-2.882c-0.708-1.586-1.076-3.554-1.245-5.118c-0.073-0.734-0.137-1.367-0.188-1.878l0-0.001
				C378.599,145.216,378.228,143.508,378.17,142.516z"/>
		</g>
		<g>
			<path class="st1" d="M380.954,131.324c-1.127-0.087-2.962-0.212-4.322-0.551c-0.496-0.139-1.111-0.311-1.822-0.51
				c-1.518-0.413-3.485-0.794-5.348-0.427c-1.702,0.367-2.9,1.187-3.966,3.169c-1.149,2.168-1.271,4.85-0.725,6.789
				c0.531,1.948,1.552,3.267,2.221,3.893l0.01,0.017c0.557-1.926,1.836-3.35,2.979-4.188c0.541-0.426,1.129-0.732,1.515-0.961
				c0.346-0.205,0.732-0.447,1.146-0.666c0.39-0.221,0.785-0.418,1.178-0.574c0.719-0.313,1.408-0.477,1.576-0.53l0.033-0.009
				c0.027-0.007,0.047-0.012,0.047-0.012l0.004,0c0.011-0.003,0.027-0.007,0.035-0.008
				C377.602,136.345,379.484,135.505,380.954,131.324z M376.976,142.675l-6.6,7.95l-0.125-0.115
				c-1.417-1.514-1.988-3.001-1.835-4.887c0.173-2.076,1.35-3.901,2.501-4.954c0.529-0.508,1.056-0.874,1.458-1.157l0.001,0
				c1.048-0.836,2.451-1.552,3.309-1.735c0.421,0.585,0.81,0.85,1.034,1.074c0.223,0.246,0.305,0.339,0.33,0.589
				c0.035,0.458-0.034,1.413-0.078,2.473l-0.001,0.007l-0.008,0.249c0,0.049,0,0.146,0,0.283
				C376.966,142.514,376.971,142.594,376.976,142.675z M381.32,129.939c-0.966-0.066-3.044-0.182-4.399-0.549
				c-0.446-0.139-1.037-0.323-1.721-0.536c-1.305-0.399-2.914-0.798-4.598-0.76l0.011-0.015c2.838-3.71,5.896-4.383,8.087-3.02
				C380.512,126.193,381.431,128.491,381.32,129.939z"/>
		</g>
	</g>
	<g>
		<line class="st3" x1="324.18" y1="142.016" x2="324.18" y2="115.734"/>
		<line class="st3" x1="314.14" y1="147.216" x2="295.556" y2="128.632"/>
		<line class="st3" x1="334.22" y1="146.972" x2="352.804" y2="128.388"/>
	</g>
	<g class="st4">
		<path class="st5" d="M484.807,157.17c0-17.626-14.289-31.915-31.915-31.915c-17.626,0-31.915,14.289-31.915,31.915
			c0,12.622,7.328,23.53,17.961,28.707c-5.844,3.27-9.801,9.512-9.801,16.685c0,10.557,8.558,19.116,19.116,19.116
			c10.557,0,19.116-8.558,19.116-19.116c0-5.779-2.576-10.948-6.629-14.453C474.572,184.612,484.807,172.088,484.807,157.17z"/>
		<circle class="st5" cx="360.494" cy="49.523" r="19.883"/>
		<circle class="st5" cx="68.877" cy="265.773" r="10.518"/>
		
			<ellipse transform="matrix(0.7071 -0.7071 0.7071 0.7071 14.6798 84.3914)" class="st5" cx="109.209" cy="24.476" rx="7.178" ry="7.178"/>
		<path class="st5" d="M234.047,380.883c3.633-3.229,5.934-7.923,5.934-13.165c0-9.734-7.891-17.626-17.626-17.626
			c-9.734,0-17.626,7.891-17.626,17.626c0,2.291,0.451,4.474,1.247,6.482c-13.773,3.384-23.991,15.808-23.991,30.625
			c0,17.42,14.121,31.541,31.541,31.541s31.541-14.121,31.541-31.541C245.067,395.244,240.789,386.667,234.047,380.883z"/>
	</g>
</g>
<ellipse transform="matrix(0.3522 -0.9359 0.9359 0.3522 -0.6836 424.4697)" class="st6" cx="306.287" cy="212.729" rx="6.461" ry="2.389"/>
</svg>
