<?xml version="1.0" encoding="utf-8"?>
<!-- Generator: Adobe Illustrator 27.4.1, SVG Export Plug-In . SVG Version: 6.00 Build 0)  -->
<svg version="1.1" id="Layer_1" xmlns="http://www.w3.org/2000/svg" xmlns:xlink="http://www.w3.org/1999/xlink" x="0px" y="0px"
	 viewBox="0 0 500 500" style="enable-background:new 0 0 500 500;" xml:space="preserve">
<style type="text/css">
	.st0{fill:#3DBFED;}
	.st1{fill:#BE1622;}
	.st2{fill:#DADADA;}
	.st3{fill:#3C3C3B;}
	.st4{fill:#E62D3B;}
	.st5{fill:#575756;}
	.st6{fill:url(#SVGID_1_);}
</style>
<ellipse class="st0" cx="266.17" cy="413.022" rx="222.529" ry="53.7"/>
<g>
	<g>
		
			<rect x="199.477" y="127.03" transform="matrix(0.9447 -0.3279 0.3279 0.9447 -70.8214 83.1074)" class="st1" width="23.086" height="249.049"/>
		<polygon class="st2" points="227.887,264.945 201.652,259.765 196.5,244.923 222.736,250.103 		"/>
		<polygon class="st2" points="218.085,236.707 191.85,231.526 186.698,216.684 212.934,221.865 		"/>
		<polygon class="st2" points="208.283,208.468 182.048,203.288 176.896,188.446 203.132,193.626 		"/>
		<polygon class="st2" points="198.481,180.23 172.246,175.049 167.094,160.207 193.33,165.388 		"/>
		<polygon class="st2" points="188.679,151.991 162.444,146.811 157.292,131.969 183.528,137.149 		"/>
		<polygon class="st2" points="237.689,293.184 211.454,288.004 206.302,273.161 232.537,278.342 		"/>
		<polygon class="st2" points="247.491,321.422 221.256,316.242 216.104,301.4 242.339,306.58 		"/>
		<polygon class="st2" points="257.293,349.661 231.058,344.481 225.906,329.638 252.141,334.819 		"/>
	</g>
	<path class="st3" d="M155.319,387.009c-0.286,0.099-0.59,0.163-0.909,0.187c-2.269,0.167-4.396-1.78-4.75-4.346l-25.227-182.191
		c-0.356-2.567,1.188-4.787,3.463-4.952c2.268-0.168,4.395,1.778,4.75,4.346l25.227,182.19
		C158.179,384.451,157.075,386.399,155.319,387.009z"/>
	<path class="st3" d="M341.363,322.43c-1.757,0.61-3.83-0.236-4.958-2.159l-93.079-158.638c-1.312-2.236-0.847-5.082,1.037-6.355
		c1.88-1.276,4.474-0.493,5.787,1.742l93.079,158.639c1.312,2.236,0.847,5.08-1.037,6.355
		C341.928,322.192,341.65,322.331,341.363,322.43z"/>
	<path class="st4" d="M187.296,115.411l-42.004,14.58l-11.467-33.035c-2.983-8.594,1.565-17.978,10.159-20.961l10.884-3.778
		c8.594-2.983,17.978,1.565,20.961,10.159L187.296,115.411z"/>
	
		<rect x="139.92" y="118.361" transform="matrix(0.9447 -0.3279 0.3279 0.9447 -33.0606 62.4221)" class="st5" width="57.289" height="21.763"/>
	<path class="st5" d="M269.071,300.637l-73.207,25.411l-6.764-19.486c-2.893-8.335,1.518-17.436,9.853-20.329l43.025-14.935
		c8.335-2.893,17.436,1.518,20.329,9.853L269.071,300.637z"/>
	<path class="st3" d="M249.18,158.479L123.4,202.139l-11.642-13.582c-4.266-4.977-2.896-12.785,2.576-14.685l124.448-43.198
		c5.473-1.9,11.386,3.381,11.121,9.93L249.18,158.479z"/>
	<path class="st3" d="M290.524,244.602l-147.823,51.311c-2.131,0.74-4.551-0.659-5.407-3.124c-0.856-2.465,0.178-5.062,2.308-5.802
		l147.823-51.311c2.13-0.739,4.551,0.659,5.407,3.124S292.654,243.862,290.524,244.602z"/>
	<path class="st3" d="M263.562,203.431L136.026,247.7c-2.131,0.74-4.551-0.659-5.407-3.124c-0.856-2.465,0.178-5.062,2.308-5.802
		l127.536-44.269c2.13-0.739,4.551,0.659,5.407,3.124S265.692,202.691,263.562,203.431z"/>
	<path class="st3" d="M136.024,247.702c-1.694,0.588-3.699-0.173-4.857-1.991c-1.389-2.181-1.034-5.056,0.794-6.422l112.26-83.911
		c1.834-1.365,4.437-0.705,5.826,1.475c1.389,2.181,1.034,5.056-0.793,6.422l-112.262,83.911
		C136.689,247.413,136.362,247.585,136.024,247.702z"/>
	<path class="st3" d="M263.564,203.431c-0.356,0.124-0.738,0.192-1.138,0.196l-133.474,1.387c-2.284,0.024-4.321-2.043-4.549-4.616
		c-0.228-2.572,1.437-4.678,3.723-4.702l133.473-1.387c2.284-0.024,4.321,2.043,4.55,4.616
		C266.338,201.047,265.237,202.851,263.564,203.431z"/>
	<path class="st3" d="M341.364,322.43c-0.514,0.179-1.078,0.24-1.667,0.162l-198.665-26.515c-2.295-0.306-4.102-2.626-4.035-5.181
		c0.066-2.555,1.98-4.38,4.275-4.072l198.665,26.515c2.295,0.307,4.102,2.627,4.035,5.181
		C343.922,320.419,342.853,321.913,341.364,322.43z"/>
	<path class="st3" d="M155.318,387.009c-1.475,0.512-3.224,0.017-4.442-1.42c-1.65-1.948-1.694-4.89-0.099-6.571l135.21-142.407
		c1.593-1.681,4.227-1.465,5.877,0.485c1.651,1.948,1.695,4.891,0.098,6.572L156.755,386.074
		C156.335,386.515,155.844,386.827,155.318,387.009z"/>
	<path class="st1" d="M355.655,320.152l-5.534-15.942l-215.674,74.863l5.534,15.942c33.492,20.537,73.952,34.905,120.31,44.051
		c10.13,1.999,21.724-1.986,28.632-9.729c35.512-39.805,57.793-76.21,66.743-109.189L355.655,320.152z"/>
	
		<linearGradient id="SVGID_1_" gradientUnits="userSpaceOnUse" x1="193.4671" y1="95.3841" x2="193.4671" y2="12.4312" gradientTransform="matrix(0.9447 -0.3279 0.3279 0.9447 -51.4535 78.8412)">
		<stop  offset="0" style="stop-color:#EF7A7C"/>
		<stop  offset="0.86" style="stop-color:#EF7A7C;stop-opacity:0"/>
	</linearGradient>
	<path class="st6" d="M223.846,70.206l-4.423-30.728l-31.029-0.98l-23.14-20.695l-24.399,19.195l-31.029-0.98l-6.353,30.388
		L79.073,85.6l14.666,27.362l-3.708,17.735l14.685-5.097c-11.048-31.827,5.797-66.584,37.625-77.632
		c31.827-11.048,66.584,5.797,77.632,37.625l15.184-5.271L223.846,70.206z"/>
</g>
<path class="st0" d="M195.559,377.425c-37.211,22.228-56.367,46.327-68.099,71.194h82.208
	C183.328,424.917,183.882,401.178,195.559,377.425z"/>
<path class="st0" d="M258.792,371.894c-37.211,22.228-56.367,46.327-68.099,71.194h82.208
	C246.562,419.386,247.115,395.647,258.792,371.894z"/>
<path class="st0" d="M334.269,371.894c-37.211,22.228-56.367,46.327-68.099,71.194h82.208
	C322.038,419.386,322.591,395.647,334.269,371.894z"/>
</svg>
