<?xml version="1.0" encoding="utf-8"?>
<!-- Generator: Adobe Illustrator 27.4.1, SVG Export Plug-In . SVG Version: 6.00 Build 0)  -->
<svg version="1.1" id="Layer_1" xmlns="http://www.w3.org/2000/svg" xmlns:xlink="http://www.w3.org/1999/xlink" x="0px" y="0px"
	 viewBox="0 0 503.3 38.7" style="enable-background:new 0 0 503.3 38.7;" xml:space="preserve">
<style type="text/css">
	.st0{fill:#F8F8FF;}
	.st1{fill:#133859;}
	.st2{fill:#9CD9D3;stroke:#133859;stroke-width:2;stroke-miterlimit:10.0002;}
	.st3{fill:#123859;}
	.st4{fill:#9BD6D1;}
</style>
<g>
	<path class="st0" d="M502.8,22.4H10.9C9.4,22.4,8,22,7,21.3l-5.8-3.9C0.6,17,1,16.3,1.9,16.3h491.8l10,5.5
		C503.7,22.2,503.3,22.4,502.8,22.4z"/>
	<path class="st1" d="M503.3,21.4c0.8,0.5,0.5,1-0.6,1h-1.9c-1.1,0-2.6-0.4-3.4-1l-6.7-4.1c-0.8-0.5-0.5-1,0.6-1h1.9
		c1.1,0,2.6,0.4,3.4,1L503.3,21.4z M494.4,21.4c0.8,0.5,0.5,1-0.6,1h-1.9c-1.1,0-2.6-0.4-3.4-1l-6.7-4.1c-0.8-0.5-0.5-1,0.6-1h1.9
		c1.1,0,2.6,0.4,3.4,1L494.4,21.4z M485.4,21.4c0.8,0.5,0.5,1-0.6,1h-1.9c-1.1,0-2.6-0.4-3.4-1l-6.7-4.1c-0.8-0.5-0.5-1,0.6-1h1.9
		c1.1,0,2.6,0.4,3.4,1L485.4,21.4z M476.5,21.4c0.8,0.5,0.5,1-0.6,1H474c-1.1,0-2.6-0.4-3.4-1l-6.7-4.1c-0.8-0.5-0.5-1,0.6-1h1.9
		c1.1,0,2.6,0.4,3.4,1L476.5,21.4z M467.6,21.4c0.8,0.5,0.5,1-0.6,1h-2c-1.1,0-2.6-0.4-3.4-1l-6.7-4.1c-0.8-0.5-0.5-1,0.6-1h1.9
		c1.1,0,2.6,0.4,3.4,1L467.6,21.4z M458.7,21.4c0.8,0.5,0.5,1-0.6,1h-1.9c-1.1,0-2.6-0.4-3.4-1l-6.7-4.1c-0.8-0.5-0.5-1,0.6-1h1.9
		c1.1,0,2.6,0.4,3.4,1L458.7,21.4z M449.7,21.4c0.8,0.5,0.5,1-0.6,1h-1.9c-1.1,0-2.6-0.4-3.4-1l-6.7-4.1c-0.8-0.5-0.5-1,0.6-1h1.9
		c1.1,0,2.6,0.4,3.4,1L449.7,21.4z M440.8,21.4c0.8,0.5,0.5,1-0.6,1h-1.9c-1.1,0-2.6-0.4-3.4-1l-6.7-4.1c-0.8-0.5-0.5-1,0.6-1h1.9
		c1.1,0,2.6,0.4,3.4,1L440.8,21.4z M431.9,21.4c0.8,0.5,0.5,1-0.6,1h-1.9c-1.1,0-2.6-0.4-3.4-1l-6.7-4.1c-0.8-0.5-0.5-1,0.6-1h1.9
		c1.1,0,2.6,0.4,3.4,1L431.9,21.4z M423,21.4c0.8,0.5,0.5,1-0.6,1h-1.9c-1.1,0-2.6-0.4-3.4-1l-6.7-4.1c-0.8-0.5-0.5-1,0.6-1h1.9
		c1.1,0,2.6,0.4,3.4,1L423,21.4z M414.1,21.4c0.8,0.5,0.5,1-0.6,1h-1.9c-1.1,0-2.6-0.4-3.4-1l-6.7-4.1c-0.8-0.5-0.5-1,0.6-1h1.9
		c1.1,0,2.6,0.4,3.4,1L414.1,21.4z M405.1,21.4c0.8,0.5,0.5,1-0.6,1h-1.9c-1.1,0-2.6-0.4-3.4-1l-6.7-4.1c-0.8-0.5-0.5-1,0.6-1h1.9
		c1.1,0,2.6,0.4,3.4,1L405.1,21.4z M396.2,21.4c0.8,0.5,0.5,1-0.6,1h-1.9c-1.1,0-2.6-0.4-3.4-1l-6.7-4.1c-0.8-0.5-0.5-1,0.6-1h1.9
		c1.1,0,2.6,0.4,3.4,1L396.2,21.4z M387.3,21.4c0.8,0.5,0.5,1-0.6,1h-1.9c-1.1,0-2.6-0.4-3.4-1l-6.7-4.1c-0.8-0.5-0.5-1,0.6-1h1.9
		c1.1,0,2.6,0.4,3.4,1L387.3,21.4z M378.4,21.4c0.8,0.5,0.5,1-0.6,1h-1.9c-1.1,0-2.6-0.4-3.4-1l-6.7-4.1c-0.8-0.5-0.5-1,0.6-1h1.9
		c1.1,0,2.6,0.4,3.4,1L378.4,21.4z M369.5,21.4c0.8,0.5,0.5,1-0.6,1H367c-1.1,0-2.6-0.4-3.4-1l-6.7-4.1c-0.8-0.5-0.5-1,0.6-1h1.9
		c1.1,0,2.6,0.4,3.4,1L369.5,21.4z M360.5,21.4c0.8,0.5,0.5,1-0.6,1H358c-1.1,0-2.6-0.4-3.4-1l-6.7-4.1c-0.8-0.5-0.5-1,0.6-1h1.9
		c1.1,0,2.6,0.4,3.4,1L360.5,21.4z M351.6,21.4c0.8,0.5,0.5,1-0.6,1h-2c-1.1,0-2.6-0.4-3.4-1l-6.7-4.1c-0.8-0.5-0.5-1,0.6-1h1.9
		c1.1,0,2.6,0.4,3.4,1L351.6,21.4z M342.7,21.4c0.8,0.5,0.5,1-0.6,1h-1.9c-1.1,0-2.6-0.4-3.4-1l-6.7-4.1c-0.8-0.5-0.5-1,0.6-1h1.9
		c1.1,0,2.6,0.4,3.4,1L342.7,21.4z M333.8,21.4c0.8,0.5,0.5,1-0.6,1h-1.9c-1.1,0-2.6-0.4-3.4-1l-6.7-4.1c-0.8-0.5-0.5-1,0.6-1h1.9
		c1.1,0,2.6,0.4,3.4,1L333.8,21.4z M324.8,21.4c0.8,0.5,0.5,1-0.6,1h-1.9c-1.1,0-2.6-0.4-3.4-1l-6.7-4.1c-0.8-0.5-0.5-1,0.6-1h1.9
		c1.1,0,2.6,0.4,3.4,1L324.8,21.4z M315.9,21.4c0.8,0.5,0.5,1-0.6,1h-1.9c-1.1,0-2.6-0.4-3.4-1l-6.7-4.1c-0.8-0.5-0.5-1,0.6-1h1.9
		c1.1,0,2.6,0.4,3.4,1L315.9,21.4z M307,21.4c0.8,0.5,0.5,1-0.6,1h-1.9c-1.1,0-2.6-0.4-3.4-1l-6.7-4.1c-0.8-0.5-0.5-1,0.6-1h1.9
		c1.1,0,2.6,0.4,3.4,1L307,21.4z M298.1,21.4c0.8,0.5,0.5,1-0.6,1h-1.9c-1.1,0-2.6-0.4-3.4-1l-6.7-4.1c-0.8-0.5-0.5-1,0.6-1h1.9
		c1.1,0,2.6,0.4,3.4,1L298.1,21.4z M289.2,21.4c0.8,0.5,0.5,1-0.6,1h-1.9c-1.1,0-2.6-0.4-3.4-1l-6.7-4.1c-0.8-0.5-0.5-1,0.6-1h1.9
		c1.1,0,2.6,0.4,3.4,1L289.2,21.4z M280.2,21.4c0.8,0.5,0.5,1-0.6,1h-1.9c-1.1,0-2.6-0.4-3.4-1l-6.7-4.1c-0.8-0.5-0.5-1,0.6-1h1.9
		c1.1,0,2.6,0.4,3.4,1L280.2,21.4z M271.3,21.4c0.8,0.5,0.5,1-0.6,1h-1.9c-1.1,0-2.6-0.4-3.4-1l-6.7-4.1c-0.8-0.5-0.5-1,0.6-1h1.9
		c1.1,0,2.6,0.4,3.4,1L271.3,21.4z M262.4,21.4c0.8,0.5,0.5,1-0.6,1h-1.9c-1.1,0-2.6-0.4-3.4-1l-6.7-4.1c-0.8-0.5-0.5-1,0.6-1h1.9
		c1.1,0,2.6,0.4,3.4,1L262.4,21.4z M253.5,21.4c0.8,0.5,0.5,1-0.6,1H251c-1.1,0-2.6-0.4-3.4-1l-6.7-4.1c-0.8-0.5-0.5-1,0.6-1h1.9
		c1.1,0,2.6,0.4,3.4,1L253.5,21.4z M244.6,21.4c0.8,0.5,0.5,1-0.6,1h-2c-1.1,0-2.6-0.4-3.4-1l-6.7-4.1c-0.8-0.5-0.5-1,0.6-1h1.9
		c1.1,0,2.6,0.4,3.4,1L244.6,21.4z M235.6,21.4c0.8,0.5,0.5,1-0.6,1h-1.9c-1.1,0-2.6-0.4-3.4-1l-6.7-4.1c-0.8-0.5-0.5-1,0.6-1h1.9
		c1.1,0,2.6,0.4,3.4,1L235.6,21.4z M226.7,21.4c0.8,0.5,0.5,1-0.6,1h-1.9c-1.1,0-2.6-0.4-3.4-1l-6.7-4.1c-0.8-0.5-0.5-1,0.6-1h1.9
		c1.1,0,2.6,0.4,3.4,1L226.7,21.4z M217.8,21.4c0.8,0.5,0.5,1-0.6,1h-1.9c-1.1,0-2.6-0.4-3.4-1l-6.7-4.1c-0.8-0.5-0.5-1,0.6-1h1.9
		c1.1,0,2.6,0.4,3.4,1L217.8,21.4z M208.9,21.4c0.8,0.5,0.5,1-0.6,1h-1.9c-1.1,0-2.6-0.4-3.4-1l-6.7-4.1c-0.8-0.5-0.5-1,0.6-1h1.9
		c1.1,0,2.6,0.4,3.4,1L208.9,21.4z M199.9,21.4c0.8,0.5,0.5,1-0.6,1h-1.9c-1.1,0-2.6-0.4-3.4-1l-6.7-4.1c-0.8-0.5-0.5-1,0.6-1h1.9
		c1.1,0,2.6,0.4,3.4,1L199.9,21.4z M191,21.4c0.8,0.5,0.5,1-0.6,1h-1.9c-1.1,0-2.6-0.4-3.4-1l-6.7-4.1c-0.8-0.5-0.5-1,0.6-1h1.9
		c1.1,0,2.6,0.4,3.4,1L191,21.4z M182.1,21.4c0.8,0.5,0.5,1-0.6,1h-1.9c-1.1,0-2.6-0.4-3.4-1l-6.7-4.1c-0.8-0.5-0.5-1,0.6-1h1.9
		c1.1,0,2.6,0.4,3.4,1L182.1,21.4z M173.2,21.4c0.8,0.5,0.5,1-0.6,1h-1.9c-1.1,0-2.6-0.4-3.4-1l-6.7-4.1c-0.8-0.5-0.5-1,0.6-1h1.9
		c1.1,0,2.6,0.4,3.4,1L173.2,21.4z M164.3,21.4c0.8,0.5,0.5,1-0.6,1h-1.9c-1.1,0-2.6-0.4-3.4-1l-6.7-4.1c-0.8-0.5-0.5-1,0.6-1h1.9
		c1.1,0,2.6,0.4,3.4,1L164.3,21.4z M155.3,21.4c0.8,0.5,0.5,1-0.6,1h-1.9c-1.1,0-2.6-0.4-3.4-1l-6.7-4.1c-0.8-0.5-0.5-1,0.6-1h1.9
		c1.1,0,2.6,0.4,3.4,1L155.3,21.4z M146.4,21.4c0.8,0.5,0.5,1-0.6,1h-1.9c-1.1,0-2.6-0.4-3.4-1l-6.7-4.1c-0.8-0.5-0.5-1,0.6-1h1.9
		c1.1,0,2.6,0.4,3.4,1L146.4,21.4z M137.5,21.4c0.8,0.5,0.5,1-0.6,1H135c-1.1,0-2.6-0.4-3.4-1l-6.7-4.1c-0.8-0.5-0.5-1,0.6-1h1.9
		c1.1,0,2.6,0.4,3.4,1L137.5,21.4z M128.6,21.4c0.8,0.5,0.5,1-0.6,1h-2c-1.1,0-2.6-0.4-3.4-1l-6.7-4.1c-0.8-0.5-0.5-1,0.6-1h1.9
		c1.1,0,2.6,0.4,3.4,1L128.6,21.4z M119.7,21.4c0.8,0.5,0.5,1-0.6,1h-1.9c-1.1,0-2.6-0.4-3.4-1l-6.7-4.1c-0.8-0.5-0.5-1,0.6-1h1.9
		c1.1,0,2.6,0.4,3.4,1L119.7,21.4z M110.7,21.4c0.8,0.5,0.5,1-0.6,1h-1.9c-1.1,0-2.6-0.4-3.4-1l-6.7-4.1c-0.8-0.5-0.5-1,0.6-1h1.9
		c1.1,0,2.6,0.4,3.4,1L110.7,21.4z M101.8,21.4c0.8,0.5,0.5,1-0.6,1h-1.9c-1.1,0-2.6-0.4-3.4-1l-6.7-4.1c-0.8-0.5-0.5-1,0.6-1h1.9
		c1.1,0,2.6,0.4,3.4,1L101.8,21.4z M92.9,21.4c0.8,0.5,0.5,1-0.6,1h-1.9c-1.1,0-2.6-0.4-3.4-1l-6.7-4.1c-0.8-0.5-0.5-1,0.6-1h1.9
		c1.1,0,2.6,0.4,3.4,1L92.9,21.4z M84,21.4c0.8,0.5,0.5,1-0.6,1h-1.9c-1.1,0-2.6-0.4-3.4-1l-6.7-4.1c-0.8-0.5-0.5-1,0.6-1h1.9
		c1.1,0,2.6,0.4,3.4,1L84,21.4z M75,21.4c0.8,0.5,0.5,1-0.6,1h-1.9c-1.1,0-2.6-0.4-3.4-1l-6.7-4.1c-0.8-0.5-0.5-1,0.6-1h2
		c1.1,0,2.6,0.4,3.4,1L75,21.4z M66.1,21.4c0.8,0.5,0.5,1-0.6,1h-1.9c-1.1,0-2.6-0.4-3.4-1l-6.7-4.1c-0.8-0.5-0.5-1,0.6-1H56
		c1.1,0,2.6,0.4,3.4,1L66.1,21.4z M57.2,21.4c0.8,0.5,0.5,1-0.6,1h-1.9c-1.1,0-2.6-0.4-3.4-1l-6.7-4.1c-0.8-0.5-0.5-1,0.6-1h1.9
		c1.1,0,2.6,0.4,3.4,1L57.2,21.4z M48.3,21.4c0.8,0.5,0.5,1-0.6,1h-1.9c-1.1,0-2.6-0.4-3.4-1l-6.7-4.1c-0.8-0.5-0.5-1,0.6-1h1.9
		c1.1,0,2.6,0.4,3.4,1L48.3,21.4z M39.4,21.4c0.8,0.5,0.5,1-0.6,1h-1.9c-1.1,0-2.6-0.4-3.4-1l-6.7-4.1c-0.8-0.5-0.5-1,0.6-1h1.9
		c1.1,0,2.6,0.4,3.4,1L39.4,21.4z M30.4,21.4c0.8,0.5,0.5,1-0.6,1h-1.9c-1.1,0-2.6-0.4-3.4-1l-6.7-4.1c-0.8-0.5-0.5-1,0.6-1h1.9
		c1.1,0,2.6,0.4,3.4,1L30.4,21.4z M21.5,21.4c0.8,0.5,0.5,1-0.6,1H19c-1.1,0-2.6-0.4-3.4-1l-6.7-4.1c-0.8-0.5-0.5-1,0.6-1h1.9
		c1.1,0,2.6,0.4,3.4,1L21.5,21.4z M12.6,21.4c0.8,0.5,0.5,1-0.6,1h-2c-1.1,0-2.6-0.4-3.4-1L0,17.3c-0.8-0.5-0.5-1,0.6-1h1.9
		c1.1,0,2.6,0.4,3.4,1L12.6,21.4z"/>
</g>
<g>
	<ellipse class="st2" cx="251.663" cy="19.407" rx="17.3" ry="17.3"/>
	<g>
		<path class="st3" d="M252.4,7c1.4,2.5,2.7,5,3.4,7.1c0.1,0.3,0.3,0.4,0.6,0.4c2,0,4.8,0.5,7.8,1.1c0.7,0.1,1,1,0.5,1.5
			c-1.9,2.1-3.8,3.9-5.6,5.4c-0.2,0.2-0.3,0.5-0.2,0.7c0.8,2.5,1.3,5.1,1.5,7.8c0,0.7-0.7,1.2-1.3,0.9c-3-1.3-5.6-2.6-7.4-4
			c-2.1,1.8-4.5,3.2-7.4,4.2c-0.6,0.2-1.3-0.3-1.2-1c0.4-3.2,0.8-5.9,1.4-7.9c0.1-0.3,0-0.5-0.2-0.7c-1.8-1.4-3.7-3.3-5.7-5.5
			c-0.5-0.5-0.2-1.3,0.5-1.5c2.8-0.7,5.5-1.2,7.8-1.1c0.3,0,0.6-0.2,0.7-0.5c0.7-2.2,1.9-4.6,3.4-7C251.2,6.4,252.1,6.4,252.4,7z"/>
		<g>
			<g>
				<path class="st4" d="M251.6,8.4L251.6,8.4c-0.1,0-0.1,0-0.1,0s0,0-0.1,0c0,0,0,0-0.1,0l-0.1-0.1V8.2V8.1c0,0,0-0.1,0.1-0.1
					c0,0,0,0,0.1,0c0,0,0,0,0.1,0c0,0,0,0,0.1,0s0.2,0,0.3,0.1l0.1,0.1v0.1v0.1c0,0,0,0.1-0.1,0.1C251.8,8.3,251.7,8.4,251.6,8.4z"
					/>
				<path class="st4" d="M257.5,29.4c-0.1-0.1-0.1-0.4,0.1-0.5l0,0c0.1-0.1,0.4-0.1,0.5,0.1l0,0c0.1,0.1,0.1,0.4-0.1,0.5l0,0
					c-0.1,0.1-0.1,0.1-0.2,0.1l0,0C257.7,29.5,257.6,29.5,257.5,29.4z M256.3,27.9c-0.1-0.1-0.1-0.4,0.1-0.5l0,0
					c0.1-0.1,0.4-0.1,0.5,0.1l0,0c0.1,0.1,0.1,0.4-0.1,0.5l0,0c-0.1,0-0.1,0.1-0.2,0.1l0,0C256.5,28,256.4,27.9,256.3,27.9z
					 M255.1,26.3c-0.1-0.1-0.1-0.4,0.1-0.5l0,0c0.1-0.1,0.4-0.1,0.5,0.1l0,0c0.1,0.1,0.1,0.4-0.1,0.5l0,0c-0.1,0-0.1,0.1-0.2,0.1
					l0,0C255.3,26.5,255.2,26.4,255.1,26.3z M253.9,24.8c-0.1-0.1-0.1-0.4,0.1-0.5l0,0c0.1-0.1,0.4-0.1,0.5,0.1l0,0
					c0.1,0.1,0.1,0.4-0.1,0.5l0,0c-0.1,0.1-0.1,0.1-0.2,0.1l0,0C254.1,24.9,254,24.9,253.9,24.8z M252.7,23.3
					c-0.1-0.1-0.1-0.4,0.1-0.5l0,0c0.1-0.1,0.4-0.1,0.5,0.1l0,0c0.1,0.1,0.1,0.4-0.1,0.5l0,0c-0.1,0.1-0.1,0.1-0.2,0.1l0,0
					C252.9,23.4,252.8,23.4,252.7,23.3z M251.5,21.8c-0.1-0.1-0.1-0.4,0.1-0.5l0,0c0.1-0.1,0.4-0.1,0.5,0.1l0,0
					c0.1,0.1,0.1,0.4-0.1,0.5l0,0c-0.1,0-0.1,0.1-0.2,0.1l0,0C251.7,21.9,251.6,21.8,251.5,21.8z M251.3,19.7c0-0.2,0.2-0.3,0.3-0.3
					l0,0c0.2,0,0.3,0.2,0.3,0.3l0,0c0,0.2-0.2,0.3-0.3,0.3l0,0C251.5,20,251.3,19.9,251.3,19.7z M251.3,17.7c0-0.2,0.2-0.3,0.3-0.3
					l0,0c0.2,0,0.3,0.2,0.3,0.3l0,0c0,0.2-0.2,0.3-0.3,0.3l0,0C251.5,18.1,251.3,17.9,251.3,17.7z M251.3,15.8
					c0-0.2,0.2-0.3,0.3-0.3l0,0c0.2,0,0.3,0.1,0.3,0.3l0,0c0,0.2-0.2,0.3-0.3,0.3l0,0C251.5,16.1,251.3,16,251.3,15.8z M251.3,13.8
					c0-0.2,0.2-0.3,0.3-0.3l0,0c0.2,0,0.3,0.2,0.3,0.3l0,0c0,0.2-0.2,0.3-0.3,0.3l0,0C251.5,14.2,251.3,14,251.3,13.8z M251.3,11.9
					c0-0.2,0.2-0.3,0.3-0.3l0,0c0.2,0,0.3,0.1,0.3,0.3l0,0c0,0.2-0.2,0.3-0.3,0.3l0,0C251.5,12.2,251.3,12.1,251.3,11.9z M251.3,10
					c0-0.2,0.2-0.3,0.3-0.3l0,0c0.2,0,0.3,0.2,0.3,0.3l0,0c0,0.2-0.2,0.3-0.3,0.3l0,0C251.5,10.3,251.3,10.2,251.3,10z"/>
				<path class="st4" d="M259,31c-0.1,0-0.2,0-0.2-0.1c-0.1-0.1-0.1-0.1-0.1-0.2s0-0.2,0.1-0.2c0.1-0.1,0.2-0.1,0.3-0.1
					c0,0,0,0,0.1,0c0,0,0,0,0.1,0c0,0,0,0,0.1,0l0.1,0.1v0.1c0,0.1,0,0.2-0.1,0.2C259.2,31,259.1,31,259,31z"/>
			</g>
			<g>
				<path class="st4" d="M244.6,30.5h-0.1c0,0-0.1,0-0.1-0.1l-0.1-0.1v-0.1v-0.1c0,0,0-0.1,0.1-0.1c0,0,0,0,0.1,0c0,0,0,0,0.1,0
					c0,0,0,0,0.1,0s0.2,0,0.3,0.1s0.1,0.2,0.1,0.2s0,0.2-0.1,0.2C244.8,30.4,244.7,30.5,244.6,30.5z"/>
				<path class="st4" d="M245.6,29c-0.1-0.1-0.2-0.3,0-0.5l0,0c0.1-0.1,0.3-0.2,0.5,0l0,0c0.1,0.1,0.2,0.3,0,0.5l0,0
					c-0.1,0.1-0.2,0.1-0.3,0.1l0,0C245.7,29,245.6,29,245.6,29z M246.8,27.5c-0.1-0.1-0.2-0.3,0-0.5l0,0c0.1-0.1,0.3-0.2,0.5,0l0,0
					c0.1,0.1,0.2,0.3,0,0.5l0,0c-0.1,0.1-0.2,0.1-0.3,0.1l0,0C246.9,27.6,246.8,27.6,246.8,27.5z M248,26.1c-0.1-0.1-0.2-0.3,0-0.5
					l0,0c0.1-0.1,0.3-0.2,0.5,0l0,0c0.1,0.1,0.2,0.3,0,0.5l0,0c-0.1,0.1-0.2,0.1-0.3,0.1l0,0C248.1,26.2,248,26.1,248,26.1z
					 M249.2,24.7c-0.1-0.1-0.2-0.3,0-0.5l0,0c0.1-0.1,0.3-0.2,0.5,0l0,0c0.1,0.1,0.2,0.3,0,0.5l0,0c-0.1,0.1-0.2,0.1-0.3,0.1l0,0
					C249.3,24.7,249.2,24.7,249.2,24.7z M250.4,23.2c-0.1-0.1-0.2-0.3,0-0.5l0,0c0.1-0.1,0.3-0.2,0.5,0l0,0c0.1,0.1,0.2,0.3,0,0.5
					l0,0c-0.1,0.1-0.2,0.1-0.3,0.1l0,0C250.5,23.3,250.4,23.3,250.4,23.2z"/>
				<path class="st4" d="M251.8,21.9h-0.1c0,0-0.1,0-0.1-0.1l-0.1-0.1v-0.1v-0.1c0,0,0-0.1,0.1-0.1c0.1-0.1,0.2-0.1,0.3-0.1
					c0,0,0,0,0.1,0c0,0,0,0,0.1,0c0,0,0,0,0.1,0l0.1,0.1v0.1v0.1c0,0,0,0.1-0.1,0.1l-0.1,0.1C251.9,21.8,251.8,21.9,251.8,21.9z"/>
			</g>
			<g>
				<path class="st4" d="M240.8,17.2c-0.1,0-0.2,0-0.2-0.1l-0.1-0.1v-0.1v-0.1c0,0,0-0.1,0.1-0.1c0.1-0.1,0.3-0.1,0.5,0l0.1,0.1v0.1
					V17c0,0,0,0.1-0.1,0.1C241,17.2,240.9,17.2,240.8,17.2z"/>
				<path class="st4" d="M249.8,21.1c-0.2-0.1-0.3-0.3-0.2-0.4l0,0c0.1-0.2,0.3-0.2,0.4-0.2l0,0c0.2,0.1,0.3,0.3,0.2,0.4l0,0
					c-0.1,0.1-0.2,0.2-0.3,0.2l0,0C249.9,21.1,249.9,21.1,249.8,21.1z M248,20.3c-0.2-0.1-0.3-0.3-0.2-0.4l0,0
					c0.1-0.2,0.3-0.3,0.4-0.2l0,0c0.2,0.1,0.2,0.3,0.2,0.4l0,0c-0.1,0.1-0.2,0.2-0.3,0.2l0,0C248.1,20.3,248,20.3,248,20.3z
					 M246.2,19.5c-0.2-0.1-0.3-0.3-0.2-0.4l0,0c0.1-0.2,0.3-0.3,0.4-0.2l0,0c0.2,0.1,0.3,0.3,0.2,0.4l0,0c-0.1,0.1-0.2,0.2-0.3,0.2
					l0,0C246.3,19.5,246.2,19.5,246.2,19.5z M244.3,18.7c-0.2-0.1-0.3-0.3-0.2-0.4l0,0c0.1-0.2,0.3-0.2,0.4-0.2l0,0
					c0.2,0.1,0.3,0.3,0.2,0.4l0,0c-0.1,0.1-0.2,0.2-0.3,0.2l0,0C244.4,18.7,244.4,18.7,244.3,18.7z M242.5,17.9
					c-0.2-0.1-0.3-0.3-0.2-0.4l0,0c0.1-0.2,0.3-0.2,0.4-0.2l0,0c0.2,0.1,0.3,0.3,0.2,0.4l0,0c-0.1,0.1-0.2,0.2-0.3,0.2l0,0
					C242.6,18,242.5,18,242.5,17.9z"/>
				<path class="st4" d="M251.8,21.9h-0.1c0,0-0.1,0-0.1-0.1l-0.1-0.1v-0.1v-0.1c0,0,0-0.1,0.1-0.1c0.1-0.1,0.2-0.1,0.3-0.1
					c0,0,0,0,0.1,0c0,0,0,0,0.1,0c0,0,0,0,0.1,0l0.1,0.1v0.1v0.1c0,0,0,0.1-0.1,0.1l-0.1,0.1C251.9,21.8,251.8,21.9,251.8,21.9z"/>
			</g>
			<g>
				<path class="st4" d="M262.8,17.2c-0.1,0-0.2,0-0.2-0.1c-0.1-0.1-0.1-0.1-0.1-0.2v-0.1c0,0,0-0.1,0.1-0.1l0.1-0.1
					c0.1-0.1,0.3,0,0.4,0.1s0.1,0.1,0.1,0.2V17c0,0,0,0.1-0.1,0.1l-0.1,0.1H262.8z"/>
				<path class="st4" d="M253.3,20.9c-0.1-0.2,0-0.4,0.2-0.4l0,0c0.2-0.1,0.4,0,0.4,0.2l0,0c0.1,0.2,0,0.4-0.2,0.4l0,0h-0.1l0,0
					C253.5,21.1,253.4,21,253.3,20.9z M255.2,20.1c-0.1-0.2,0-0.4,0.2-0.4l0,0c0.2-0.1,0.4,0,0.4,0.2l0,0c0.1,0.2,0,0.4-0.2,0.4l0,0
					h-0.1l0,0C255.3,20.3,255.2,20.2,255.2,20.1z M257,19.3c-0.1-0.2,0-0.4,0.2-0.4l0,0c0.2-0.1,0.4,0,0.4,0.2l0,0
					c0.1,0.2,0,0.4-0.2,0.4l0,0h-0.1l0,0C257.2,19.5,257,19.4,257,19.3z M258.8,18.5c-0.1-0.2,0-0.4,0.2-0.4l0,0
					c0.2-0.1,0.4,0,0.4,0.2l0,0c0.1,0.2,0,0.4-0.2,0.4l0,0h-0.1l0,0C259,18.7,258.9,18.7,258.8,18.5z M260.7,17.8
					c-0.1-0.2,0-0.4,0.2-0.4l0,0c0.2-0.1,0.4,0,0.4,0.2l0,0c0.1,0.2,0,0.4-0.2,0.4l0,0H261l0,0C260.8,18,260.7,17.9,260.7,17.8z"/>
				<path class="st4" d="M251.8,21.9h-0.1c0,0-0.1,0-0.1-0.1l-0.1-0.1v-0.1v-0.1c0,0,0-0.1,0.1-0.1c0.1-0.1,0.2-0.1,0.3-0.1
					c0,0,0,0,0.1,0c0,0,0,0,0.1,0c0,0,0,0,0.1,0l0.1,0.1v0.1v0.1c0,0,0,0.1-0.1,0.1l-0.1,0.1C251.9,21.8,251.8,21.9,251.8,21.9z"/>
			</g>
		</g>
	</g>
</g>
</svg>
