<?xml version="1.0" encoding="utf-8"?>
<!-- Generator: Adobe Illustrator 26.0.3, SVG Export Plug-In . SVG Version: 6.00 Build 0)  -->
<svg version="1.1" id="Layer_2" xmlns="http://www.w3.org/2000/svg" xmlns:xlink="http://www.w3.org/1999/xlink" x="0px" y="0px"
	 viewBox="0 0 360 360" style="enable-background:new 0 0 360 360;" xml:space="preserve">
<style type="text/css">
	.st0{fill:#345D9D;}
	.st1{fill:#7C9AC0;}
	.st2{fill:none;}
	.st3{fill:#DCE3EB;}
</style>
<path class="st0" d="M360,180c0-34.02-9.44-65.84-25.85-92.98L169.87,69.17V50.39l103.31-24.43C246,9.49,214.11,0,180,0
	C80.59,0,0,80.59,0,180c0,46.05,17.3,88.06,45.76,119.89l0.46-1.16l6.86-24.64c50.05-6.28,117.15-52.44,152.71-87.2l15.57,55.99
	c-40.88,32.26-77.29,51.87-155.73,76.11c17.02,14.02,36.67,24.97,58.09,32.02c45.27-16.99,100.27-50.39,109.59-65.15l16.69,60.03
	C314.63,318.58,360,254.59,360,180z"/>
<path class="st1" d="M169.87,69.17l164.28,17.85c-15.08-24.95-36.04-45.94-60.97-61.05L169.87,50.39V69.17z"/>
<polygon class="st2" points="145.88,63.96 163.36,66.3 163.36,53.26 147.71,50.13 "/>
<polygon class="st2" points="119.26,53.26 119.26,66.3 136.74,63.96 134.91,50.13 "/>
<path class="st3" d="M181.93,101.13l8.8,0.39L197,72.3l-27.13-3.13V50.39l-8.46-9.87l-39.54,0.15l-9.31,11.42l0.96,16.56l-28.7,2.61
	l7.3,28.99l9.25,0.2L92.1,133.8c20.36-7.71,33.03-21.16,49.07-33.07c10.35,0,20.7,0,31.04,0c-20.66,19.68-58.48,56.96-91.15,72.75
	l-12.54,45.06c20.35-9.71,68.4-31.42,123.21-82.18L181.93,101.13z M119.26,66.3V53.26l15.65-3.13l1.83,13.83L119.26,66.3z
	 M163.36,66.3l-17.48-2.35l1.83-13.83l15.65,3.13V66.3z"/>
<path class="st3" d="M205.78,186.89c-35.56,34.76-102.65,80.93-152.71,87.2l-6.86,24.64l-0.46,1.16
	c6.13,6.86,12.76,13.24,19.86,19.09c78.44-24.24,114.84-43.85,155.73-76.11L205.78,186.89z"/>
<path class="st3" d="M233.3,285.86c-9.32,14.76-64.32,48.16-109.59,65.15c17.71,5.83,36.63,8.99,56.29,8.99
	c6.96,0,13.82-0.41,20.57-1.18l29.33-5.84c6.87-1.98,13.58-4.35,20.08-7.1L233.3,285.86z"/>
</svg>
