<?xml version="1.0" encoding="utf-8"?>
<!-- Generator: Adobe Illustrator 27.5.0, SVG Export Plug-In . SVG Version: 6.00 Build 0)  -->
<svg version="1.1" id="Layer_1" xmlns="http://www.w3.org/2000/svg" xmlns:xlink="http://www.w3.org/1999/xlink" x="0px" y="0px"
	 viewBox="0 0 306.91 52.586" style="enable-background:new 0 0 306.91 52.586;" xml:space="preserve">
<g>
	<path d="M6.35,20.911c0,0.128-0.123,0.182-0.368,0.16c-0.246-0.021-0.518-0.08-0.816-0.176c-0.299-0.096-0.592-0.218-0.88-0.368
		c-0.288-0.149-0.464-0.288-0.528-0.416c-0.021-1.493,0.16-2.821,0.544-3.984c0.384-1.163,0.891-2.187,1.52-3.072
		c0.629-0.885,1.354-1.648,2.176-2.288c0.821-0.64,1.674-1.184,2.56-1.632c0.885-0.448,1.76-0.816,2.624-1.104
		c0.864-0.288,1.669-0.539,2.416-0.752c1.643-0.469,3.333-0.762,5.072-0.88c1.738-0.117,3.472-0.149,5.2-0.096
		s3.429,0.149,5.104,0.288c1.675,0.139,3.269,0.24,4.784,0.304c1.515,0.064,2.917,0.043,4.208-0.064
		c1.291-0.106,2.437-0.384,3.44-0.832c0.149-0.064,0.224,0.043,0.224,0.32c0,0.278-0.048,0.592-0.144,0.944
		s-0.224,0.688-0.384,1.008c-0.16,0.32-0.315,0.512-0.464,0.576c-1.152,0.427-2.4,0.688-3.744,0.784
		c-1.344,0.096-2.747,0.102-4.208,0.016c-1.462-0.085-2.971-0.218-4.528-0.4c-1.558-0.181-3.131-0.341-4.72-0.48
		c-1.59-0.139-3.184-0.203-4.784-0.192S17.486,8.73,15.95,9.007c-1.195,0.235-2.352,0.608-3.472,1.12
		c-1.12,0.512-2.118,1.232-2.992,2.16c-0.875,0.928-1.595,2.096-2.16,3.504C6.761,17.199,6.435,18.906,6.35,20.911z M21.999,9.743
		c0.085-0.149,0.298-0.149,0.64,0c0.341,0.149,0.683,0.384,1.024,0.704c0.341,0.32,0.629,0.683,0.864,1.088
		c0.234,0.405,0.288,0.79,0.16,1.152c-1.6,1.963-3.168,4.144-4.704,6.544c-1.536,2.4-2.923,4.822-4.16,7.264
		c-1.237,2.443-2.272,4.79-3.104,7.04c-0.832,2.251-1.344,4.208-1.536,5.872c-0.021,0.149-0.128,0.133-0.32-0.048
		s-0.4-0.432-0.624-0.752c-0.224-0.32-0.421-0.651-0.592-0.992c-0.171-0.342-0.235-0.598-0.192-0.768
		c0.021-1.131,0.24-2.427,0.656-3.888c0.416-1.461,0.955-3.008,1.616-4.64c0.661-1.632,1.419-3.301,2.272-5.008
		c0.853-1.707,1.744-3.376,2.672-5.008c0.928-1.632,1.851-3.179,2.768-4.64C20.356,12.202,21.209,10.895,21.999,9.743z"/>
	<path d="M36.11,31.903c-0.512,0.694-1.072,1.36-1.68,2c-0.608,0.64-1.253,1.19-1.936,1.648c-0.683,0.459-1.344,0.688-1.984,0.688
		c-0.363,0-0.72-0.064-1.072-0.192s-0.656-0.32-0.912-0.576c-0.256-0.256-0.459-0.586-0.608-0.992
		c-0.149-0.405-0.213-0.885-0.192-1.44c0.021-0.555,0.096-1.104,0.224-1.648s0.293-1.12,0.496-1.728
		c0.203-0.608,0.453-1.269,0.752-1.984s0.629-1.509,0.992-2.384c0.234-0.554,0.416-1.061,0.544-1.52
		c0.128-0.458,0.149-0.794,0.064-1.008c-0.085-0.213-0.31-0.25-0.672-0.112c-0.363,0.139-0.917,0.528-1.664,1.168
		c-0.811,0.747-1.536,1.451-2.176,2.112c-0.64,0.662-1.291,1.408-1.952,2.24c-0.555,1.238-1.019,2.502-1.392,3.792
		c-0.374,1.291-0.614,2.64-0.72,4.048c0,0.149-0.117,0.192-0.352,0.128s-0.496-0.176-0.784-0.336c-0.288-0.16-0.55-0.347-0.784-0.56
		c-0.234-0.213-0.362-0.405-0.384-0.576c0.064-1.301,0.282-2.613,0.656-3.936c0.373-1.322,0.843-2.656,1.408-4
		c0.565-1.344,1.178-2.682,1.84-4.016c0.661-1.333,1.312-2.661,1.952-3.984c0.362-0.746,0.714-1.499,1.056-2.256
		c0.341-0.757,0.667-1.499,0.976-2.224c0.309-0.725,0.581-1.418,0.816-2.08c0.234-0.661,0.426-1.269,0.576-1.824
		c0.213-0.106,0.501-0.09,0.864,0.048c0.362,0.139,0.704,0.342,1.024,0.608c0.32,0.267,0.576,0.582,0.768,0.944
		c0.192,0.363,0.224,0.715,0.096,1.056c-0.085,0.256-0.251,0.646-0.496,1.168c-0.246,0.523-0.528,1.115-0.848,1.776
		c-0.32,0.661-0.672,1.36-1.056,2.096c-0.384,0.736-0.747,1.446-1.088,2.128l-2.24,4.192c0.448-0.512,0.928-1.013,1.44-1.504
		c0.512-0.49,1.045-0.933,1.6-1.328c0.555-0.395,1.12-0.715,1.696-0.96c0.576-0.245,1.163-0.389,1.76-0.432
		c0.234,0,0.485,0.091,0.752,0.272c0.267,0.182,0.501,0.405,0.704,0.672c0.203,0.267,0.357,0.55,0.464,0.848
		c0.106,0.299,0.117,0.565,0.032,0.8c-0.534,1.451-1.024,2.672-1.472,3.664c-0.448,0.992-0.843,1.877-1.184,2.656
		c-0.341,0.779-0.619,1.525-0.832,2.24c-0.213,0.715-0.352,1.52-0.416,2.416c0,0.064,0.011,0.139,0.032,0.224
		c0.021,0.085,0.069,0.16,0.144,0.224c0.075,0.064,0.187,0.096,0.336,0.096c0.149,0,0.341-0.053,0.576-0.16
		c0.618-0.299,1.36-0.821,2.224-1.568c0.864-0.746,1.712-1.738,2.544-2.976c0.32-0.469,0.613-0.933,0.88-1.392
		c0.267-0.458,0.528-0.901,0.784-1.328c0.064-0.106,0.155-0.165,0.272-0.176c0.117-0.011,0.224,0.016,0.32,0.08
		c0.096,0.064,0.16,0.15,0.192,0.256c0.032,0.107,0.005,0.235-0.08,0.384l-1.664,2.784C37.027,30.628,36.622,31.21,36.11,31.903z"/>
	<path d="M49.038,24.431c-0.96,1.728-2.219,3.163-3.776,4.304c-1.557,1.142-3.275,1.968-5.152,2.48
		c-0.021,0.363,0,0.726,0.064,1.088s0.17,0.704,0.32,1.024c0.149,0.32,0.352,0.597,0.608,0.832c0.256,0.235,0.576,0.395,0.96,0.48
		c0.469,0.107,1.008,0.091,1.616-0.048c0.608-0.138,1.248-0.416,1.92-0.832c0.672-0.416,1.36-0.965,2.064-1.648
		c0.704-0.682,1.397-1.514,2.08-2.496c0.341-0.491,0.651-0.971,0.928-1.44c0.277-0.469,0.533-0.917,0.768-1.344
		c0.085-0.106,0.187-0.165,0.304-0.176s0.224,0.016,0.32,0.08c0.096,0.064,0.165,0.15,0.208,0.256
		c0.042,0.107,0.021,0.235-0.064,0.384c-0.299,0.47-0.619,0.981-0.96,1.536c-0.342,0.555-0.72,1.136-1.136,1.744
		c-0.416,0.608-0.875,1.216-1.376,1.824c-0.501,0.608-1.062,1.189-1.68,1.744s-1.216,0.976-1.792,1.264
		c-0.576,0.288-1.12,0.491-1.632,0.608c-0.512,0.117-0.971,0.181-1.376,0.192c-0.405,0.01-0.736,0.016-0.992,0.016
		c-1.451,0-2.582-0.384-3.392-1.152c-0.811-0.768-1.248-1.813-1.312-3.136c-0.043-1.216,0.176-2.427,0.656-3.632
		c0.48-1.205,1.253-2.512,2.32-3.92c0.341-0.448,0.8-0.933,1.376-1.456c0.576-0.522,1.216-1.008,1.92-1.456
		c0.704-0.448,1.45-0.811,2.24-1.088c0.789-0.277,1.579-0.405,2.368-0.384c0.512,0,0.955,0.117,1.328,0.352
		c0.373,0.235,0.645,0.549,0.816,0.944c0.17,0.395,0.218,0.854,0.144,1.376C49.651,23.274,49.422,23.834,49.038,24.431z
		 M40.27,30.063c-0.021,0.043-0.032,0.085-0.032,0.128c1.728-0.49,3.285-1.274,4.672-2.352c1.386-1.077,2.506-2.426,3.36-4.048
		c0.298-0.619,0.373-1.146,0.224-1.584c-0.15-0.437-0.523-0.603-1.12-0.496c-0.896,0.171-1.739,0.576-2.528,1.216
		c-0.789,0.64-1.493,1.376-2.112,2.208c-0.619,0.832-1.142,1.691-1.568,2.576C40.738,28.596,40.44,29.38,40.27,30.063z"/>
	<path d="M58.349,38.735c-0.192-0.192-0.224-0.395-0.096-0.608c0.128-0.213,0.331-0.277,0.608-0.192l0.576-0.192
		c-0.021-0.043,0-0.118,0.064-0.224c0.938-1.259,1.989-2.757,3.152-4.496c1.163-1.738,2.336-3.573,3.52-5.504
		c1.184-1.931,2.331-3.893,3.44-5.888c1.109-1.994,2.08-3.888,2.912-5.68s1.472-3.424,1.92-4.896
		c0.448-1.472,0.619-2.645,0.512-3.52c0.021-0.149,0.203-0.123,0.544,0.08c0.341,0.203,0.714,0.469,1.12,0.8
		c0.405,0.331,0.768,0.678,1.088,1.04c0.32,0.363,0.48,0.619,0.48,0.768c0,0.619-0.251,1.558-0.752,2.816
		c-0.501,1.259-1.184,2.693-2.048,4.304c-0.864,1.611-1.872,3.339-3.024,5.184c-1.152,1.846-2.368,3.675-3.648,5.488
		c-1.28,1.813-2.587,3.542-3.92,5.184c-1.333,1.643-2.629,3.072-3.888,4.288c1.066-0.085,2.282-0.048,3.648,0.112
		c1.365,0.16,2.816,0.352,4.352,0.576c1.536,0.224,3.136,0.443,4.8,0.656c1.664,0.213,3.333,0.341,5.008,0.384
		c1.675,0.042,3.317-0.048,4.928-0.272c1.61-0.224,3.141-0.667,4.592-1.328c0.128,0,0.181,0.117,0.16,0.352
		c-0.021,0.235-0.08,0.501-0.176,0.8c-0.096,0.298-0.219,0.586-0.368,0.864c-0.149,0.277-0.288,0.448-0.416,0.512
		c-1.045,0.832-2.32,1.36-3.824,1.584c-1.504,0.224-3.131,0.261-4.88,0.112c-1.75-0.149-3.568-0.421-5.456-0.816
		c-1.888-0.395-3.733-0.79-5.536-1.184c-1.803-0.395-3.515-0.715-5.136-0.96C60.984,38.633,59.565,38.585,58.349,38.735z"/>
	<path d="M81.325,20.143c0.213-0.106,0.496-0.09,0.848,0.048c0.352,0.139,0.672,0.347,0.96,0.624
		c0.288,0.278,0.512,0.598,0.672,0.96c0.16,0.363,0.165,0.715,0.016,1.056c-0.128,0.299-0.39,0.779-0.784,1.44
		c-0.395,0.662-0.821,1.414-1.28,2.256c-0.459,0.843-0.923,1.712-1.392,2.608c-0.47,0.896-0.848,1.717-1.136,2.464
		c-0.288,0.747-0.459,1.36-0.512,1.84c-0.054,0.48,0.112,0.731,0.496,0.752h0.352c0.768-0.213,1.482-0.581,2.144-1.104
		c0.661-0.522,1.285-1.114,1.872-1.776c0.586-0.661,1.141-1.354,1.664-2.08c0.522-0.725,1.008-1.408,1.456-2.048
		c0.085-0.106,0.192-0.165,0.32-0.176c0.128-0.01,0.234,0.011,0.32,0.064c0.085,0.054,0.138,0.139,0.16,0.256
		c0.021,0.117-0.032,0.251-0.16,0.4c-0.896,1.387-1.813,2.672-2.752,3.856s-2.059,2.277-3.36,3.28
		c-0.171,0.128-0.374,0.278-0.608,0.448c-0.235,0.171-0.501,0.326-0.8,0.464c-0.299,0.139-0.624,0.256-0.976,0.352
		c-0.352,0.096-0.709,0.144-1.072,0.144c-0.448-0.021-0.811-0.149-1.088-0.384s-0.48-0.544-0.608-0.928
		c-0.128-0.384-0.181-0.821-0.16-1.312c0.021-0.49,0.118-1.013,0.288-1.568c0.213-0.768,0.544-1.675,0.992-2.72
		c0.448-1.045,0.928-2.117,1.44-3.216c0.512-1.099,1.013-2.176,1.504-3.232C80.632,21.855,81.026,20.932,81.325,20.143z
		 M84.397,11.311c0.192-0.021,0.448,0.085,0.768,0.32c0.32,0.235,0.635,0.512,0.944,0.832c0.309,0.32,0.571,0.646,0.784,0.976
		c0.213,0.331,0.32,0.56,0.32,0.688c-0.107,0.406-0.261,0.816-0.464,1.232c-0.203,0.416-0.416,0.843-0.64,1.28
		c-0.224,0.438-0.443,0.869-0.656,1.296c-0.213,0.427-0.374,0.854-0.48,1.28c-0.171-0.021-0.357-0.117-0.56-0.288
		c-0.203-0.171-0.39-0.368-0.56-0.592c-0.171-0.224-0.315-0.448-0.432-0.672s-0.176-0.421-0.176-0.592
		c0.021-0.362,0.085-0.778,0.192-1.248c0.106-0.469,0.229-0.96,0.368-1.472c0.138-0.512,0.267-1.029,0.384-1.552
		C84.306,12.276,84.375,11.781,84.397,11.311z"/>
	<path d="M92.876,40.328c0.981,0.489,1.963,1.01,2.944,1.563c0.981,0.552,2.133,1.063,3.456,1.531
		c0.149,0.042,0.128,0.213-0.064,0.511c-0.192,0.297-0.475,0.579-0.848,0.845c-0.374,0.266-0.806,0.462-1.296,0.59
		c-0.491,0.127-0.971,0.042-1.44-0.255c-0.811-0.49-1.557-0.958-2.24-1.404c-0.683-0.447-1.333-0.851-1.952-1.212
		c-0.619,0.872-1.253,1.674-1.904,2.409c-0.651,0.733-1.366,1.371-2.144,1.914c-0.779,0.542-1.632,0.968-2.56,1.276
		c-0.928,0.308-1.957,0.473-3.088,0.494c-0.619,0-1.232-0.053-1.84-0.159c-0.608-0.106-1.162-0.304-1.664-0.59
		c-0.501-0.287-0.917-0.676-1.248-1.164c-0.331-0.49-0.517-1.107-0.56-1.851c-0.042-0.936,0.16-1.803,0.608-2.6
		c0.448-0.798,1.062-1.489,1.84-2.074c0.779-0.585,1.68-1.042,2.704-1.372c1.024-0.33,2.08-0.495,3.168-0.495
		c0.661,0,1.253,0.021,1.776,0.064c0.523,0.042,1.013,0.111,1.472,0.207c0.458,0.095,0.896,0.207,1.312,0.335
		c0.416,0.127,0.848,0.266,1.296,0.415c0.469-0.958,0.907-1.917,1.312-2.877s0.821-1.888,1.248-2.784
		c-0.704,0.726-1.44,1.333-2.208,1.824s-1.525,0.715-2.272,0.672c-0.917-0.042-1.627-0.261-2.128-0.656
		c-0.501-0.394-0.87-0.858-1.104-1.392c-0.235-0.533-0.368-1.088-0.4-1.664c-0.032-0.576-0.016-1.056,0.048-1.44
		c0.106-0.747,0.341-1.568,0.704-2.464c0.362-0.896,0.832-1.786,1.408-2.672c0.576-0.885,1.243-1.728,2-2.528
		c0.757-0.8,1.568-1.472,2.432-2.016c0.864-0.544,1.765-0.928,2.704-1.152c0.938-0.224,1.898-0.208,2.88,0.048
		c0.427,0.128,0.773,0.336,1.04,0.624c0.267,0.288,0.475,0.629,0.624,1.024c0.149,0.395,0.245,0.822,0.288,1.28
		c0.042,0.459,0.053,0.912,0.032,1.36c0,0.149-0.053,0.267-0.16,0.352c-0.107,0.085-0.219,0.133-0.336,0.144
		c-0.118,0.011-0.219-0.027-0.304-0.112c-0.085-0.085-0.128-0.213-0.128-0.384c-0.043-0.213-0.08-0.485-0.112-0.816
		c-0.032-0.331-0.107-0.651-0.224-0.96c-0.118-0.309-0.304-0.581-0.56-0.816c-0.256-0.234-0.629-0.362-1.12-0.384
		c-0.598-0.021-1.179,0.096-1.744,0.352s-1.104,0.608-1.616,1.056c-0.512,0.448-0.992,0.965-1.44,1.552
		c-0.448,0.587-0.854,1.195-1.216,1.824s-0.677,1.259-0.944,1.888c-0.267,0.629-0.475,1.211-0.624,1.744
		c-0.107,0.363-0.192,0.8-0.256,1.312c-0.064,0.512-0.043,0.987,0.064,1.424c0.106,0.438,0.331,0.773,0.672,1.008
		s0.875,0.267,1.6,0.096c0.298-0.064,0.65-0.256,1.056-0.576c0.405-0.32,0.821-0.699,1.248-1.136
		c0.426-0.437,0.848-0.912,1.264-1.424c0.416-0.512,0.784-0.992,1.104-1.44c0.341-0.747,0.661-1.488,0.96-2.224
		s0.469-1.381,0.512-1.936c0.213-0.106,0.517-0.085,0.912,0.064c0.395,0.149,0.773,0.368,1.136,0.656
		c0.363,0.288,0.656,0.619,0.88,0.992c0.224,0.374,0.272,0.731,0.144,1.072L92.876,40.328z M83.532,47.279
		c1.344-0.491,2.49-1.248,3.44-2.272c0.949-1.024,1.797-2.208,2.544-3.552c-0.747-0.341-1.494-0.603-2.24-0.784
		c-0.747-0.181-1.568-0.283-2.464-0.304c-0.768-0.021-1.589,0.053-2.464,0.224c-0.875,0.171-1.674,0.437-2.4,0.8
		c-0.725,0.362-1.323,0.821-1.792,1.376c-0.469,0.554-0.693,1.205-0.672,1.952c0.021,0.746,0.245,1.338,0.672,1.776
		c0.427,0.437,0.944,0.747,1.552,0.928s1.259,0.25,1.952,0.208C82.354,47.588,82.978,47.471,83.532,47.279z"/>
	<path d="M116.908,31.903c-0.512,0.694-1.072,1.36-1.68,2c-0.608,0.64-1.253,1.19-1.936,1.648c-0.683,0.459-1.344,0.688-1.984,0.688
		c-0.363,0-0.72-0.064-1.072-0.192s-0.656-0.32-0.912-0.576c-0.256-0.256-0.459-0.586-0.608-0.992
		c-0.149-0.405-0.213-0.885-0.192-1.44c0.021-0.555,0.096-1.104,0.224-1.648s0.293-1.12,0.496-1.728
		c0.203-0.608,0.453-1.269,0.752-1.984s0.629-1.509,0.992-2.384c0.234-0.554,0.416-1.061,0.544-1.52
		c0.128-0.458,0.149-0.794,0.064-1.008c-0.085-0.213-0.31-0.25-0.672-0.112c-0.363,0.139-0.917,0.528-1.664,1.168
		c-0.811,0.747-1.536,1.451-2.176,2.112c-0.64,0.662-1.291,1.408-1.952,2.24c-0.555,1.238-1.019,2.502-1.392,3.792
		c-0.374,1.291-0.614,2.64-0.72,4.048c0,0.149-0.117,0.192-0.352,0.128s-0.496-0.176-0.784-0.336c-0.288-0.16-0.55-0.347-0.784-0.56
		c-0.234-0.213-0.362-0.405-0.384-0.576c0.064-1.301,0.282-2.613,0.656-3.936c0.373-1.322,0.843-2.656,1.408-4
		c0.565-1.344,1.178-2.682,1.84-4.016c0.661-1.333,1.312-2.661,1.952-3.984c0.362-0.746,0.714-1.499,1.056-2.256
		c0.341-0.757,0.667-1.499,0.976-2.224c0.309-0.725,0.581-1.418,0.816-2.08c0.234-0.661,0.426-1.269,0.576-1.824
		c0.213-0.106,0.501-0.09,0.864,0.048c0.362,0.139,0.704,0.342,1.024,0.608c0.32,0.267,0.576,0.582,0.768,0.944
		c0.192,0.363,0.224,0.715,0.096,1.056c-0.085,0.256-0.251,0.646-0.496,1.168c-0.246,0.523-0.528,1.115-0.848,1.776
		c-0.32,0.661-0.672,1.36-1.056,2.096c-0.384,0.736-0.747,1.446-1.088,2.128l-2.24,4.192c0.448-0.512,0.928-1.013,1.44-1.504
		c0.512-0.49,1.045-0.933,1.6-1.328c0.555-0.395,1.12-0.715,1.696-0.96c0.576-0.245,1.163-0.389,1.76-0.432
		c0.234,0,0.485,0.091,0.752,0.272c0.267,0.182,0.501,0.405,0.704,0.672c0.203,0.267,0.357,0.55,0.464,0.848
		c0.106,0.299,0.117,0.565,0.032,0.8c-0.534,1.451-1.024,2.672-1.472,3.664c-0.448,0.992-0.843,1.877-1.184,2.656
		s-0.619,1.525-0.832,2.24c-0.213,0.715-0.352,1.52-0.416,2.416c0,0.064,0.011,0.139,0.032,0.224
		c0.021,0.085,0.069,0.16,0.144,0.224c0.075,0.064,0.187,0.096,0.336,0.096c0.149,0,0.341-0.053,0.576-0.16
		c0.618-0.299,1.36-0.821,2.224-1.568c0.864-0.746,1.712-1.738,2.544-2.976c0.32-0.469,0.613-0.933,0.88-1.392
		c0.267-0.458,0.528-0.901,0.784-1.328c0.064-0.106,0.155-0.165,0.272-0.176c0.117-0.011,0.224,0.016,0.32,0.08
		c0.096,0.064,0.16,0.15,0.192,0.256c0.032,0.107,0.005,0.235-0.08,0.384l-1.664,2.784C117.825,30.628,117.42,31.21,116.908,31.903z
		"/>
	<path d="M119.371,20.239c-0.149,0.043-0.277,0.043-0.384,0c-0.107-0.043-0.182-0.112-0.224-0.208c-0.043-0.096-0.043-0.203,0-0.32
		c0.042-0.117,0.128-0.218,0.256-0.304c1.557-1.003,3.157-1.845,4.8-2.528c0.619-1.28,1.136-2.464,1.552-3.552
		s0.741-2.08,0.976-2.976c0.213-0.106,0.501-0.09,0.864,0.048c0.362,0.139,0.704,0.342,1.024,0.608
		c0.32,0.267,0.576,0.582,0.768,0.944c0.192,0.363,0.224,0.715,0.096,1.056c-0.085,0.235-0.229,0.576-0.432,1.024
		c-0.203,0.448-0.454,0.971-0.752,1.568c2.133-0.469,4.288-0.661,6.464-0.576c0.064,0.171,0.08,0.363,0.048,0.576
		c-0.032,0.213-0.096,0.411-0.192,0.592c-0.096,0.182-0.219,0.331-0.368,0.448c-0.149,0.117-0.299,0.166-0.448,0.144
		c-1.067-0.064-2.118-0.059-3.152,0.016c-1.035,0.075-2.096,0.229-3.184,0.464c-0.235,0.491-0.48,0.981-0.736,1.472
		c-0.256,0.491-0.501,0.971-0.736,1.44c-0.149,0.299-0.427,0.848-0.832,1.648c-0.406,0.8-0.859,1.712-1.36,2.736
		c-0.501,1.024-0.998,2.102-1.488,3.232c-0.491,1.131-0.891,2.166-1.2,3.104c-0.31,0.939-0.486,1.717-0.528,2.336
		c-0.043,0.619,0.139,0.939,0.544,0.96h0.384c0.725-0.213,1.402-0.597,2.032-1.152c0.629-0.555,1.21-1.184,1.744-1.888
		c0.533-0.704,1.029-1.44,1.488-2.208c0.458-0.768,0.89-1.472,1.296-2.112c0.064-0.106,0.154-0.165,0.272-0.176
		c0.117-0.011,0.224,0.016,0.32,0.08c0.096,0.064,0.165,0.15,0.208,0.256c0.042,0.107,0.021,0.235-0.064,0.384
		c-0.427,0.662-0.843,1.333-1.248,2.016c-0.405,0.683-0.827,1.344-1.264,1.984c-0.438,0.64-0.907,1.259-1.408,1.856
		c-0.501,0.598-1.051,1.142-1.648,1.632c-0.149,0.128-0.342,0.278-0.576,0.448c-0.235,0.171-0.496,0.326-0.784,0.464
		c-0.288,0.139-0.598,0.256-0.928,0.352c-0.331,0.096-0.688,0.144-1.072,0.144c-0.448-0.021-0.827-0.144-1.136-0.368
		c-0.31-0.224-0.544-0.528-0.704-0.912c-0.16-0.384-0.256-0.827-0.288-1.328c-0.032-0.501,0.005-1.029,0.112-1.584
		c0.17-1.173,0.448-2.32,0.832-3.44c0.384-1.12,0.821-2.229,1.312-3.328c0.49-1.099,1.024-2.192,1.6-3.28
		c0.576-1.088,1.141-2.187,1.696-3.296l0.096-0.192c-0.597,0.235-1.2,0.491-1.808,0.768
		C120.604,19.588,119.99,19.898,119.371,20.239z"/>
	<path d="M141.867,31.903c-0.512,0.694-1.072,1.36-1.68,2c-0.608,0.64-1.253,1.19-1.936,1.648c-0.683,0.459-1.344,0.688-1.984,0.688
		c-0.363,0-0.72-0.064-1.072-0.192s-0.656-0.32-0.912-0.576c-0.256-0.256-0.459-0.586-0.608-0.992
		c-0.149-0.405-0.213-0.885-0.192-1.44c0.021-0.555,0.096-1.104,0.224-1.648s0.293-1.12,0.496-1.728
		c0.203-0.608,0.453-1.269,0.752-1.984s0.629-1.509,0.992-2.384c0.234-0.554,0.416-1.061,0.544-1.52
		c0.128-0.458,0.149-0.794,0.064-1.008c-0.085-0.213-0.31-0.25-0.672-0.112c-0.363,0.139-0.917,0.528-1.664,1.168
		c-0.811,0.747-1.536,1.451-2.176,2.112c-0.64,0.662-1.291,1.408-1.952,2.24c-0.555,1.238-1.019,2.502-1.392,3.792
		c-0.374,1.291-0.614,2.64-0.72,4.048c0,0.149-0.117,0.192-0.352,0.128s-0.496-0.176-0.784-0.336c-0.288-0.16-0.55-0.347-0.784-0.56
		c-0.234-0.213-0.362-0.405-0.384-0.576c0.064-1.301,0.282-2.613,0.656-3.936c0.373-1.322,0.843-2.656,1.408-4
		c0.565-1.344,1.178-2.682,1.84-4.016c0.661-1.333,1.312-2.661,1.952-3.984c0.362-0.746,0.714-1.499,1.056-2.256
		c0.341-0.757,0.667-1.499,0.976-2.224c0.309-0.725,0.581-1.418,0.816-2.08c0.234-0.661,0.426-1.269,0.576-1.824
		c0.213-0.106,0.501-0.09,0.864,0.048c0.362,0.139,0.704,0.342,1.024,0.608c0.32,0.267,0.576,0.582,0.768,0.944
		c0.192,0.363,0.224,0.715,0.096,1.056c-0.085,0.256-0.251,0.646-0.496,1.168c-0.246,0.523-0.528,1.115-0.848,1.776
		c-0.32,0.661-0.672,1.36-1.056,2.096c-0.384,0.736-0.747,1.446-1.088,2.128l-2.24,4.192c0.448-0.512,0.928-1.013,1.44-1.504
		c0.512-0.49,1.045-0.933,1.6-1.328c0.555-0.395,1.12-0.715,1.696-0.96c0.576-0.245,1.163-0.389,1.76-0.432
		c0.234,0,0.485,0.091,0.752,0.272c0.267,0.182,0.501,0.405,0.704,0.672c0.203,0.267,0.357,0.55,0.464,0.848
		c0.106,0.299,0.117,0.565,0.032,0.8c-0.534,1.451-1.024,2.672-1.472,3.664c-0.448,0.992-0.843,1.877-1.184,2.656
		s-0.619,1.525-0.832,2.24c-0.213,0.715-0.352,1.52-0.416,2.416c0,0.064,0.011,0.139,0.032,0.224
		c0.021,0.085,0.069,0.16,0.144,0.224c0.075,0.064,0.187,0.096,0.336,0.096c0.149,0,0.341-0.053,0.576-0.16
		c0.618-0.299,1.36-0.821,2.224-1.568c0.864-0.746,1.712-1.738,2.544-2.976c0.32-0.469,0.613-0.933,0.88-1.392
		c0.267-0.458,0.528-0.901,0.784-1.328c0.064-0.106,0.155-0.165,0.272-0.176c0.117-0.011,0.224,0.016,0.32,0.08
		c0.096,0.064,0.16,0.15,0.192,0.256c0.032,0.107,0.005,0.235-0.08,0.384l-1.664,2.784C142.784,30.628,142.38,31.21,141.867,31.903z
		"/>
	<path d="M152.939,20.015c0.512,0.064,0.944,0.192,1.296,0.384s0.634,0.427,0.848,0.704c0.213,0.277,0.368,0.587,0.464,0.928
		c0.096,0.341,0.154,0.683,0.176,1.024c0.384,0.469,0.629,1.088,0.736,1.856c0.149,1.195,0.016,2.459-0.4,3.792
		c-0.416,1.333-1.024,2.555-1.824,3.664c-0.8,1.109-1.733,2.021-2.8,2.736c-1.067,0.715-2.166,1.072-3.296,1.072
		c-1.216-0.021-2.293-0.4-3.232-1.136c-0.939-0.736-1.568-1.861-1.888-3.376c-0.192-0.811-0.208-1.674-0.048-2.592
		c0.16-0.917,0.453-1.824,0.88-2.72s0.965-1.749,1.616-2.56c0.65-0.811,1.376-1.515,2.176-2.112c0.8-0.597,1.648-1.051,2.544-1.36
		C151.083,20.01,152,19.908,152.939,20.015z M152.395,26.447c-0.085-0.021-0.144-0.112-0.176-0.272
		c-0.032-0.16-0.059-0.341-0.08-0.544c-0.021-0.202-0.027-0.421-0.016-0.656c0.011-0.234,0.016-0.437,0.016-0.608
		c0.021-0.192,0.106-0.384,0.256-0.576s0.315-0.362,0.496-0.512c0.181-0.149,0.357-0.272,0.528-0.368
		c0.17-0.096,0.288-0.165,0.352-0.208c0.256-0.128,0.512-0.192,0.768-0.192c-0.043-0.299-0.181-0.555-0.416-0.768
		c-0.235-0.213-0.661-0.299-1.28-0.256c-0.512,0.043-1.088,0.229-1.728,0.56c-0.64,0.331-1.227,0.752-1.76,1.264
		c-0.576,0.598-1.094,1.275-1.552,2.032c-0.459,0.757-0.837,1.531-1.136,2.32c-0.299,0.79-0.496,1.563-0.592,2.32
		c-0.096,0.758-0.075,1.44,0.064,2.048c0.139,0.608,0.411,1.104,0.816,1.488s0.96,0.598,1.664,0.64
		c0.832,0.043,1.659-0.245,2.48-0.864c0.821-0.618,1.557-1.397,2.208-2.336c0.65-0.938,1.173-1.946,1.568-3.024
		c0.395-1.077,0.581-2.064,0.56-2.96c0-0.448-0.149-0.704-0.448-0.768c-0.235-0.042-0.496,0.011-0.784,0.16
		c-0.288,0.149-0.56,0.341-0.816,0.576c-0.256,0.235-0.48,0.491-0.672,0.768C152.523,25.989,152.416,26.234,152.395,26.447z"/>
	<path d="M169.931,20.143c0.213-0.106,0.501-0.09,0.864,0.048c0.363,0.139,0.704,0.347,1.024,0.624
		c0.32,0.278,0.576,0.598,0.768,0.96c0.192,0.363,0.234,0.715,0.128,1.056c-0.107,0.299-0.32,0.779-0.64,1.44
		c-0.32,0.662-0.667,1.414-1.04,2.256c-0.374,0.843-0.747,1.712-1.12,2.608c-0.374,0.896-0.667,1.717-0.88,2.464
		c-0.214,0.747-0.32,1.36-0.32,1.84s0.192,0.731,0.576,0.752h0.416c0.725-0.213,1.397-0.597,2.016-1.152
		c0.618-0.555,1.2-1.184,1.744-1.888c0.544-0.704,1.045-1.44,1.504-2.208c0.458-0.768,0.88-1.472,1.264-2.112
		c0.064-0.106,0.16-0.165,0.288-0.176s0.24,0.016,0.336,0.08c0.096,0.064,0.165,0.15,0.208,0.256
		c0.042,0.107,0.021,0.235-0.064,0.384c-0.427,0.662-0.843,1.333-1.248,2.016c-0.405,0.683-0.832,1.344-1.28,1.984
		c-0.448,0.64-0.917,1.259-1.408,1.856c-0.491,0.598-1.035,1.142-1.632,1.632c-0.149,0.128-0.341,0.278-0.576,0.448
		c-0.235,0.171-0.496,0.326-0.784,0.464c-0.288,0.139-0.598,0.256-0.928,0.352c-0.331,0.096-0.688,0.144-1.072,0.144
		c-0.47-0.021-0.859-0.149-1.168-0.384c-0.31-0.235-0.544-0.544-0.704-0.928c-0.16-0.384-0.256-0.821-0.288-1.312
		c-0.032-0.49,0.005-1.013,0.112-1.568c0.064-0.384,0.16-0.8,0.288-1.248c-0.491,0.747-1.013,1.467-1.568,2.16
		c-0.555,0.693-1.173,1.317-1.856,1.872c-0.149,0.128-0.342,0.278-0.576,0.448c-0.235,0.171-0.496,0.326-0.784,0.464
		c-0.288,0.139-0.598,0.256-0.928,0.352c-0.331,0.096-0.688,0.144-1.072,0.144c-0.448-0.021-0.827-0.149-1.136-0.384
		c-0.31-0.235-0.549-0.544-0.72-0.928c-0.171-0.384-0.267-0.821-0.288-1.312c-0.021-0.49,0.021-1.013,0.128-1.568
		c0.149-0.768,0.395-1.675,0.736-2.72c0.341-1.045,0.714-2.117,1.12-3.216c0.405-1.099,0.794-2.176,1.168-3.232
		c0.373-1.056,0.667-1.979,0.88-2.768c0.213-0.106,0.496-0.09,0.848,0.048c0.352,0.139,0.688,0.347,1.008,0.624
		c0.32,0.278,0.576,0.598,0.768,0.96c0.192,0.363,0.234,0.715,0.128,1.056c-0.107,0.299-0.315,0.779-0.624,1.44
		c-0.31,0.662-0.656,1.414-1.04,2.256c-0.384,0.843-0.757,1.712-1.12,2.608c-0.363,0.896-0.651,1.717-0.864,2.464
		c-0.213,0.747-0.32,1.36-0.32,1.84s0.192,0.731,0.576,0.752h0.384c0.704-0.213,1.354-0.581,1.952-1.104
		c0.597-0.522,1.157-1.12,1.68-1.792c0.522-0.672,1.013-1.376,1.472-2.112c0.458-0.736,0.88-1.424,1.264-2.064
		c0.448-1.259,0.901-2.507,1.36-3.744C169.349,22.138,169.695,21.06,169.931,20.143z"/>
	<path d="M173.066,32.527c0-0.746,0.187-1.477,0.56-2.192c0.374-0.714,0.837-1.264,1.392-1.648c0.683-1.088,1.371-2.17,2.064-3.248
		c0.693-1.077,1.456-2.16,2.288-3.248c0.256-0.362,0.501-0.714,0.736-1.056s0.479-0.688,0.736-1.04
		c0.256-0.352,0.554-0.709,0.896-1.072c0.342-0.362,0.758-0.757,1.248-1.184c0.234,0.107,0.522,0.256,0.864,0.448
		c0.341,0.192,0.65,0.405,0.928,0.64s0.475,0.464,0.593,0.688c0.116,0.224,0.068,0.421-0.145,0.592
		c-0.256,0.235-0.453,0.427-0.592,0.576s-0.262,0.293-0.368,0.432c-0.107,0.139-0.214,0.293-0.32,0.464s-0.256,0.395-0.447,0.672
		c-0.448,0.683-0.764,1.392-0.944,2.128c-0.182,0.736-0.277,1.488-0.288,2.256s0.016,1.542,0.08,2.32
		c0.063,0.779,0.117,1.552,0.16,2.32c0.021,0.768-0.086,1.472-0.32,2.112c-0.235,0.64-0.581,1.184-1.04,1.632
		c-0.459,0.448-1.003,0.79-1.632,1.024c-0.629,0.234-1.307,0.331-2.032,0.288c-0.768-0.064-1.429-0.208-1.984-0.432
		s-1.013-0.512-1.376-0.864c-0.362-0.352-0.629-0.752-0.8-1.2C173.152,33.487,173.066,33.018,173.066,32.527z M180.234,22.863
		c-0.64,0.768-1.269,1.643-1.888,2.624c-0.619,0.982-1.195,1.899-1.728,2.752c0.149,0,0.298,0.021,0.448,0.064
		c0.149,0.043,0.309,0.096,0.48,0.16c0.064,0.085,0.165,0.256,0.304,0.512c0.139,0.256,0.272,0.528,0.4,0.816s0.229,0.555,0.304,0.8
		c0.074,0.246,0.08,0.4,0.016,0.464c-0.256-0.213-0.566-0.347-0.928-0.4c-0.363-0.053-0.72-0.037-1.072,0.048
		c-0.352,0.085-0.688,0.219-1.008,0.4c-0.32,0.182-0.576,0.411-0.768,0.688c-0.192,0.277-0.299,0.592-0.32,0.944
		s0.096,0.72,0.352,1.104c0.256,0.427,0.592,0.742,1.008,0.944s0.827,0.315,1.232,0.336c0.448,0.043,0.832-0.016,1.152-0.176
		c0.32-0.16,0.586-0.389,0.8-0.688c0.213-0.298,0.368-0.645,0.464-1.04c0.096-0.395,0.144-0.805,0.144-1.232
		c0-0.661-0.048-1.354-0.144-2.08c-0.096-0.725-0.155-1.472-0.176-2.24c-0.021-0.768,0.021-1.552,0.128-2.352
		C179.541,24.511,179.807,23.695,180.234,22.863z"/>
	<path d="M196.938,24.431c-0.96,1.728-2.219,3.163-3.776,4.304c-1.558,1.142-3.274,1.968-5.151,2.48
		c-0.021,0.363,0,0.726,0.063,1.088c0.064,0.363,0.171,0.704,0.32,1.024c0.148,0.32,0.352,0.597,0.607,0.832
		c0.257,0.235,0.576,0.395,0.96,0.48c0.47,0.107,1.009,0.091,1.616-0.048c0.608-0.138,1.248-0.416,1.92-0.832
		c0.672-0.416,1.36-0.965,2.064-1.648c0.704-0.682,1.396-1.514,2.08-2.496c0.341-0.491,0.65-0.971,0.928-1.44
		c0.277-0.469,0.533-0.917,0.768-1.344c0.085-0.106,0.187-0.165,0.305-0.176c0.117-0.011,0.224,0.016,0.319,0.08
		c0.097,0.064,0.165,0.15,0.208,0.256c0.043,0.107,0.021,0.235-0.063,0.384c-0.299,0.47-0.619,0.981-0.96,1.536
		c-0.342,0.555-0.72,1.136-1.136,1.744c-0.416,0.608-0.875,1.216-1.376,1.824c-0.502,0.608-1.062,1.189-1.681,1.744
		s-1.216,0.976-1.792,1.264c-0.576,0.288-1.12,0.491-1.632,0.608c-0.512,0.117-0.971,0.181-1.376,0.192
		c-0.405,0.01-0.736,0.016-0.992,0.016c-1.451,0-2.581-0.384-3.392-1.152c-0.812-0.768-1.248-1.813-1.312-3.136
		c-0.043-1.216,0.177-2.427,0.656-3.632c0.48-1.205,1.253-2.512,2.32-3.92c0.341-0.448,0.8-0.933,1.376-1.456
		c0.576-0.522,1.216-1.008,1.92-1.456c0.704-0.448,1.45-0.811,2.24-1.088c0.789-0.277,1.578-0.405,2.367-0.384
		c0.513,0,0.955,0.117,1.328,0.352s0.646,0.549,0.816,0.944c0.17,0.395,0.219,0.854,0.144,1.376
		C197.551,23.274,197.322,23.834,196.938,24.431z M188.17,30.063c-0.021,0.043-0.031,0.085-0.031,0.128
		c1.728-0.49,3.284-1.274,4.672-2.352c1.387-1.077,2.506-2.426,3.359-4.048c0.299-0.619,0.373-1.146,0.225-1.584
		c-0.149-0.437-0.523-0.603-1.12-0.496c-0.896,0.171-1.739,0.576-2.528,1.216c-0.789,0.64-1.493,1.376-2.111,2.208
		c-0.619,0.832-1.142,1.691-1.568,2.576C188.639,28.596,188.34,29.38,188.17,30.063z"/>
	<path d="M233.833,16.751c-0.49,0.32-0.976,0.448-1.456,0.384c-0.479-0.064-0.906-0.203-1.279-0.416
		c-0.374-0.213-0.662-0.453-0.864-0.72c-0.203-0.267-0.272-0.453-0.208-0.56c0.448-0.213,0.938-0.522,1.472-0.928
		s1.035-0.853,1.504-1.344c0.47-0.49,0.875-1.002,1.217-1.536c0.341-0.533,0.549-1.029,0.624-1.488
		c0.074-0.458-0.021-0.858-0.288-1.2c-0.268-0.341-0.773-0.565-1.521-0.672c-0.726-0.085-1.579-0.085-2.56,0
		c-0.981,0.085-1.99,0.267-3.024,0.544c-1.035,0.278-2.054,0.646-3.056,1.104c-1.003,0.459-1.883,0.998-2.641,1.616
		c-0.757,0.619-1.349,1.328-1.775,2.128c-0.427,0.8-0.587,1.669-0.48,2.608c0.085,0.854,0.353,1.664,0.8,2.432
		c0.448,0.768,0.977,1.515,1.584,2.24c0.608,0.726,1.254,1.446,1.937,2.16c0.683,0.715,1.301,1.445,1.856,2.192
		c0.554,0.747,0.996,1.525,1.327,2.336c0.331,0.811,0.453,1.675,0.368,2.592c-0.106,1.131-0.533,2.283-1.28,3.456
		c-0.746,1.173-1.723,2.225-2.928,3.156s-2.587,1.683-4.144,2.256c-1.558,0.573-3.189,0.807-4.896,0.7
		c-0.896-0.043-1.867-0.211-2.912-0.503c-1.045-0.293-2.016-0.714-2.912-1.264c-0.896-0.55-1.647-1.23-2.256-2.041
		c-0.607-0.811-0.934-1.76-0.976-2.848c-0.043-1.152,0.224-2.256,0.8-3.312c0.576-1.056,1.589-2.085,3.04-3.088
		c0.106-0.085,0.357-0.069,0.752,0.048s0.805,0.277,1.232,0.48c0.426,0.203,0.805,0.421,1.136,0.656
		c0.33,0.235,0.475,0.416,0.432,0.544c-0.512,0.278-1.04,0.565-1.584,0.864s-1.04,0.635-1.487,1.008
		c-0.448,0.374-0.816,0.806-1.104,1.296c-0.288,0.491-0.432,1.067-0.432,1.728c0,0.917,0.202,1.659,0.607,2.224
		c0.405,0.565,0.929,1.008,1.568,1.328c0.64,0.32,1.349,0.533,2.128,0.64c0.778,0.106,1.552,0.16,2.32,0.16
		c1.301,0,2.501-0.176,3.6-0.528s2.043-0.848,2.832-1.488c0.789-0.64,1.402-1.418,1.84-2.336c0.438-0.917,0.656-1.941,0.656-3.072
		c-0.021-0.811-0.235-1.584-0.64-2.32c-0.406-0.736-0.902-1.445-1.488-2.128c-0.587-0.682-1.216-1.349-1.888-2
		c-0.673-0.65-1.286-1.322-1.841-2.016s-0.997-1.408-1.327-2.144c-0.331-0.736-0.454-1.531-0.368-2.384
		c0.106-1.002,0.437-1.973,0.992-2.912c0.554-0.938,1.264-1.818,2.128-2.64c0.863-0.821,1.855-1.568,2.976-2.24
		s2.293-1.237,3.521-1.696c1.226-0.458,2.479-0.8,3.76-1.024c1.279-0.224,2.517-0.304,3.712-0.24
		c0.98,0.064,1.738,0.299,2.271,0.704s0.901,0.912,1.104,1.52c0.202,0.608,0.261,1.286,0.176,2.032
		c-0.085,0.747-0.256,1.488-0.512,2.224s-0.576,1.435-0.96,2.096C234.633,15.781,234.238,16.324,233.833,16.751z"/>
	<path d="M234.409,20.143c0.213-0.106,0.496-0.09,0.848,0.048c0.353,0.139,0.688,0.347,1.009,0.624
		c0.319,0.278,0.575,0.598,0.768,0.96c0.192,0.363,0.234,0.715,0.128,1.056c-0.106,0.299-0.314,0.779-0.624,1.44
		c-0.31,0.662-0.656,1.414-1.04,2.256c-0.384,0.843-0.757,1.712-1.12,2.608c-0.362,0.896-0.65,1.717-0.863,2.464
		c-0.214,0.747-0.32,1.36-0.32,1.84s0.191,0.731,0.576,0.752h0.384c0.704-0.213,1.365-0.586,1.984-1.12
		c0.618-0.533,1.188-1.141,1.712-1.824c0.522-0.683,1.013-1.397,1.472-2.144c0.458-0.747,0.88-1.44,1.264-2.08
		c0.405-1.066,0.8-2.176,1.185-3.328c0.384-1.152,0.757-2.336,1.12-3.552c0.213-0.106,0.495-0.09,0.848,0.048
		c0.352,0.139,0.688,0.347,1.008,0.624c0.32,0.278,0.576,0.598,0.769,0.96c0.191,0.363,0.234,0.715,0.128,1.056l-4.736,11.456
		c-0.491,1.195-0.976,2.32-1.456,3.376c-0.479,1.056-0.976,2.053-1.488,2.992c0.896,0.49,1.771,1.018,2.624,1.584
		c0.854,0.565,1.696,1.136,2.528,1.712c0.234,0.17,0.261,0.357,0.08,0.56c-0.182,0.202-0.443,0.384-0.784,0.544
		c-0.342,0.16-0.699,0.282-1.072,0.368c-0.373,0.085-0.635,0.085-0.783,0c-0.747-0.512-1.43-0.992-2.049-1.44
		c-0.618-0.448-1.216-0.864-1.792-1.248c-0.618,0.938-1.279,1.771-1.983,2.496c-0.704,0.725-1.473,1.338-2.305,1.84
		s-1.743,0.885-2.735,1.152c-0.992,0.267-2.085,0.4-3.28,0.4c-0.683,0-1.354-0.069-2.016-0.207
		c-0.661-0.139-1.253-0.356-1.776-0.654c-0.522-0.299-0.949-0.687-1.28-1.165c-0.33-0.479-0.496-1.069-0.496-1.771
		c0-0.936,0.229-1.803,0.688-2.6c0.459-0.798,1.072-1.489,1.84-2.074c0.769-0.585,1.653-1.042,2.656-1.372
		c1.003-0.33,2.059-0.495,3.168-0.495c0.704,0,1.328,0.026,1.872,0.08c0.544,0.053,1.051,0.128,1.52,0.224
		c0.47,0.096,0.923,0.213,1.36,0.352c0.437,0.139,0.901,0.304,1.392,0.496c0.513-0.963,1.003-1.961,1.473-2.994
		c0.469-1.033,0.917-2.094,1.344-3.182l0.704-1.792c-0.427,0.619-0.886,1.216-1.376,1.792c-0.491,0.576-1.024,1.109-1.601,1.6
		c-0.149,0.128-0.341,0.278-0.575,0.448c-0.235,0.171-0.496,0.326-0.784,0.464c-0.288,0.139-0.598,0.256-0.929,0.352
		c-0.33,0.096-0.688,0.144-1.071,0.144c-0.448-0.021-0.827-0.149-1.137-0.384c-0.309-0.235-0.549-0.544-0.72-0.928
		c-0.171-0.384-0.267-0.821-0.288-1.312c-0.021-0.49,0.021-1.013,0.128-1.568c0.149-0.768,0.395-1.675,0.736-2.72
		c0.341-1.045,0.715-2.117,1.12-3.216c0.405-1.099,0.794-2.176,1.168-3.232C233.902,21.855,234.195,20.932,234.409,20.143z
		 M225.897,47.567c0.854,0,1.659-0.155,2.416-0.464c0.757-0.31,1.482-0.736,2.176-1.28c0.693-0.544,1.349-1.195,1.968-1.952
		c0.619-0.757,1.216-1.595,1.792-2.512c-0.726-0.299-1.487-0.533-2.288-0.704c-0.8-0.171-1.712-0.267-2.735-0.288
		c-0.789,0-1.621,0.085-2.496,0.256c-0.875,0.17-1.675,0.432-2.4,0.784c-0.725,0.352-1.322,0.805-1.792,1.36
		c-0.469,0.554-0.683,1.205-0.64,1.952c0,0.576,0.128,1.045,0.384,1.408s0.581,0.65,0.976,0.864
		c0.396,0.213,0.827,0.362,1.297,0.448C225.022,47.524,225.47,47.567,225.897,47.567z"/>
	<path d="M243.081,32.527c0-0.746,0.188-1.477,0.561-2.192c0.373-0.714,0.837-1.264,1.392-1.648c0.683-1.088,1.37-2.17,2.064-3.248
		c0.692-1.077,1.456-2.16,2.288-3.248c0.256-0.362,0.501-0.714,0.735-1.056s0.48-0.688,0.736-1.04s0.555-0.709,0.896-1.072
		c0.342-0.362,0.758-0.757,1.248-1.184c0.234,0.107,0.522,0.256,0.864,0.448c0.341,0.192,0.65,0.405,0.928,0.64
		s0.475,0.464,0.593,0.688c0.116,0.224,0.068,0.421-0.145,0.592c-0.256,0.235-0.453,0.427-0.592,0.576s-0.262,0.293-0.368,0.432
		c-0.107,0.139-0.214,0.293-0.32,0.464s-0.256,0.395-0.447,0.672c-0.448,0.683-0.764,1.392-0.944,2.128
		c-0.182,0.736-0.277,1.488-0.288,2.256s0.016,1.542,0.08,2.32c0.063,0.779,0.117,1.552,0.16,2.32
		c0.021,0.768-0.086,1.472-0.32,2.112c-0.235,0.64-0.581,1.184-1.04,1.632c-0.459,0.448-1.003,0.79-1.632,1.024
		c-0.63,0.234-1.307,0.331-2.032,0.288c-0.768-0.064-1.43-0.208-1.983-0.432c-0.556-0.224-1.014-0.512-1.376-0.864
		c-0.363-0.352-0.63-0.752-0.801-1.2C243.167,33.487,243.081,33.018,243.081,32.527z M250.249,22.863
		c-0.64,0.768-1.27,1.643-1.888,2.624c-0.619,0.982-1.195,1.899-1.729,2.752c0.149,0,0.299,0.021,0.448,0.064
		c0.149,0.043,0.31,0.096,0.48,0.16c0.063,0.085,0.165,0.256,0.304,0.512s0.272,0.528,0.4,0.816s0.229,0.555,0.304,0.8
		c0.074,0.246,0.08,0.4,0.016,0.464c-0.256-0.213-0.565-0.347-0.928-0.4c-0.363-0.053-0.72-0.037-1.072,0.048
		c-0.352,0.085-0.688,0.219-1.008,0.4c-0.32,0.182-0.576,0.411-0.768,0.688c-0.192,0.277-0.299,0.592-0.32,0.944
		s0.096,0.72,0.352,1.104c0.257,0.427,0.593,0.742,1.009,0.944s0.826,0.315,1.231,0.336c0.448,0.043,0.832-0.016,1.152-0.176
		c0.32-0.16,0.586-0.389,0.8-0.688c0.213-0.298,0.368-0.645,0.464-1.04c0.096-0.395,0.145-0.805,0.145-1.232
		c0-0.661-0.049-1.354-0.145-2.08c-0.096-0.725-0.155-1.472-0.176-2.24c-0.021-0.768,0.021-1.552,0.128-2.352
		C249.555,24.511,249.822,23.695,250.249,22.863z"/>
	<path d="M256.489,20.239c-0.149,0.043-0.277,0.043-0.385,0c-0.106-0.043-0.181-0.112-0.224-0.208c-0.043-0.096-0.043-0.203,0-0.32
		c0.043-0.117,0.128-0.218,0.256-0.304c1.558-1.003,3.157-1.845,4.8-2.528c0.619-1.28,1.137-2.464,1.553-3.552
		s0.74-2.08,0.976-2.976c0.213-0.106,0.501-0.09,0.864,0.048c0.362,0.139,0.704,0.342,1.023,0.608
		c0.32,0.267,0.576,0.582,0.769,0.944c0.191,0.363,0.224,0.715,0.096,1.056c-0.085,0.235-0.229,0.576-0.432,1.024
		c-0.203,0.448-0.454,0.971-0.752,1.568c2.133-0.469,4.288-0.661,6.464-0.576c0.063,0.171,0.08,0.363,0.048,0.576
		c-0.032,0.213-0.096,0.411-0.192,0.592c-0.096,0.182-0.219,0.331-0.367,0.448c-0.149,0.117-0.3,0.166-0.448,0.144
		c-1.067-0.064-2.117-0.059-3.152,0.016c-1.035,0.075-2.096,0.229-3.184,0.464c-0.235,0.491-0.48,0.981-0.736,1.472
		c-0.256,0.491-0.501,0.971-0.736,1.44c-0.149,0.299-0.427,0.848-0.832,1.648c-0.405,0.8-0.858,1.712-1.359,2.736
		c-0.502,1.024-0.998,2.102-1.488,3.232c-0.491,1.131-0.891,2.166-1.2,3.104c-0.31,0.939-0.485,1.717-0.527,2.336
		c-0.043,0.619,0.138,0.939,0.544,0.96h0.384c0.725-0.213,1.402-0.597,2.032-1.152c0.629-0.555,1.21-1.184,1.744-1.888
		c0.532-0.704,1.028-1.44,1.487-2.208s0.891-1.472,1.296-2.112c0.064-0.106,0.155-0.165,0.272-0.176s0.224,0.016,0.32,0.08
		c0.096,0.064,0.165,0.15,0.208,0.256c0.042,0.107,0.021,0.235-0.064,0.384c-0.427,0.662-0.843,1.333-1.248,2.016
		c-0.405,0.683-0.827,1.344-1.264,1.984c-0.438,0.64-0.907,1.259-1.408,1.856c-0.502,0.598-1.051,1.142-1.648,1.632
		c-0.149,0.128-0.341,0.278-0.575,0.448c-0.235,0.171-0.496,0.326-0.784,0.464c-0.288,0.139-0.598,0.256-0.929,0.352
		c-0.33,0.096-0.688,0.144-1.071,0.144c-0.448-0.021-0.827-0.144-1.137-0.368c-0.309-0.224-0.544-0.528-0.703-0.912
		c-0.16-0.384-0.257-0.827-0.288-1.328c-0.032-0.501,0.005-1.029,0.111-1.584c0.171-1.173,0.448-2.32,0.832-3.44
		c0.385-1.12,0.821-2.229,1.312-3.328c0.49-1.099,1.023-2.192,1.6-3.28c0.576-1.088,1.142-2.187,1.696-3.296l0.096-0.192
		c-0.598,0.235-1.2,0.491-1.808,0.768C257.72,19.588,257.107,19.898,256.489,20.239z"/>
	<path d="M275.56,24.431c-0.96,1.728-2.219,3.163-3.776,4.304c-1.558,1.142-3.274,1.968-5.151,2.48
		c-0.021,0.363,0,0.726,0.063,1.088c0.064,0.363,0.171,0.704,0.32,1.024c0.148,0.32,0.352,0.597,0.607,0.832
		c0.257,0.235,0.576,0.395,0.96,0.48c0.47,0.107,1.009,0.091,1.616-0.048c0.608-0.138,1.248-0.416,1.92-0.832
		c0.672-0.416,1.36-0.965,2.064-1.648c0.704-0.682,1.396-1.514,2.08-2.496c0.341-0.491,0.65-0.971,0.928-1.44
		c0.277-0.469,0.533-0.917,0.768-1.344c0.085-0.106,0.187-0.165,0.305-0.176c0.117-0.011,0.224,0.016,0.319,0.08
		c0.097,0.064,0.165,0.15,0.208,0.256c0.043,0.107,0.021,0.235-0.063,0.384c-0.299,0.47-0.619,0.981-0.96,1.536
		c-0.342,0.555-0.72,1.136-1.136,1.744c-0.416,0.608-0.875,1.216-1.376,1.824c-0.502,0.608-1.062,1.189-1.681,1.744
		s-1.216,0.976-1.792,1.264c-0.576,0.288-1.12,0.491-1.632,0.608c-0.512,0.117-0.971,0.181-1.376,0.192
		c-0.405,0.01-0.736,0.016-0.992,0.016c-1.451,0-2.581-0.384-3.392-1.152c-0.812-0.768-1.248-1.813-1.312-3.136
		c-0.043-1.216,0.177-2.427,0.656-3.632c0.48-1.205,1.253-2.512,2.32-3.92c0.341-0.448,0.8-0.933,1.376-1.456
		c0.576-0.522,1.216-1.008,1.92-1.456c0.704-0.448,1.45-0.811,2.24-1.088c0.789-0.277,1.578-0.405,2.367-0.384
		c0.513,0,0.955,0.117,1.328,0.352s0.646,0.549,0.816,0.944c0.17,0.395,0.219,0.854,0.144,1.376
		C276.173,23.274,275.944,23.834,275.56,24.431z M266.792,30.063c-0.021,0.043-0.031,0.085-0.031,0.128
		c1.728-0.49,3.284-1.274,4.672-2.352c1.387-1.077,2.506-2.426,3.359-4.048c0.299-0.619,0.373-1.146,0.225-1.584
		c-0.149-0.437-0.523-0.603-1.12-0.496c-0.896,0.171-1.739,0.576-2.528,1.216c-0.789,0.64-1.493,1.376-2.111,2.208
		c-0.619,0.832-1.142,1.691-1.568,2.576C267.261,28.596,266.963,29.38,266.792,30.063z"/>
	<path d="M299.928,31.903c-0.501,0.694-1.062,1.36-1.68,2c-0.619,0.64-1.264,1.19-1.936,1.648c-0.672,0.459-1.339,0.688-2,0.688
		c-0.363,0-0.721-0.064-1.072-0.192s-0.656-0.32-0.912-0.576c-0.256-0.256-0.459-0.586-0.608-0.992
		c-0.149-0.405-0.213-0.885-0.191-1.44c0.021-0.555,0.096-1.104,0.224-1.648s0.293-1.12,0.496-1.728s0.453-1.269,0.752-1.984
		s0.629-1.509,0.992-2.384c0.234-0.554,0.416-1.061,0.544-1.52c0.128-0.458,0.149-0.794,0.064-1.008
		c-0.086-0.213-0.305-0.25-0.656-0.112c-0.353,0.139-0.901,0.528-1.648,1.168c-0.832,0.725-1.567,1.424-2.208,2.096
		c-0.64,0.672-1.27,1.414-1.888,2.224c-0.171,0.363-0.331,0.731-0.48,1.104c-0.149,0.374-0.299,0.763-0.447,1.168
		c-0.299,0.896-0.556,1.808-0.769,2.736c-0.213,0.928-0.352,1.883-0.416,2.864c0,0.149-0.117,0.192-0.352,0.128
		c-0.235-0.064-0.496-0.176-0.784-0.336c-0.288-0.16-0.55-0.347-0.784-0.56c-0.234-0.213-0.362-0.405-0.384-0.576
		c0.064-1.536,0.33-3.056,0.8-4.56c0.469-1.504,1.014-3.024,1.632-4.56c0.32-0.832,0.544-1.52,0.673-2.064
		c0.128-0.544,0.063-0.848-0.192-0.912c-0.171-0.021-0.427,0.059-0.769,0.24c-0.341,0.182-0.8,0.518-1.376,1.008
		c-0.832,0.747-1.567,1.461-2.208,2.144c-0.64,0.683-1.301,1.44-1.983,2.272c-0.533,1.237-0.981,2.491-1.344,3.76
		c-0.363,1.27-0.598,2.608-0.704,4.016c0,0.149-0.118,0.192-0.353,0.128s-0.496-0.176-0.784-0.336
		c-0.287-0.16-0.549-0.347-0.783-0.56c-0.235-0.213-0.363-0.405-0.385-0.576c0.064-1.258,0.262-2.49,0.593-3.696
		c0.33-1.205,0.709-2.411,1.136-3.616c0.427-1.205,0.874-2.405,1.344-3.6c0.469-1.194,0.885-2.4,1.248-3.616
		c0.213-0.106,0.496-0.09,0.848,0.048c0.353,0.139,0.688,0.347,1.009,0.624c0.319,0.278,0.575,0.598,0.768,0.96
		c0.192,0.363,0.234,0.715,0.128,1.056c-0.063,0.235-0.149,0.459-0.256,0.672c-0.107,0.213-0.224,0.438-0.352,0.672
		c0.447-0.49,0.928-0.97,1.439-1.44c0.512-0.469,1.034-0.89,1.568-1.264c0.533-0.373,1.077-0.677,1.632-0.912
		c0.555-0.234,1.12-0.373,1.696-0.416c0.234,0,0.484,0.091,0.752,0.272c0.267,0.182,0.501,0.405,0.704,0.672
		c0.202,0.267,0.356,0.55,0.464,0.848c0.106,0.299,0.116,0.565,0.031,0.8c-0.106,0.278-0.224,0.544-0.352,0.8
		c-0.128,0.256-0.256,0.523-0.384,0.8c0.448-0.512,0.928-1.013,1.439-1.504c0.513-0.491,1.045-0.928,1.601-1.312
		c0.555-0.384,1.125-0.699,1.712-0.944c0.586-0.245,1.179-0.389,1.775-0.432c0.214,0,0.453,0.091,0.721,0.272
		c0.267,0.182,0.501,0.405,0.704,0.672c0.202,0.267,0.356,0.55,0.464,0.848c0.106,0.299,0.106,0.565,0,0.8
		c-0.534,1.451-1.02,2.672-1.456,3.664c-0.438,0.992-0.827,1.877-1.168,2.656c-0.342,0.779-0.619,1.525-0.832,2.24
		c-0.214,0.715-0.353,1.52-0.416,2.416c0,0.064,0.011,0.139,0.032,0.224c0.021,0.085,0.068,0.16,0.144,0.224
		c0.074,0.064,0.181,0.096,0.32,0.096c0.139,0,0.325-0.053,0.56-0.16c0.661-0.299,1.419-0.821,2.272-1.568
		c0.853-0.746,1.695-1.738,2.527-2.976c0.32-0.469,0.613-0.933,0.88-1.392c0.267-0.458,0.518-0.901,0.753-1.328
		c0.085-0.106,0.187-0.165,0.304-0.176s0.224,0.016,0.32,0.08c0.096,0.064,0.164,0.15,0.208,0.256
		c0.042,0.107,0.021,0.235-0.064,0.384l-1.696,2.784C300.83,30.628,300.429,31.21,299.928,31.903z"/>
</g>
</svg>
