<?xml version="1.0" encoding="utf-8"?>
<!-- Generator: Adobe Illustrator 27.4.1, SVG Export Plug-In . SVG Version: 6.00 Build 0)  -->
<svg version="1.1" id="Layer_1" xmlns="http://www.w3.org/2000/svg" xmlns:xlink="http://www.w3.org/1999/xlink" x="0px" y="0px"
	 viewBox="0 0 200 200" style="enable-background:new 0 0 200 200;" xml:space="preserve">
<g>
	<g>
		<g>
			<path d="M99.955,5.782C100.028,5.744,100.178,5.666,99.955,5.782C99.943,5.789,99.977,5.771,99.955,5.782z"/>
		</g>
		<g>
			<path d="M99.816,5.763c-3.483,1.814-6.829,3.966-10.454,5.548c-1.712,0.747-3.213,2.024-4.995,2.656
				c-0.893,0.317-1.591,1.134-2.496,1.34c-0.566,0.129-2.359,0.705-2.219,1.485c0.273,1.523,3.841-0.455,3.557,1.434
				c-0.273,1.812-0.018,3.883,0.046,5.729c0.129,3.745-0.074,7.52-0.074,11.272c0,0.56,20.281,0.145,22.3,0.145
				c1.831,0,3.687,0.038,5.508,0.038c0.679,0,5.4,0.544,5.643-0.003c0.559-1.258,0.267-3.704,0.196-5.062
				c-0.102-1.954-0.119-3.929-0.119-5.88c0-1.346-0.012-2.693-0.012-4.039c0-1.496-0.605-3.065,1.261-3.077
				c0.877-0.006,3.581,0.005,1.754-1.262c-1.128-0.783-2.782-1.74-4.096-2.109c-2.785-0.781-5.434-2.879-7.969-4.2
				c-1.361-0.709-2.793-1.671-4.209-2.244C102.875,7.307,100.304,5.508,99.816,5.763z M89.022,32.51
				c-1.463,0-3.369,1.051-3.357-0.977c0.01-1.65-0.2-3.366-0.02-5.007c0.178-1.62,0.058-3.243,0.058-4.858
				c0-0.691-0.255-4.158,0.25-4.158c1.463,0,3.242-0.836,3.381,0.978c0.117,1.526,0.159,3.485-0.071,5.007
				C89.119,24.454,89.602,32.51,89.022,32.51z M95.271,32.51c-1.463,0-3.368,1.051-3.356-0.977c0.01-1.65-0.2-3.366-0.02-5.007
				c0.178-1.62,0.058-3.243,0.058-4.858c0-0.691-0.255-4.158,0.25-4.158c1.463,0,3.242-0.836,3.381,0.978
				c0.117,1.526,0.159,3.485-0.071,5.007C95.367,24.454,95.85,32.51,95.271,32.51z M101.52,32.51c-1.463,0-3.368,1.051-3.357-0.977
				c0.01-1.65-0.2-3.366-0.02-5.007c0.178-1.62,0.058-3.243,0.058-4.858c0-0.691-0.255-4.158,0.251-4.158
				c1.463,0,3.242-0.836,3.381,0.978c0.117,1.526,0.159,3.485-0.071,5.007C101.616,24.454,102.099,32.51,101.52,32.51z
				 M107.769,32.51c-1.463,0-3.368,1.051-3.357-0.977c0.01-1.65-0.2-3.366-0.02-5.007c0.178-1.62,0.058-3.243,0.058-4.858
				c0-0.691-0.255-4.158,0.25-4.158c1.463,0,3.242-0.836,3.381,0.978c0.117,1.526,0.159,3.485-0.071,5.007
				C107.865,24.454,108.348,32.51,107.769,32.51z M114.018,32.51c-1.463,0-3.368,1.051-3.357-0.977c0.01-1.65-0.2-3.366-0.02-5.007
				c0.178-1.62,0.058-3.243,0.058-4.858c0-0.691-0.255-4.158,0.25-4.158c1.463,0,3.242-0.836,3.381,0.978
				c0.117,1.526,0.159,3.485-0.071,5.007C114.114,24.454,114.597,32.51,114.018,32.51z"/>
		</g>
	</g>
	<g>
		<path d="M77.536,67.282c-0.387,3.916-0.864,7.818-1.241,11.724c-0.178,1.847-0.049,3.804-0.413,5.625
			c-0.152,0.758-0.451,2.069-0.14,2.816c0.422,1.013,2.168,0.304,3.032,0.52c0.863,0.216,1.857-0.169,2.757-0.095
			c0.91,0.075,1.846-0.022,2.759-0.02c2.016,0.004,4.027-0.001,6.028-0.001c1.836,0,3.671,0.172,5.519,0.172
			c0.919,0,1.837-0.018,2.759-0.018c0.993,0,2.312,0.199,3.267-0.026c1.836-0.431,3.718,0.409,5.518,0.008
			c1.946-0.433,3.925,0.152,5.88-0.109c0.883-0.118,1.886-0.052,2.762,0.08c0.948,0.143,1.802-0.202,2.762,0.011
			c0.86,0.192,1.876-0.169,2.765-0.158c0.81,0.01,3.058,0.658,2.903-0.903c-0.182-1.843-0.392-3.744-0.576-5.602
			c-0.193-1.948-0.919-4.169-0.72-6.116c0.102-0.996-0.371-1.83-0.303-2.802c0.064-0.916,0.026-1.914-0.137-2.821
			c-0.141-0.788-0.092-2-0.502-2.702c-0.448-0.767-2.21-0.317-2.97-0.439c-3.241-0.516-6.943,0.148-10.227,0.148
			c-3.544,0-7.037-0.289-10.585-0.054c-1.711,0.113-3.482,0.064-5.192-0.048c-1.803-0.119-3.794,0.257-5.556-0.025
			C86.286,66.222,77.687,65.754,77.536,67.282z"/>
	</g>
	<g>
		<path d="M126.831,110.37c-0.186-1.886-0.48-3.781-0.668-5.678c-0.193-1.952-0.815-4.262-0.612-6.219
			c0.196-1.888-0.629-3.777-0.536-5.697c0.034-0.714,0.151-2.15-0.303-2.761c-0.581-0.782-2.248-0.271-3.101-0.398
			c-1.745-0.261-3.87-0.117-5.624,0.07c-2.009,0.215-4.126-0.138-6.145-0.138c-1.88,0-3.746-0.039-5.626-0.039
			c-2.019,0-4.127,0.325-6.143,0.215c-1.872-0.102-3.75-0.134-5.626-0.141c-1.881-0.007-4.199,0.405-5.994-0.006
			c-0.866-0.198-1.924,0.145-2.815,0.152c-0.935,0.008-1.888-0.057-2.816-0.163c-1.063-0.122-5.634-0.445-5.764,0.871
			c-0.187,1.889-0.376,3.789-0.564,5.688c-0.198,2.007,0.022,4.268-0.438,6.236c-0.43,1.839-0.531,3.802-0.71,5.68
			c-0.077,0.807-0.278,2.061,0.025,2.839c0.332,0.851,2.28,0.515,3.007,0.557c2.009,0.118,4.083-0.158,6.111-0.158
			c2.153,0,4.313,0.256,6.475,0.129c4.219-0.248,8.37,0.067,12.59,0.014c4.177-0.053,8.404,0.101,12.59-0.116
			c2.191-0.114,4.413,0.096,6.638-0.008C121.878,111.249,127.029,112.38,126.831,110.37z"/>
	</g>
	<g>
		<path d="M72.851,113.919c-0.187,1.894-0.524,3.777-0.712,5.678c-0.201,2.033-0.699,4.157-0.639,6.222
			c0.055,1.893-0.257,3.827-0.428,5.712c-0.105,1.16-1.234,5.333-0.165,6.059c1.115,0.757,4.209,0.174,5.542,0.212
			c1.998,0.058,4.062-0.147,6.092-0.147c3.879,0,7.792,0.233,11.671,0.129c7.746-0.207,15.456-0.03,23.193-0.03
			c1.864,0,3.731,0.019,5.584,0.019c0.931,0,1.862-0.023,2.794-0.023c0.749,0,2.648,0.191,3.263-0.208
			c1.102-0.715,0.03-4.535-0.03-5.637c-0.109-1.996-0.411-4.075-0.708-6.055c-0.42-2.799-0.219-5.751-0.697-8.564
			c-0.173-1.021,0.162-3.46-0.868-4.107c-0.899-0.565-3.028,0.007-4.055-0.002c-2.677-0.023-5.685-0.505-8.314-0.061
			c-2.75,0.465-5.582-0.324-8.316-0.079c-2.766,0.248-5.531-0.006-8.317-0.015c-1.409-0.005-2.735,0.21-4.156,0.027
			c-1.209-0.156-2.98-0.197-4.159,0.055C87.416,113.536,73.058,111.824,72.851,113.919z"/>
	</g>
	<g>
		<path d="M128.648,38.255c-0.142-1.846-2.915-1.853-4.49-1.544c-1.967,0.385-4.014-0.005-6.006-0.037
			c-3.934-0.064-7.885,0.019-11.805,0.019c-3.956,0-7.861,0.073-11.806,0.003c-1.889-0.033-3.761,0.051-5.643,0.021
			c-1.935-0.031-4.114-0.149-6.012,0.113c-1.747,0.241-3.899,0.146-5.648-0.02c-1.469-0.139-5.164-0.655-5.897,0.935
			c-0.789,1.711,2.228,3.33,3.488,3.515c2.751,0.404,3.263,5.455,3.288,7.534c0.017,1.42-0.71,4.33,1.863,4.002
			c0.936-0.119,1.909-0.078,2.851-0.111c0.484-0.017,0.948,0.012,1.428,0.065c0.41,0.046,1.466-0.416,1.751-0.265
			c1.023,0.539-1.763,0.574-1.753,0.573c-0.966,0.113-1.93-0.022-2.885,0.128c-0.629,0.099-1.915-0.21-2.369,0.25
			c-0.355,0.36-0.163,0.633-0.057,1.037c0.171,0.65-0.191,1.287-0.254,1.924c-0.194,1.964-0.393,3.911-0.588,5.877
			c-0.07,0.708-0.3,2.556,0.82,2.556c1.11,0,2.209-0.162,3.327-0.096c1.861,0.11,3.743-0.035,5.613,0.007
			c1.876,0.042,4.152,0.244,5.979-0.063c0.948-0.159,1.833,0.241,2.806,0.089c0.917-0.143,1.871,0.121,2.804,0.052
			c2.052-0.151,4.082-0.084,6.134-0.084c1.876,0,3.76-0.101,5.619-0.101c2.013,0,4.148,0.371,6.14,0.217
			c1.558-0.12,4.744,0.532,4.573-1.618c-0.153-1.928-0.746-4.004-0.531-5.93c0.107-0.959-0.427-1.723-0.171-2.693
			c0.319-1.205-1.202-0.598-1.676-0.643c-2.072-0.194-4.238-0.263-6.291-0.628c-0.725-0.129-5.137-0.348-5.159-0.555
			c-0.039-0.353,1.777,0.024,2.258-0.069c1.101-0.211,2.281,0.079,3.387,0.079c1.902,0,3.814,0.022,5.721,0.022
			c1.25,0,1.49-0.219,2.375-1.017c0.554-0.5,0.194-2.223,0.203-3.004c0.031-2.586,0.256-4.641,1.84-6.727
			C125.044,40.533,128.866,41.075,128.648,38.255z"/>
	</g>
	<g>
		<path d="M94.823,175.967c1.969,0,3.934,0.021,5.896,0.021c0.984,0,1.968,0.021,2.952,0.021c1.468,0,1.653-0.101,1.959,1.31
			c0.206,0.951-0.193,1.899-0.019,2.88c0.16,0.901,0.079,1.996-0.105,2.881c-0.182,0.879-0.04,2.013,0.13,2.881
			c0.213,1.083-0.123,2.315-0.123,3.415c0,0.964-0.019,1.924-0.019,2.885c0,1.018-0.083,1.718,1.003,1.785
			c1.957,0.12,3.91-0.021,5.863,0.155c0.923,0.083,1.815-0.208,2.752-0.169c0.931,0.039,1.821,0.183,2.75,0.059
			c1.937-0.258,4.063,0.114,6.016,0.114c3.8,0,7.718,0.181,11.532-0.11c0.901-0.069,1.858-0.134,2.76-0.054
			c1.239,0.111,1.31-0.088,1.284-1.282c-0.045-2.104-0.416-4.205-0.578-6.296c-0.149-1.93-0.357-3.847-0.506-5.77
			c-0.069-0.89,0.4-1.46-0.539-1.923c-0.744-0.367-2.177-0.277-2.997-0.277c-1.802,0-3.618,0.085-5.417,0.085
			c-0.904,0-1.808,0.008-2.712,0.008c-0.324,0-0.894,0.412-1.197,0.285c-0.77-0.322,0.433-0.558,0.679-0.508
			c1.758,0.353,3.621-0.422,5.384-0.386c0.911,0.019,1.779-0.243,2.696-0.195c0.659,0.035,2.3,0.141,2.883-0.096
			c0.877-0.357,0.085-1.44,0.122-2.079c0.068-1.156-0.345-1.361-1.007-2.231c-0.642-0.845-0.669-1.314-1.732-1.249
			c-1.105,0.068-2.146-0.001-3.241-0.001c-1.815,0-3.631,0.021-5.468,0.021c-0.913,0-1.826-0.07-2.738-0.07
			c-0.384,0-0.886,0.46-1.246,0.357c-0.759-0.217,0.401-0.579,0.705-0.527c1.802,0.307,3.662-0.505,5.435-0.324
			c1.924,0.196,3.996-0.504,5.905-0.682c0.312-0.029,2.257,0.599,1.469-0.611c-0.583-0.896-0.169-1.732-0.433-2.706
			c-0.529-1.957-0.296-3.964-0.685-5.923c-0.366-1.838-0.401-3.708-0.675-5.562c-0.3-2.022-0.369-4.073-0.595-6.098
			c-0.207-1.855-0.463-3.719-0.669-5.568c-0.104-0.928-0.288-1.849-0.392-2.782c-0.156-1.397,0.091-1.996-1.498-2.214
			c-1.849-0.254-3.762-0.016-5.62,0.016c-1.954,0.034-4.066-0.239-5.985,0.044c-1.827,0.269-3.781-0.145-5.623-0.171
			c-2.039-0.029-4.1,0.018-6.145,0.018c-1.88,0-3.738,0.138-5.625,0.138c-2.001,0-4.154-0.318-6.147-0.071
			c-3.832,0.475-7.773-0.433-11.614,0.018c-1.834,0.215-3.786,0.027-5.631-0.031c-2.042-0.065-4.115-0.024-6.153-0.024
			c-0.941,0-1.88,0.01-2.822,0.01c-1.296,0-0.905,1.488-0.992,2.273c-0.228,2.045-0.649,4.058-0.817,6.112
			c-0.317,3.86-0.673,7.76-1.243,11.588c-0.279,1.871-0.43,3.735-0.72,5.604c-0.149,0.965,0.047,1.858-0.181,2.823
			c-0.172,0.727-0.73,2.288-0.607,2.994c0.164,0.941,1.504,0.405,2.126,0.436c0.943,0.048,1.834,0.382,2.771,0.386
			c2.01,0.007,4.028,0.747,6.011,0.251c0.411-0.103,0.556,0.455,0.243,0.598c-0.287,0.131-0.895-0.287-1.205-0.287
			c-1.118,0-2.218-0.086-3.332-0.098c-2.17-0.023-4.349,0.04-6.518,0.096c-0.067,0.002-1.149,1.391-1.295,1.58
			c-0.498,0.647-0.584,0.977-0.711,1.765c-0.075,0.465,0.203,3.436-0.539,3.288c-0.62-0.123-0.918,8.168-0.991,9.111
			c-0.118,1.523-0.152,3.382-0.443,4.862c-0.47,2.39,2.149,1.013,3.597,1.294c1.439,0.279,3.009,0.04,4.486,0.168
			c1.663,0.144,3.476-0.046,5.145-0.145c0.782-0.047,1.481,0.162,2.243,0.162c0.789,0,1.435-0.217,2.244-0.087
			c0.815,0.131,1.592-0.285,2.397-0.085c0.93,0.23,1.809,0.05,2.755,0.049c3.211-0.005,6.432,0.114,9.649-0.038
			c0.954-0.045,1.162,0.092,1.226-0.908c0.051-0.781,0.055-1.564,0.055-2.347c0-1.725-0.269-3.51,0.014-5.229
			C94.591,184.506,93.959,175.967,94.823,175.967z"/>
	</g>
</g>
</svg>
