<?xml version="1.0" encoding="utf-8"?>
<!-- Generator: Adobe Illustrator 27.5.0, SVG Export Plug-In . SVG Version: 6.00 Build 0)  -->
<svg version="1.1" id="Layer_1" xmlns="http://www.w3.org/2000/svg" xmlns:xlink="http://www.w3.org/1999/xlink" x="0px" y="0px"
	 viewBox="0 0 437.62 613.85" style="enable-background:new 0 0 437.62 613.85;" xml:space="preserve">
<style type="text/css">
	.st0{fill:none;}
	.st1{fill:#123859;}
	.st2{fill:#00A19A;}
</style>
<ellipse transform="matrix(0.9871 -0.1602 0.1602 0.9871 -6.528 35.8035)" class="st0" cx="218.81" cy="58.392" rx="20.369" ry="20.369"/>
<path class="st1" d="M415.452,318.155c-0.04-0.095-0.075-0.193-0.115-0.288l-3.766-9.481c-3.503-15.912-7.004-31.824-10.504-47.739
	c-3.503,15.912-7.004,31.824-10.504,47.739l-3.774,9.502c-0.035,0.078-0.06,0.159-0.095,0.236l-14.273,35.935l0.634,0.957
	l10.435-6.347c-11.222,75.206-72.68,134.164-149.134,141.277V208.096h95.126c8.585,0,15.549-6.961,15.549-15.549
	s-6.961-15.549-15.549-15.549h-95.126v-40.19h-31.098v40.193h-95.12c-8.585,0-15.549,6.961-15.549,15.549
	s6.961,15.549,15.549,15.549h95.126v281.846c-76.454-7.11-137.912-66.071-149.134-141.277l10.435,6.347l0.634-0.957l-14.273-35.935
	c-0.032-0.078-0.06-0.158-0.095-0.236l-3.774-9.502c-3.5-15.912-7.001-31.824-10.504-47.739c-3.5,15.912-7.001,31.824-10.504,47.739
	l-3.766,9.481c-0.04,0.095-0.075,0.193-0.115,0.288L7.907,354.058l0.478,0.957l13.941-8.433
	c11.236,98.479,95.042,175.245,196.484,175.245s185.245-76.765,196.484-175.245l13.941,8.433l0.478-0.957L415.452,318.155z"/>
<g>
	<path class="st2" d="M171.413,354.634c-2.362-4.184-4.814-8.405-7.285-12.608c-0.415,0.687-0.832,1.378-1.242,2.059
		c-4.32,7.176-8.513,14.22-12.464,20.937c-3.923,6.671-7.733,13.232-11.323,19.501c-1.196,2.089-2.372,4.152-3.528,6.191
		c-5.696,10.046-11.032,19.711-15.859,28.728c-1.909,3.566-3.774,7.096-5.541,10.49c-1.776,3.411-3.492,6.756-5.101,9.942
		c-1.614,3.195-3.186,6.361-4.673,9.411c-1.472,3.018-2.904,6.011-4.257,8.896c-4.664,9.949-17.838,38.455-24.427,54.348
		l43.343,100.831c2.44-5.661,5.395-12.498,6.418-14.803c4.172-9.396,7.945-17.749,11.534-25.534
		c8.687-18.845,16.742-35.326,24.625-50.387c1.177-2.251,2.379-4.526,3.605-6.826c0.136-0.254,0.269-0.512,0.403-0.77
		c5.919-11.84,12.439-24.167,19.905-37.635c9.245-16.676,18.991-33.363,28.703-49.767c-2.862-4.824-5.719-9.628-8.554-14.391
		C194.298,394.095,182.512,374.293,171.413,354.634z"/>
	<path class="st2" d="M286.414,120.68c-0.031,0.084-0.067,0.171-0.098,0.256c-0.236,0.63-0.487,1.269-0.733,1.906
		c-0.245,0.635-0.487,1.265-0.741,1.906c-0.249,0.626-0.509,1.259-0.767,1.891c-0.197,0.484-0.386,0.964-0.588,1.449
		c-0.1,0.239-0.205,0.483-0.306,0.723c-0.136,0.323-0.273,0.648-0.412,0.972c-0.486,1.142-0.98,2.288-1.487,3.43
		c-0.023,0.051-0.043,0.101-0.066,0.152c-0.532,1.316-1.072,2.626-1.625,3.948l-0.506,1.197c-0.409,0.968-0.819,1.936-1.241,2.916
		l-0.648,1.489c-0.392,0.9-0.788,1.803-1.193,2.716l-0.723,1.618c-0.4,0.893-0.806,1.791-1.218,2.695l-0.759,1.658
		c-0.422,0.918-0.852,1.843-1.287,2.773l-0.77,1.645c-0.459,0.975-0.927,1.956-1.398,2.942l-0.738,1.543
		c-0.542,1.126-1.095,2.262-1.653,3.403l-0.562,1.153c-1.503,3.059-3.091,6.232-4.72,9.432l-0.722,1.408
		c-0.576,1.126-1.157,2.259-1.749,3.402l-0.911,1.751c-0.547,1.051-1.097,2.105-1.655,3.168l-0.992,1.88
		c-0.547,1.036-1.098,2.076-1.656,3.121l-1.047,1.961c-0.56,1.046-1.127,2.1-1.698,3.158l-1.059,1.959
		c-0.602,1.109-1.211,2.226-1.822,3.344l-1.002,1.832c-0.696,1.269-1.403,2.549-2.114,3.835l-0.78,1.412
		c-0.987,1.779-1.986,3.572-3,5.381c-1.02,1.819-2.029,3.608-3.049,5.409l-0.97,1.708c-0.714,1.259-1.431,2.52-2.157,3.792
		l-1.187,2.072c-0.671,1.17-1.344,2.345-2.025,3.527l-1.271,2.202c-0.668,1.156-1.34,2.317-2.017,3.484l-5.937,10.107l3.393,5.757
		c2.354,3.963,4.753,7.979,7.196,12.047l1.243,2.064c0.816,1.356,1.632,2.712,2.456,4.078l17.189,28.207l4.035,6.555
		c1.256,2.038,2.521,4.086,3.794,6.145l0.28,0.455c3.266,5.281,6.44,10.447,9.525,15.5c0.316,0.517,0.63,1.034,0.946,1.552
		c0.075-0.126,0.152-0.255,0.227-0.382c22.58-37.946,45.928-77.185,46.455-122.174c0.346-29.549-0.812-67.6-12.929-99.826
		c-4.393-11.682-8.526-20.033-12.173-26.083c0.055,1.267,0.084,2.563,0.055,3.9l-0.005,0.179c-0.045,1.805-0.158,3.623-0.338,5.46
		c-0.188,1.917-0.455,3.924-0.793,5.964c-0.336,2.028-0.751,4.14-1.232,6.278c-0.482,2.139-1.042,4.353-1.664,6.582
		c-0.621,2.225-1.324,4.537-2.089,6.87c-0.011,0.032-0.023,0.066-0.034,0.099c-0.059,0.18-0.125,0.364-0.185,0.545
		c-0.335,1.006-0.677,2.02-1.04,3.048c-0.205,0.583-0.426,1.176-0.64,1.764C286.823,119.552,286.626,120.113,286.414,120.68z"/>
	<path class="st2" d="M161.097,124.385c0.068,0.165,0.141,0.334,0.209,0.5c7.54-7.289,15.916-13.102,24.965-17.316
		c0.974-0.453,1.965-0.892,2.947-1.304c1.975-0.829,3.997-1.587,6.009-2.253c2.025-0.669,4.093-1.262,6.146-1.763
		c0.872-0.213,1.747-0.416,2.625-0.599c1.403-0.292,2.829-0.547,4.239-0.76c1.423-0.214,2.863-0.39,4.281-0.523
		c0.716-0.067,1.433-0.124,2.152-0.171c1.319-0.086,2.696-0.138,4.093-0.154l0.045-0.001l0.045,0.001
		c1.397,0.016,2.774,0.068,4.092,0.154c0.72,0.047,1.437,0.104,2.153,0.171c1.419,0.133,2.859,0.308,4.281,0.523
		c1.41,0.213,2.836,0.468,4.238,0.759c0.879,0.183,1.754,0.386,2.626,0.599c2.052,0.5,4.12,1.094,6.146,1.763
		c2.013,0.666,4.035,1.423,6.01,2.253c0.976,0.409,1.967,0.848,2.945,1.303c9.05,4.214,17.426,10.027,24.967,17.316
		c0.002,0.002,0.003,0.003,0.005,0.005c0.069-0.165,0.132-0.329,0.2-0.494c0.04-0.097,0.078-0.193,0.117-0.29
		c0.855-2.084,1.675-4.158,2.427-6.171c0.866-2.318,1.676-4.622,2.406-6.848c0.729-2.221,1.397-4.419,1.987-6.533
		c0.587-2.103,1.114-4.187,1.567-6.197c0.448-1.992,0.834-3.955,1.146-5.835c0.309-1.869,0.553-3.703,0.725-5.449
		c0.162-1.646,0.263-3.271,0.301-4.826l0.004-0.14c0.036-1.666,0.002-3.212-0.1-4.666c-0.1-1.441-0.268-2.831-0.5-4.131
		c-0.228-1.282-0.523-2.507-0.877-3.641c-0.348-1.116-0.761-2.173-1.229-3.143c-0.459-0.952-0.983-1.844-1.558-2.654
		c-0.35-0.493-0.69-0.962-1.001-1.279c-0.047-0.047-0.105-0.096-0.158-0.145c-0.347-0.314-0.816-0.644-1.317-0.991
		c-0.231-0.16-0.461-0.319-0.688-0.482c-1.897-1.362-3.854-2.676-5.819-3.907c-1.957-1.226-3.97-2.401-5.983-3.49
		c-2.012-1.088-4.077-2.121-6.139-3.07c-2.057-0.947-4.171-1.838-6.283-2.65c-2.112-0.81-4.27-1.559-6.415-2.225
		c-2.149-0.668-4.348-1.274-6.537-1.8c-2.193-0.528-4.429-0.989-6.646-1.371c-2.165-0.373-4.425-0.689-6.719-0.936
		c-1.099-0.121-2.152-0.215-3.207-0.298c-0.896-0.068-1.805-0.133-2.716-0.179l-0.786-0.039c-1.238-0.053-2.475-0.085-3.664-0.096
		l-0.052-0.001l-0.046,0.001c-1.189,0.011-2.426,0.043-3.675,0.097l-0.769,0.038c-0.917,0.046-1.825,0.112-2.732,0.18
		c-1.043,0.082-2.096,0.176-3.144,0.291c-2.344,0.254-4.605,0.569-6.769,0.942c-2.218,0.382-4.454,0.844-6.647,1.371
		c-2.191,0.527-4.39,1.133-6.536,1.8c-2.148,0.667-4.306,1.416-6.417,2.226c-2.112,0.811-4.225,1.702-6.282,2.649
		c-2.062,0.949-4.128,1.983-6.14,3.071c-2.015,1.09-4.028,2.264-5.984,3.489c-1.961,1.229-3.919,2.544-5.817,3.907
		c-0.228,0.164-0.459,0.324-0.69,0.484c-0.501,0.347-0.97,0.677-1.316,0.991c-8.581,10.165-6.616,32.941,5.162,61.704
		C161.035,124.23,161.065,124.307,161.097,124.385z"/>
	<path class="st2" d="M337.48,458.18c-1.354-2.887-2.786-5.881-4.257-8.896c-1.484-3.044-3.056-6.21-4.672-9.41
		c-1.621-3.211-3.337-6.557-5.101-9.943c-1.772-3.401-3.636-6.93-5.542-10.491c-4.818-8.999-10.154-18.665-15.859-28.727
		c-1.156-2.038-2.331-4.102-3.528-6.19c-3.59-6.27-7.4-12.83-11.324-19.502c-3.95-6.717-8.144-13.76-12.465-20.937
		c-0.411-0.682-0.827-1.372-1.242-2.058c-0.764-1.266-1.533-2.538-2.307-3.816c-0.766-1.264-1.534-2.531-2.307-3.803
		c-1.033-1.7-2.069-3.402-3.109-5.105c-3.077-5.041-6.244-10.194-9.502-15.462l-0.281-0.456c-1.274-2.062-2.541-4.112-3.798-6.152
		l-21.263-34.825c-0.826-1.369-1.645-2.729-2.462-4.087l-1.246-2.07c-2.45-4.079-4.855-8.106-7.216-12.079l-1.193-2.025l-2.27-3.851
		l-2.288-3.882l-2.556-4.338c-0.681-1.163-1.359-2.325-2.031-3.481l-1.334-2.295c-0.678-1.168-1.349-2.328-2.018-3.484l-4.483-7.802
		c-0.726-1.272-1.443-2.533-2.158-3.791l-0.971-1.71c-1.019-1.8-2.028-3.589-3.022-5.363c-1.04-1.854-2.039-3.647-3.026-5.427
		l-0.779-1.409c-0.712-1.287-1.419-2.567-2.116-3.837l-1.001-1.831c-0.612-1.119-1.221-2.236-1.822-3.343l-1.06-1.96
		c-0.571-1.058-1.138-2.112-1.698-3.159l-1.047-1.961c-0.557-1.045-1.108-2.084-1.655-3.119l-0.992-1.883
		c-0.558-1.061-1.108-2.116-1.654-3.166l-0.911-1.751c-0.591-1.143-1.172-2.275-1.75-3.405l-0.722-1.408
		c-1.636-3.212-3.224-6.384-4.719-9.427l-0.563-1.156c-0.557-1.14-1.111-2.277-1.653-3.402l-0.738-1.542
		c-0.471-0.987-0.939-1.969-1.397-2.941l-0.771-1.646c-0.435-0.931-0.865-1.857-1.287-2.776c-0.255-0.553-0.508-1.107-0.759-1.658
		c-0.411-0.902-0.817-1.801-1.218-2.695l-0.723-1.617c-0.405-0.912-0.8-1.815-1.192-2.714l-0.648-1.49
		c-0.423-0.98-0.833-1.948-1.24-2.914l-0.508-1.199c-0.554-1.327-1.096-2.641-1.62-3.939c-0.015-0.034-0.029-0.067-0.044-0.101
		c-0.526-1.186-1.038-2.371-1.538-3.549c-0.119-0.281-0.238-0.561-0.356-0.84c-0.333-0.792-0.651-1.573-0.97-2.356
		c-0.238-0.584-0.479-1.17-0.71-1.75c-0.275-0.692-0.535-1.371-0.799-2.055c-0.225-0.583-0.455-1.17-0.672-1.747
		c-0.274-0.731-0.533-1.451-0.794-2.173c-0.188-0.518-0.383-1.042-0.564-1.556c-0.363-1.031-0.708-2.049-1.044-3.061
		c-0.061-0.183-0.128-0.37-0.188-0.552c-0.082-0.25-0.157-0.495-0.238-0.743c-0.238-0.734-0.469-1.466-0.694-2.195
		c-0.163-0.531-0.322-1.059-0.478-1.584c-0.111-0.373-0.218-0.743-0.325-1.112c-3.268-11.347-4.706-21.378-4.282-29.841
		c-0.028,0.046-0.057,0.096-0.085,0.143c-3.647,6.05-7.781,14.402-12.173,26.083c-12.118,32.226-13.275,70.276-12.929,99.826
		c0.526,44.99,23.875,84.228,46.455,122.174c0.075,0.126,0.152,0.256,0.227,0.382c0.753,1.265,1.512,2.542,2.27,3.819
		c0.755,1.271,1.508,2.543,2.265,3.822c3.212,5.429,6.428,10.919,9.504,16.368c11.055,19.581,22.818,39.344,34.193,58.456
		c2.114,3.552,4.241,7.128,6.371,10.715c0.76,1.279,1.52,2.559,2.28,3.841c0.76,1.281,1.519,2.563,2.28,3.848
		c9.712,16.404,19.459,33.091,28.704,49.767c7.467,13.469,13.986,25.797,19.93,37.685c0.108,0.208,0.242,0.465,0.378,0.721
		c1.226,2.299,2.428,4.574,3.605,6.825c7.883,15.062,15.938,31.543,24.624,50.387c3.589,7.785,7.361,16.138,11.534,25.534
		c1.023,2.304,3.978,9.142,6.418,14.803l43.343-100.831C355.319,496.635,342.145,468.128,337.48,458.18z"/>
</g>
<path class="st1" d="M234.356,107.444c20.801-6.609,35.918-26.094,35.918-49.052c0-28.378-23.086-51.467-51.467-51.467
	S167.34,30.011,167.34,58.392c0,22.959,15.117,42.443,35.918,49.052v29.364h31.098V107.444z M198.441,58.392
	c0-11.233,9.141-20.369,20.369-20.369s20.369,9.136,20.369,20.369c0,11.233-9.141,20.369-20.369,20.369
	S198.441,69.625,198.441,58.392z"/>
</svg>
