<?xml version="1.0" encoding="utf-8"?>
<!-- Generator: Adobe Illustrator 27.4.1, SVG Export Plug-In . SVG Version: 6.00 Build 0)  -->
<svg version="1.1" id="Layer_1" xmlns="http://www.w3.org/2000/svg" xmlns:xlink="http://www.w3.org/1999/xlink" x="0px" y="0px"
	 viewBox="0 0 200 200" style="enable-background:new 0 0 200 200;" xml:space="preserve">
<path d="M186.512,98.014c1.192-4.684,1.14-9.724-1.235-14.096c-1.079-1.985-2.222-2.54-2.396-5.025
	c-0.224-3.194-0.826-6.234-2.181-9.153c-0.875-1.885-2.215-3.819-3.489-5.467c-1.136-1.471-2.918-1.106-3.49-2.951
	c-1.419-4.578-2.349-8.93-6.322-12.23c-1.728-1.435-4.228-3.059-6.421-3.609c-2.35-0.59-1.988-2.909-3.391-4.675
	c-3.456-4.35-9.191-7.592-14.708-8.274c-2.627-0.325-2.947-0.658-4.584-2.935c-1.42-1.976-4.001-3.139-6.229-3.918
	c-3.041-1.063-6.208-0.669-9.227-1.515c-1.118-0.313-2.177,0.293-3.317,0.009c-1.516-0.378-2.78-1.466-4.345-1.686
	c-3.079-0.433-5.811-1.365-8.973-1.196c-2.454,0.131-5.103,1.455-7.497,1.278c-5.706-0.423-11.995-2.709-17.544,0.399
	c-2.447,1.371-3.609,1.089-6.261,1.33c-1.395,0.127-2.707-0.236-4.101,0.081c-1.478,0.336-2.859,1.056-4.386,1.189
	c-2.284,0.199-4.722,2.338-6.33,3.836c-0.959,0.893-1.411,1.821-2.19,2.83c-0.798,1.032-2.321,0.302-3.452,0.463
	c-5.303,0.757-8.997,3.406-12.68,6.895c-1.62,1.535-1.752,3.331-2.92,5.105c-1.114,1.692-5.591,2.47-7.349,3.896
	c-4.588,3.72-5.882,7.889-7.445,13.312c-0.388,1.347-3.793,3.17-4.76,4.472c-1.587,2.137-2.896,5.555-3.63,8.068
	c-0.556,1.904-0.58,3.569-0.618,5.522c-0.042,2.13-1.595,2.751-2.521,4.516c-1.064,2.027-1.55,4.779-1.656,7.047
	c-0.127,2.706,1.163,5.298,0.707,7.925c-0.321,1.852-0.739,3.762-0.337,5.64c0.491,2.29,1.516,3.402,1.216,5.932
	c-0.213,1.794,0.839,4.484,2.108,5.776c1.618,1.648,1.573,3.658,2.163,5.701c1.151,3.986,4.715,6.339,7.862,8.667
	c3.273,2.422,8.28,3.523,11.139,6.38c1.553,1.552,3.788,2.023,5.424,3.45c1.135,0.99,3.332,2.4,4.691,3.055
	c3.955,1.907,8.009,5.166,11.361,8.022c-0.867,0.5-4.541-1.799-5.436-2.182c-1.141-0.488-4.413-2.582-5.712-2.308
	c0.557-0.118,4.38,14.999,5.005,16.546c1.277,3.16,2.174,6.513,4.044,9.395c1.765,2.721,2.558,2.821,5.833,3.096
	c2.831,0.238,5.851-1.168,8.434-2.098c2.463-0.887,5.198-1.212,7.479-2.383c0.189-0.097,2.09-0.414,2.295-0.761
	c0.442-0.746-1.97-3.045-2.35-3.502c-2.112-2.543-4.522-4.846-7.205-6.781c2.024,0.363,3.611,2.247,5.295,3.332
	c2.596,1.673,5.033,4.082,7.242,6.247c4.309,4.22,9.702,6.911,15.897,6.97c5.264,0.051,13.279-1.1,16.798-5.6
	c1.786-2.284,4.306-4.675,6.749-6.244c2.115-1.358,4.432-4.601,6.974-5.042c-2.638,1.902-4.148,4.904-6.743,6.82
	c-1.06,0.783-1.632,2.271-2.542,3.242c-0.852,0.909,1.997,1.584,2.209,1.652c3.689,1.171,7.453,2,11.093,3.3
	c3.126,1.117,8.265,1.924,10.109-1.588c3.465-6.604,5.998-14.058,8.051-21.183c0.616-2.136,3.057-6.852-0.941-4.705
	c-1.237,0.664-7.773,4.417-8.808,3.811c10.402-8.861,23.064-15.289,34.767-22.193c5.2-3.294,5.535-9.394,8.482-14.212
	c1.665-2.722,1.639-6.118,1.943-9.323c0.274-2.884,1.623-5.675,0.448-8.537C186.655,97.962,186.612,98.833,186.512,98.014
	C186.726,97.174,186.637,99.033,186.512,98.014z M63.261,153.684c-7.375-6.079-15.062-11.936-22.692-17.824
	c-3.261-2.516-6.499-5.258-9.839-7.62c-1.718-1.216-3.645-1.957-5.343-3.292c-0.505-0.397-4.229-3.442-4.496-3.364
	c4.15,2.187,8.416,4.743,12.158,7.622c2.156,1.659,4.692,3.036,6.937,4.617c2.213,1.534,3.987,3.306,6.054,4.902
	c4.625,3.569,9.161,7.137,13.502,11.027c1.861,1.667,3.653,3.188,5.609,4.721c0.616,0.482,0.004,1.379-0.564,0.919
	c-0.579-0.469-0.787-1.275-1.356-1.734c0.155,0.125,0.309,0.251,0.463,0.377C63.55,153.917,63.406,153.8,63.261,153.684
	C62.49,153.048,64.443,154.642,63.261,153.684z M67.761,155.768c-3.582-3.703-7.185-7.6-11.174-11.039
	c-4.368-3.766-9.524-7.902-13.137-12.391c-1.643-2.041-4.38-2.959-6.253-4.828c-1.964-1.96-4.242-3.542-6.259-5.448
	c-2.221-2.1-5.001-3.785-7.519-5.507c-0.776-0.531-6.287-4.02-6.349-4.723c0.067,0.748,4.961,2.582,5.449,2.907
	c2.736,1.823,4.858,4.318,7.987,5.646c2.641,1.121,5.815,4.419,8.088,6.248c2.75,2.213,5.084,4.544,7.659,6.862
	c5.554,5,10.753,10,15.991,15.352c2.371,2.423,4.307,5.817,7.135,7.687c0.849,0.562,0.688,2.149-0.178,1.532
	c-0.767-0.547-0.813-1.67-1.448-2.309c0.164,0.165,0.329,0.336,0.492,0.502C68.083,156.094,67.922,155.931,67.761,155.768
	C67.355,155.348,69.11,157.137,67.761,155.768z M69.805,155.264c-4.349-5.341-8.871-10.547-13.684-15.588
	c-2.493-2.611-4.63-6.049-7.46-8.281c-1.073-0.847-1.722-2.258-2.709-3.237c-1.166-1.157-2.573-1.958-3.722-3.206
	c-4.208-4.567-9.32-8.295-13.393-12.948c-2.108-2.408-5.177-4.855-7.767-6.746c-1.246-0.909-2.588-1.692-3.481-2.989
	c0.112,0.163-1.886-1.863-1.81-1.18c0.1,0.904,5.394,3.521,6.255,4.296c2.905,2.615,6.324,4.729,9.391,7.158
	c5.524,4.375,10.542,9.765,15.604,14.732c5.212,5.114,9.297,11.021,14.225,16.296c2.457,2.63,5.687,5.983,7.209,9.251
	c0.314,0.674,4.525,4.846,3.191,5.124C71.805,157.916,69.961,155.452,69.805,155.264C69.527,154.923,70.16,155.692,69.805,155.264
	C69.385,154.75,70.229,155.776,69.805,155.264z M73.811,157.098c-8.837-11.861-16.9-25.084-26.721-36.205
	c-5.039-5.706-9.727-12.015-14.479-17.933c-2.316-2.885-4.604-6.025-7.042-8.783c-1.257-1.422-2.35-3.071-3.957-4.138
	c-0.71-0.472-3.159-2.733-3.409-3.445c0.192-0.39,13.039,12.283,14.617,13.938c5.261,5.518,11.904,11.674,15.784,18.291
	c1.812,3.091,4.178,6.296,6.445,9.086c1.214,1.494,2.217,3.165,3.492,4.605c1.32,1.491,3.412,4.204,4.164,6.036
	c1.503,3.656,4.522,6.789,6.457,10.244c0.448,0.8,5.4,9.027,5.324,9.13C74.226,158.275,73.44,156.605,73.811,157.098
	C73.336,156.459,74.214,157.633,73.811,157.098z M76.754,158.047c-3.778-7.764-7.996-15.494-11.761-23.363
	c-1.751-3.658-3.426-9.199-6.273-12.097c-1.64-1.669-2.698-4.387-3.613-6.511c-0.965-2.24-2.626-4.079-3.532-6.351
	c-1.437-3.607-4.202-6.895-6.121-10.279c-2.101-3.706-4.16-7.51-6.757-10.902c-1.42-1.855-1.783-3.932-2.953-5.891
	c-1.062-1.777-2.977-3.342-3.832-5.173c-0.966-2.068-2.261-3.763-3.465-5.707c-0.478-0.772-2.166-2.066-1.98-3.076
	c-0.011,0.06,1.975,2.159,1.988,2.176c1.329,1.601,2.057,3.506,3.343,5.138c2.774,3.522,5.386,6.937,7.905,10.637
	c2.583,3.795,4.913,8.061,7.789,11.632c3.061,3.801,4.776,8.777,7.46,12.87c5.217,7.958,9.323,16.951,13.306,25.588
	c1.737,3.776,4.206,8.293,5.194,12.291c0.266,1.077,4.682,9.586,3.947,10.154C76.921,159.553,76.584,157.699,76.754,158.047
	C76.407,157.332,77.09,158.73,76.754,158.047z M79.888,155.17c-3.238-9.309-6.628-18.708-10.32-27.932
	c-3.545-8.856-6.556-17.793-10.297-26.604c-3.477-8.19-6.344-16.585-9.501-24.85c-1.555-4.071-3.328-7.968-4.947-12.019
	c-0.767-1.918-1.644-3.81-2.371-5.741c-0.496-1.317-0.986-5.091-1.84-6.035c0.028,0.487,0.086,0.972,0.172,1.452
	c0.544,1.118,1.226,2.247,1.826,3.34c1.019,1.854,1.821,3.626,2.679,5.551c2.103,4.717,4.379,9.389,6.591,14.063
	c1.923,4.064,2.804,8.761,5.056,12.652c2.346,4.054,4.414,9.313,5.738,13.78c1.381,4.661,3.415,9.188,5.016,13.785
	c0.8,2.298,1.83,4.531,2.7,6.805c0.736,1.923,2.115,4.69,2.395,6.705c0.281,2.024,8.248,25.899,7.481,26.109
	c-0.53,0.145-0.313-0.881-0.386-1.088C80.003,155.497,80.005,155.505,79.888,155.17C79.609,154.368,80.159,155.943,79.888,155.17z
	 M84.329,149.394c-5.677-20.186-10.44-40.713-15.546-61.126c-0.657-2.628-0.969-5.318-1.722-7.923
	c-0.783-2.709-2.285-6.137-2.252-8.966c0.028-2.471-0.464-4.99-1.295-7.313c-0.918-2.568-0.843-5.179-1.623-7.773
	c-1.48-4.919-2.228-9.847-2.936-14.872c0.053,0.375-1.397-4.017-0.051-2.26c0.28,0.365,0.071,2.572,0.215,3.066
	c0.365,1.252,0.934,2.432,1.284,3.69c5.784,20.787,11.449,41.855,15.477,63.049c0.843,4.437,2.877,8.915,3.255,13.376
	c0.376,4.437,1.783,9.618,2.966,13.933c1.323,4.826,1.445,9.995,2.877,14.816c0.21,0.709,1.941,3.014,0.518,3.115
	c-0.683,0.049-1.015-4.296-1.207-4.958C84.319,149.35,84.548,150.156,84.329,149.394C84.096,148.565,84.6,150.339,84.329,149.394z
	 M91.382,151.336c-0.798-4.89-1.559-9.806-2.338-14.749c-0.898-5.698-1.165-11.685-2.418-17.294
	c-0.501-2.242-0.732-5.095-1.023-7.398c-0.379-2.995-0.602-6.009-0.96-9.008c-0.621-5.198-1.695-10.659-1.731-15.898
	c-0.033-4.715-1.143-9.328-1.566-14.021c-0.421-4.667-0.487-9.511-0.813-14.186c-0.313-4.487-2.331-10.188-1.373-14.614
	c0.359-1.657-1.737-11.795-0.962-12.205c0.198-0.105,2.109,11.45,2.312,12.816c0.794,5.358,1.301,10.723,2.133,16.084
	c1.629,10.503,2.398,21.015,3.578,31.61c0.588,5.277,1.364,10.493,2.188,15.71c0.766,4.849,0.057,10.073,0.88,14.844
	c0.45,2.605,0.395,5.12,0.695,7.723c0.268,2.323,1.151,5.578,0.799,7.884c-0.387,2.54,0.446,5.367,0.411,7.957
	c-0.006,0.413,0.533,6.197,0.62,6.138c-0.779,0.538-0.395-1.177-0.436-1.422C91.446,151.708,91.447,151.717,91.382,151.336
	C91.234,150.428,91.531,152.215,91.382,151.336z M100.797,102.181c-0.04,9.358,0.024,18.882-0.478,28.293
	c-0.203,3.803-0.869,7.785-0.593,11.565c0.184,2.513-0.192,4.893-0.373,7.39c0.015-0.203,0.028,4.097-0.444,3.37
	c-0.356-0.55,0.194-3.328,0.03-4.193c-0.49-2.575-0.922-5.749-0.613-8.352c0.649-5.472-0.727-11.306-0.394-16.867
	c0.299-4.988-0.3-10.197-0.544-15.182c-0.274-5.575-0.224-11.112,0.035-16.637c0.254-5.41,0.068-10.971-0.007-16.396
	c-0.075-5.457,0.587-10.871,0.567-16.283c-0.021-5.456-0.049-10.905,0.047-16.332c0.051-2.897,0.524-6.114,0.833-9.027
	c0.076-0.712-0.275-5.071,0.44-4.83c-0.256-0.086,0.244,6.713,0.271,7.191c0.177,3.139-0.019,6.476,0.595,9.527
	c1.149,5.707,0.177,12.42,0.309,18.189C100.767,76.258,100.849,90.571,100.797,102.181C100.793,103.26,100.8,101.54,100.797,102.181
	z M110.72,124.776c-0.621,4.825-1.367,9.618-2.006,14.487c-0.406,3.099-0.618,6.23-1.248,9.296c-0.09,0.44-1.009,4.452-1.108,4.154
	c-0.378-1.132,0.37-3.805,0.565-4.99c0.382-2.326-0.262-4.607,0.136-6.944c0.94-5.518,1.266-11.239,1.509-16.825
	c0.235-5.4,0.966-10.801,1.306-16.218c0.148-2.362,0.927-4.59,1.178-6.958c0.32-3.031,0.336-5.935,0.832-8.921
	c0.925-5.567,0.139-11.591,1.906-16.997c1.494-4.569,1.364-10.662,1.903-15.489c0.271-2.425,3.58-27.52,4.05-27.471
	c0.22,0.023-2.82,40.509-3.176,44.329C115.071,92.222,112.682,109.902,110.72,124.776
	C110.602,125.689,110.808,124.105,110.72,124.776z M113.857,149.394c-0.118,0.413-1.144,5.168-1.08,5.141
	c-1.617,0.69,0.428-3.43,0.474-3.648c1.119-5.283,1.687-10.671,2.83-15.944c0.583-2.689,1.415-5.316,1.984-8.007
	c0.56-2.65,2.056-5.913,1.831-8.62c-0.399-4.793,2.853-10.261,3.649-14.973c1.73-10.234,5.159-20.012,7.386-30.068
	c1.055-4.767,2.215-9.467,3.315-14.269c1.304-5.692,3.65-11.03,4.758-16.775c0.028-0.147,0.169-4.907,1.319-3.313
	c0.26,0.361-1.492,5.436-1.553,6.303c-0.364,5.155-1.878,11.163-3.357,16.09c-1.543,5.141-2.689,10.591-3.429,15.922
	c-0.784,5.648-2.838,11.317-4.092,16.924c-4.183,18.705-9.537,36.943-14.122,55.541
	C113.781,149.651,113.981,148.953,113.857,149.394C113.621,150.218,114.043,148.735,113.857,149.394z M119.462,151.823
	c-0.307,0.884-0.92,1.615-0.888,2.603c0.012,0.381-0.724,2.452-0.832,1.816c-0.127-0.749,1.07-2.637,1.135-3.624
	c0.161-2.452,1.17-4.893,1.729-7.276c1.244-5.306,3.445-10.305,4.854-15.557c0.6-2.239,2.101-3.973,2.303-6.377
	c0.184-2.176,1.348-4.159,2.278-6.082c2.186-4.521,3.758-9.591,5.359-14.359c1.569-4.672,3.583-9.503,5.528-14.051
	c0.785-1.835,1.971-3.465,2.774-5.329c1.097-2.547,1.665-5.104,3.104-7.474c2.543-4.189,3.524-9.356,5.768-13.736
	c1.009-1.969,2.121-3.819,3.092-5.836c0.101-0.213,2.361-4.241,2.243-4.478c0.264,0.53-1.352,3.105-1.546,3.635
	c-0.859,2.35-1.709,4.698-2.581,7.05c-1.489,4.021-2.699,8.735-4.764,12.479c-2.39,4.334-3.547,9.132-5.349,13.718
	c-1.643,4.179-3.433,8.233-4.984,12.476C132.495,118.359,125.311,134.785,119.462,151.823
	C119.306,152.273,119.673,151.209,119.462,151.823C119.137,152.76,119.71,151.102,119.462,151.823z M121.432,158.047
	c-0.047,0.299-0.122,0.591-0.226,0.875c-0.794,0.706,0.937-2.711,0.897-2.637c1.02-1.906,1.386-3.98,2.104-5.992
	c1.72-4.821,3.68-9.515,5.93-14.111c4.199-8.573,8.516-16.91,13.22-25.244c2.499-4.427,4.907-8.724,7.843-12.89
	c2.624-3.723,4.138-7.905,7.344-11.21c2.662-2.744,4.741-6.724,6.915-9.861c0.506-0.73,6.552-7.731,6.372-8.224
	c0.304,0.835-1.423,2.373-1.967,2.832c-1.591,1.343-2.177,3.416-3.346,5.069c-2.544,3.595-4.511,7.666-6.972,11.344
	c-5.275,7.882-10.066,16.356-14.596,24.682C136.888,127.497,128.422,143.681,121.432,158.047
	C121.252,158.413,121.622,157.655,121.432,158.047z M124.375,157.098c-0.092,0.246-0.191,0.49-0.295,0.732
	c-1.168,0.18,1.117-2.419,0.95-2.206c1.188-1.514,2.311-3.324,3.135-5.06c1.971-4.152,4.532-8.378,7.233-12.091
	c4.673-6.423,8.961-12.886,13.849-19.147c5.121-6.56,10.983-12.497,16.116-18.994c2.53-3.203,6.06-5.239,8.515-8.534
	c1.723-2.312,4.325-3.29,6.023-5.634c-0.74,0.126-3.987,4.79-4.808,5.78c-2.495,3.009-5.354,5.541-7.738,8.674
	c-4.787,6.291-9.751,13.021-15.083,18.842c-5.171,5.645-8.827,12.437-13.637,18.329
	C133.594,143.963,129.165,150.669,124.375,157.098C124.057,157.521,124.692,156.673,124.375,157.098
	C124.378,157.094,124.776,156.56,124.375,157.098z M176.782,122.045c-8.018,5.411-15.62,11.556-23.636,17.13
	c-3.708,2.578-8.488,5.54-11.314,9.045c-1.271,1.576-3.254,2.645-4.82,3.901c-0.661,0.53-3.568,4.001-4.18,3
	c0.072,0.117,8.247-7.689,9.108-8.409c3.757-3.14,7.464-6.282,11.256-9.395c1.991-1.635,4.306-2.67,6.392-4.152
	c2.213-1.572,4.27-3.557,6.516-5.03c1.639-1.067,3.497-2.014,5.184-3.024c1.62-0.97,5.01-2.281,6.157-3.495
	C177.245,121.826,176.57,122.185,176.782,122.045C176.083,122.517,177.121,121.82,176.782,122.045z M180.372,112.358
	c-4.338,3.062-8.7,6.004-12.732,9.621c-4.846,4.347-10.875,7.849-15.337,12.522c-4.665,4.885-10.084,8.96-14.676,13.923
	c-2.157,2.331-4.715,4.375-6.724,6.826c-0.511,0.624-1.215,2.605-2.021,2.856c-1.339,0.418-0.668-1.109-0.046-1.46
	c1.833-1.036,2.831-3.315,4.435-4.711c2.257-1.965,3.691-5.109,5.99-6.864c4.715-3.598,7.957-8.994,13.021-12.221
	c5.204-3.316,9.345-8.323,14.458-11.862c2.591-1.793,5.472-3.377,7.863-5.426c1.862-1.596,4.63-2.187,6.537-3.682
	C179.829,112.907,180.527,112.251,180.372,112.358C179.694,112.836,180.796,112.067,180.372,112.358z M181.495,101.513
	c-5.439,4.488-10.572,9.271-15.779,14.122c-2.252,2.098-5.139,4.044-7.011,6.494c-0.827,1.082-2.192,1.603-3.082,2.688
	c-1.097,1.338-2.041,2.723-3.356,3.869c-5.332,4.65-9.474,10.42-14.527,15.341c-2.406,2.343-4.397,5.353-6.443,8.016
	c-0.914,1.19-1.883,2.002-3.012,2.964c-0.433,0.369-1.552,2.682-1.778,2.75c-1.09,0.326,0.978-1.634,0.938-1.522
	c0.531-1.465,1.741-2.479,2.693-3.656c2.539-3.138,4.586-6.735,7.089-9.929c2.2-2.807,4.958-4.985,7.122-7.789
	c2.336-3.025,4.969-5.991,7.668-8.691c4.742-4.744,10.078-8.691,14.895-13.24c2.324-2.195,4.687-4.373,7.201-6.354
	c1.295-0.976,2.525-1.61,3.692-2.779c1.327-1.328,3.293-1.509,4.562-2.823C181.274,102.107,181.565,101.456,181.495,101.513
	C180.838,102.055,181.952,101.145,181.495,101.513z"/>
</svg>
