<?xml version="1.0" encoding="utf-8"?>
<!-- Generator: Adobe Illustrator 27.4.1, SVG Export Plug-In . SVG Version: 6.00 Build 0)  -->
<svg version="1.1" id="Layer_1" xmlns="http://www.w3.org/2000/svg" xmlns:xlink="http://www.w3.org/1999/xlink" x="0px" y="0px"
	 viewBox="0 0 200 200" style="enable-background:new 0 0 200 200;" xml:space="preserve">
<g>
	<path d="M151.242,102.547c-2.795-4.377-3.39-10.015-2.132-14.938c0.566-2.215-1.663-3.022-3.097-4.438
		c-1.421-1.404-2.832-3.759-3.578-5.573c-0.421-1.025-1.013-5.329-3.092-4.313c-2.224,1.086-5.073,2.438-7.009,3.96
		c-4.7,3.697-9.513,7.084-14.066,10.953c0.178-1.723,0.466-3.726,1.01-5.373c1.352-0.182,4.615-0.45,5.397-1.762
		c0.789-1.323-0.049-3.261-0.119-4.714c-0.138-2.866,0.164-2.867,2.136-5.14c0.547-0.671,1.076-1.357,1.586-2.057
		c1.163-1.501,2.471-0.964,4.255-1.376c1.615-0.373,2.8-0.092,3.667-1.869c0.6-1.231,0.481-4.649,0.056-5.807
		c1.18-1.775,2.351-4.333,3.047-6.377c3.106-0.706,7.236-4.82,4.482-7.827c-1.146-1.251-1.928-3.027-3.625-3.675
		c-0.457-0.174-1.016-4.695-1.184-5.201c-0.607-1.817,5.205-7.427,0.629-8.696c-1.774-0.492-3.937-1.913-5.821-1.523
		c-1.186-1.515-2.781-3.529-4.226-4.768c0.792-3.78-0.552-6.738-4.042-7.272c-1.834-0.281-4.798-0.156-5.939,1.493
		c-0.691-0.241-5.271-1.174-5.271-1.279c-0.003-2.684-5.12-8.5-8.175-7.099c-1.789,0.82-4.137,2.934-5.311,4.484
		c-1.537,2.029-2.394-0.074-4.844,0.794c-1.868,0.662-1.555,2.626-3.539,3.523c-2.228,1.008-3.982,2.848-5.967,4.25
		c-1.686,1.191-2.618,3.218-4.09,4.659c-2.006,1.965-3.837,4.165-5.586,6.357c-6.403,8.024-12.579,15.588-21.306,21.433
		c0.679-6.117-9.245-5.908-8.52,0.328c0.622,5.349,11.695,5.68,15.399,5.188c3.102-0.412,7.042-0.104,10.192,0.069
		c3.891,0.214,7.997,0.122,11.881-0.187c6.55-0.521,14.432-1.117,20.428-4.011c-8.525,8.019-19.67,14.083-24.8,25.162
		c-2.546,5.498-3.686,11.106-3.719,17.091c-0.01,1.939,0.453,4.107,0.655,6.46c1.016,11.849,9.053,22.272,18.002,29.406
		c4.943,3.941,10.193,6.966,15.522,10.338c2.469,1.562,5.345,3.92,7.099,6.26c0.622,0.83,3.305,5.556,2.773,6.473
		c-0.003-0.228,0.172,3.406,0.024-0.508c0.092,3.254,0.85,7.749-0.344,11.222c-2.128,6.767-9.501,9.844-15.839,10.631
		c-6.714,0.834-13.28-2.517-16.974-7.968c-3.082-4.548-2.406-12.73,1.38-16.699c-0.449,4.676,3.979,8.751,8.729,7.822
		c5.1-0.997,8.601-9.282,3.584-12.675c-6.744-4.561-16.871-0.521-19.87,6.601c-4.347,10.324-2.766,21.922,6.367,29.033
		c8.213,6.567,20.604,8.585,30.665,5.878c5.157-1.388,9.377-3.84,13.473-7.293c2.03-1.712,3.804-4.005,5.213-6.25
		c1.05-1.676,2.299-6.633,4.12-7.281c1.601-0.569,1.321-2.581,0.83-3.827c-0.842-2.136,0.824-4.966,0.599-7.384
		c-0.145-1.562,0.245-3.854,1.275-4.925c2.891-3.006-1.238-5.829-1.843-8.684c-0.443-2.394-2.293-6.184-1.185-8.302
		c1.573-3.01,0.097-3.383-1.903-4.889c-2.077-1.564-3.512-3.29-4.551-5.717c-0.649-1.514-1.658-2.636-2.551-3.994
		c0.26-1.09,0.777-2.204,0.547-3.353c-0.42-2.102-1.067-2.222-2.738-3.036c-1.902-0.927-2.555-0.343-3.951-2.115
		c-1.036-1.315-1.618-2.758-2.515-4.147c6.899,4.356,14.505,8.415,22.165,11.23c2.639,0.971,2.202-7.116,2.692-8.767
		C148.319,108.821,152.074,103.85,151.242,102.547C150.63,101.587,151.587,103.087,151.242,102.547z M90.348,36.711
		c-3.887,0.005-2.097-3.858,0.02-4.924C93.175,30.372,94.52,36.707,90.348,36.711C88.891,36.712,91.806,36.709,90.348,36.711z"/>
</g>
</svg>
