<?xml version="1.0" encoding="utf-8"?>
<!-- Generator: Adobe Illustrator 27.4.1, SVG Export Plug-In . SVG Version: 6.00 Build 0)  -->
<svg version="1.1" id="Layer_1" xmlns="http://www.w3.org/2000/svg" xmlns:xlink="http://www.w3.org/1999/xlink" x="0px" y="0px"
	 viewBox="0 0 200 200" style="enable-background:new 0 0 200 200;" xml:space="preserve">
<path d="M72.262,102.577c0.783-12.595,6.363-24.143,15.717-32.583c8.298-7.488,19.401-10.616,30.481-9.139
	c35.416,4.721,41.35,41.013,21.028,57.614c-3.152,2.575-6.928,4.424-10.928,5.177c-9.452,1.779-18.533-1.425-24.557-8.248
	c-3.745-4.239-5.611-9.683-5.259-15.325c0.353-5.644,2.883-10.814,7.121-14.557c1.088-0.955,2.758-0.844,3.699,0.233
	c0.96,1.085,0.857,2.742-0.228,3.702c-3.193,2.813-5.097,6.701-5.359,10.947c-0.263,4.248,1.141,8.343,3.954,11.531
	c3.635,4.123,8.661,6.573,14.137,6.916c13.132,0.822,25.149-10.735,22.632-30.056c-0.586-4.497-2.418-8.859-5.42-12.258
	c-12.279-13.904-33.546-15.221-47.434-2.957C81.322,82.857,76.03,96.503,77.718,110.93c1.071,9.152,5.261,17.484,11.581,24.189
	c11.233,11.916,27.077,18.104,43.929,16.76c12.321-0.983,23.975-6.538,32.934-15.053c26.398-25.09,28.419-66.922,4.123-94.452
	c-15.784-17.876-37.811-28.252-61.755-28.995c-23.862-0.741-55.813,15.098-71.061,33.468c-33.22,40.024-33.418,99.45,1.757,139.802
	c24.701-8.039,39.76-22.713,39.369-57.099C73.888,121.448,71.667,112.141,72.262,102.577z"/>
</svg>
