<?xml version="1.0" encoding="utf-8"?>
<!-- Generator: Adobe Illustrator 27.5.0, SVG Export Plug-In . SVG Version: 6.00 Build 0)  -->
<svg version="1.1" id="Layer_1" xmlns="http://www.w3.org/2000/svg" xmlns:xlink="http://www.w3.org/1999/xlink" x="0px" y="0px"
	 viewBox="0 0 600 600" style="enable-background:new 0 0 600 600;" xml:space="preserve">
<style type="text/css">
	.st0{opacity:.5;}
	.st1{fill:#FFFFFF;}
	.st2{opacity:.5;fill:#FFFFFF;}
</style>
<g class="st0">
	<path class="st1" d="M270.236,552.264c0.802,0,1.615-0.137,2.398-0.42c88.56-31.929,100.057-99.34,103.835-121.492
		c0.339-1.981,0.602-3.567,0.865-4.684c0.905-3.804-1.446-7.62-5.247-8.524c-3.827-0.907-7.626,1.447-8.524,5.251
		c-0.318,1.329-0.647,3.216-1.052,5.577c-3.187,18.689-12.416,72.81-78.297,103.787c4.871-11.58,10.529-27.304,12.136-40.939
		c3.129-26.535,10.208-33.44,20.924-43.891c1.221-1.19,2.475-2.413,3.757-3.698c2.766-2.765,2.766-7.247,0-10.011
		c-2.765-2.765-7.244-2.765-10.01,0c-1.241,1.241-2.455,2.423-3.633,3.575c-11.473,11.189-21.383,20.854-25.1,52.369
		c-2.606,22.136-18.189,52.465-18.344,52.769c-1.338,2.586-0.954,5.729,0.964,7.919
		C266.282,551.414,268.232,552.264,270.236,552.264z"/>
	<path class="st1" d="M85.733,472.074c-12.762,6.891-11.933,14.724-10.301,18.778c6.239,15.52,53.64,23.692,102.068,23.69
		c28.435,0,57.232-2.819,78.239-8.621c3.772-1.041,5.98-4.94,4.939-8.709c-1.04-3.767-4.942-5.99-8.707-4.938
		c-61.491,16.984-150.67,4.795-162.544-5.786c0.595-0.487,1.545-1.153,3.032-1.956c47.314-25.543,48.579-98.728,47.84-120.55
		c-0.07-2.067-1.04-4.001-2.658-5.292c-1.618-1.291-3.72-1.815-5.749-1.421c-45.465,8.702-65.127,35.381-73.523,46.772
		c-1.665,2.264-3.526,3.116-4.711,3.159c-0.553,0.021-1.449-0.093-2.52-1.348C33.834,385.658,23.91,355.775,23.91,323.87
		c0-19.66,3.8-38.848,10.989-55.49c0.532-1.239,1.227-1.962,2.064-2.147c1.179-0.261,2.755,0.373,4.182,1.636l1.638,1.459
		c15.842,14.106,39.783,35.424,69.276,38.775c3.809,0.444,7.39-2.347,7.832-6.236c0.443-3.884-2.351-7.39-6.235-7.832
		c-25.027-2.844-46.952-22.363-61.457-35.281l-1.652-1.47c-4.912-4.361-10.999-6.139-16.657-4.872
		c-5.289,1.177-9.662,4.953-11.992,10.358c-7.947,18.396-12.146,39.525-12.146,61.1c0,35.234,11.165,68.473,30.636,91.195
		c3.637,4.247,8.487,6.471,13.789,6.286c5.897-0.216,11.58-3.464,15.593-8.909c7.459-10.121,22.399-30.394,56.489-39.385
		C126.075,398.959,121.229,452.909,85.733,472.074z"/>
	<path class="st1" d="M490.44,385.765c-4.694,0.532-9.057,0.961-13.143,1.36c-32.755,3.213-50.803,4.983-77.785,45.117
		c-2.72,4.047-7.276,7.929-11.335,11.251c-3.024,2.476-3.47,6.938-0.996,9.962c1.4,1.711,3.433,2.596,5.483,2.596
		c1.576,0,3.166-0.524,4.48-1.601c4.843-3.963,10.325-8.664,14.121-14.311c23.256-34.593,36.184-35.861,67.415-38.924
		c4.151-0.406,8.586-0.841,13.357-1.383c9.73-1.104,16.878-9.634,17-20.282c0.121-10.896-7.132-19.504-17.636-20.937
		c-36.91-5.035-47.961-7.496-53.298-29.551c-12.386-123.505-179.349-189.237-258.386-201.728
		c-56.102-8.859-97.606-2.815-134.102,5.042c-3.415,0.734-5.782,3.849-5.575,7.337c0.203,3.486,2.92,6.301,6.398,6.632
		c3.117,0.296,76.464,8.192,84.46,91.386c2.592,26.917,3.053,67.444,1.027,90.34c-0.345,3.894,2.534,7.332,6.426,7.675
		c3.982,0.365,7.335-2.533,7.677-6.427c2.092-23.615,1.625-65.309-1.033-92.945c-5.604-58.257-40.779-84.211-67.223-95.579
		c28.162-4.234,60.202-5.721,99.732,0.526c75.614,11.948,235.368,74.016,246.557,189.6c0.027,0.316,0.079,0.63,0.156,0.942
		c7.763,32.937,29.409,35.889,65.269,40.779c4.929,0.673,5.413,4.945,5.392,6.749C494.853,381.574,493.889,385.374,490.44,385.765z"
		/>
	<path class="st1" d="M380.01,344.328v-7.638c0-3.909-3.17-7.079-7.08-7.079c-3.909,0-7.08,3.17-7.08,7.079v7.638
		c0,3.909,3.17,7.08,7.08,7.08C376.84,351.408,380.01,348.237,380.01,344.328z"/>
	<path class="st1" d="M206.52,465.064c0.857,0.342,1.742,0.503,2.609,0.503c2.818,0,5.479-1.692,6.582-4.466
		c12.918-32.508,20.032-74.726,20.032-118.877c0-78.389-22.186-146.542-55.204-169.593c-3.207-2.235-7.618-1.453-9.855,1.753
		c-2.24,3.206-1.455,7.62,1.752,9.859c28.936,20.201,49.147,85.165,49.147,157.982c0,42.403-6.757,82.763-19.029,113.647
		C201.11,459.506,202.886,463.621,206.52,465.064z"/>
	<path class="st1" d="M286.755,343.542c0,22.468-2.312,44.409-6.692,63.45c-0.875,3.811,1.504,7.61,5.313,8.486
		c0.536,0.122,1.068,0.181,1.594,0.181c3.225,0,6.139-2.218,6.892-5.495c4.615-20.066,7.052-43.104,7.052-66.624
		c0-49.403-10.615-93.992-27.701-116.369c-2.372-3.106-6.813-3.707-9.924-1.329c-3.108,2.373-3.702,6.815-1.33,9.923
		C277.021,255.492,286.755,297.796,286.755,343.542z"/>
</g>
<circle class="st2" cx="538.354" cy="320.024" r="20.485"/>
<circle class="st2" cx="538.354" cy="252.012" r="8.388"/>
<circle class="st2" cx="454.813" cy="85.909" r="8.388"/>
<circle class="st2" cx="477.732" cy="220.706" r="31.307"/>
<circle class="st2" cx="551.076" cy="85.909" r="33.207"/>
</svg>
