<?xml version="1.0" encoding="utf-8"?>
<!-- Generator: Adobe Illustrator 27.4.1, SVG Export Plug-In . SVG Version: 6.00 Build 0)  -->
<svg version="1.1" id="Layer_1" xmlns="http://www.w3.org/2000/svg" xmlns:xlink="http://www.w3.org/1999/xlink" x="0px" y="0px"
	 viewBox="0 0 500 500" style="enable-background:new 0 0 500 500;" xml:space="preserve">
<style type="text/css">
	.st0{fill:url(#SVGID_1_);}
	.st1{fill:#EDEDED;}
	.st2{fill:none;stroke:#575756;stroke-width:5;stroke-linecap:round;stroke-miterlimit:10;}
	.st3{fill:none;stroke:#575756;stroke-width:3;stroke-miterlimit:10;}
	.st4{fill:none;stroke:#575756;stroke-width:2;stroke-linecap:round;stroke-miterlimit:10;}
	.st5{fill:#936037;}
	.st6{fill:#722026;}
	.st7{fill:#9E1922;}
	.st8{fill:#BE1622;}
	.st9{fill:#601922;}
	.st10{fill:#3DBFED;}
</style>
<linearGradient id="SVGID_1_" gradientUnits="userSpaceOnUse" x1="245.8812" y1="468.7212" x2="245.8812" y2="351.6007">
	<stop  offset="0" style="stop-color:#3DBFED;stop-opacity:0"/>
	<stop  offset="0.5423" style="stop-color:#3DBFED"/>
</linearGradient>
<ellipse class="st0" cx="245.881" cy="410.161" rx="211.076" ry="58.56"/>
<g>
	<polygon class="st1" points="240.121,69.021 382.569,306.227 240.121,305.227 	"/>
	<line class="st2" x1="240.121" y1="347.469" x2="240.121" y2="35.039"/>
	<line class="st3" x1="241.121" y1="306.572" x2="382.569" y2="307.572"/>
	<path class="st1" d="M240.121,88.848L75.465,331.089c55.328-4.172,106.744-10.367,130.172-31.034
		C201.94,237.162,216.156,165.415,240.121,88.848z"/>
	<line class="st4" x1="75.465" y1="331.09" x2="240.121" y2="88.848"/>
	<line class="st4" x1="240.121" y1="69.021" x2="396.884" y2="332.139"/>
	<path class="st5" d="M148.741,396.607c-45.69-21.839-70.115-43.678-73.276-65.517c114.598,9.314,238.647,9.077,332.931,0
		c6.897,21.839,6.897,43.678,0,65.517H148.741z"/>
	<g>
		<polygon class="st6" points="290.432,55.832 268.677,49.977 268.677,61.687 		"/>
		<polygon class="st7" points="271.639,47.001 257.098,43.088 257.098,62.625 271.639,58.712 		"/>
		<polygon class="st8" points="242.652,35.324 242.652,64.63 260.8,59.745 260.8,40.208 		"/>
		<polygon class="st6" points="260.8,59.745 257.098,62.625 257.098,60.742 		"/>
		<polygon class="st9" points="271.639,58.712 268.677,61.687 268.677,59.509 		"/>
	</g>
</g>
<path class="st10" d="M169.079,373.887c-18.99,6.632-30.534,14.322-37.085,22.72h44.853
	C165.822,391.576,163.232,384.003,169.079,373.887z"/>
<path class="st10" d="M227.222,373.887c-18.99,6.632-30.534,14.322-37.085,22.72h44.853
	C223.965,391.576,221.376,384.003,227.222,373.887z"/>
<path class="st10" d="M282.966,373.887c-18.99,6.632-30.534,14.322-37.085,22.72h44.853
	C279.708,391.576,277.119,384.003,282.966,373.887z"/>
<path class="st10" d="M343.064,373.887c-18.99,6.632-30.534,14.322-37.085,22.72h44.853
	C339.806,391.576,337.217,384.003,343.064,373.887z"/>
<path class="st10" d="M401.696,373.887c-18.99,6.632-30.534,14.322-37.085,22.72h44.853
	C398.439,391.576,395.849,384.003,401.696,373.887z"/>
</svg>
