<svg id="svg" version="1.1" xmlns="http://www.w3.org/2000/svg" xmlns:xlink="http://www.w3.org/1999/xlink" width="400" height="400" viewBox="0, 0, 400,400"><g id="svgg"><path id="path0" d="M197.880 26.033 C 194.647 27.392,191.315 36.085,190.217 46.021 C 189.861 49.242,189.771 49.527,189.113 49.527 C 182.687 49.527,156.399 61.433,149.569 67.436 L 148.191 68.647 147.592 72.415 C 147.262 74.487,146.960 76.953,146.919 77.893 L 146.845 79.604 150.372 81.038 C 154.923 82.890,154.975 83.585,151.479 95.852 C 150.755 98.391,146.533 103.467,145.137 103.475 C 144.535 103.478,144.438 103.553,144.768 103.762 C 145.193 104.031,142.531 107.490,141.029 108.620 C 140.758 108.824,138.636 111.013,136.314 113.486 C 133.992 115.958,131.890 117.981,131.643 117.981 C 131.395 117.981,131.272 118.108,131.368 118.264 C 131.464 118.420,130.992 119.214,130.318 120.029 C 128.585 122.126,128.423 124.746,129.219 137.786 L 129.398 140.714 134.967 144.356 C 138.030 146.359,140.689 148.193,140.875 148.431 C 141.129 148.756,141.671 146.957,143.045 141.230 C 145.178 132.334,144.683 133.333,149.425 128.363 C 151.480 126.210,155.953 121.378,159.365 117.627 C 163.329 113.269,165.861 110.732,166.377 110.603 C 166.821 110.491,174.383 108.486,183.182 106.146 C 191.982 103.807,199.620 101.893,200.158 101.893 C 201.795 101.893,234.483 110.702,235.053 111.297 C 235.334 111.590,238.300 114.861,241.644 118.567 C 244.988 122.272,249.377 127.031,251.397 129.144 L 255.070 132.984 255.666 135.656 C 256.432 139.095,258.918 148.934,259.049 149.044 C 259.131 149.113,270.657 140.804,271.122 140.340 C 271.203 140.258,271.711 135.927,272.248 130.716 L 273.227 121.240 272.497 120.104 C 272.095 119.478,271.605 118.923,271.407 118.868 C 271.209 118.814,268.937 116.486,266.359 113.696 C 258.053 104.704,256.768 103.213,257.179 103.047 C 257.395 102.960,257.267 102.878,256.896 102.864 C 256.274 102.841,254.918 101.474,249.261 95.168 C 248.440 94.254,247.970 93.463,248.078 93.180 C 248.177 92.923,248.133 92.789,247.981 92.883 C 247.751 93.025,246.277 87.460,245.555 83.722 L 245.366 82.744 249.260 81.136 C 252.727 79.704,253.148 79.448,253.093 78.802 C 253.059 78.402,252.952 77.082,252.856 75.868 C 252.378 69.832,252.153 69.067,250.371 67.401 C 243.940 61.387,226.748 53.496,211.472 49.544 L 210.168 49.207 209.948 46.764 C 209.110 37.492,205.715 27.961,202.592 26.116 C 201.588 25.523,199.194 25.481,197.880 26.033 M193.305 52.226 C 194.560 53.105,194.012 54.574,192.429 54.574 C 190.938 54.574,190.390 53.399,191.374 52.312 C 192.012 51.607,192.397 51.590,193.305 52.226 M208.538 52.062 C 209.802 52.738,209.095 54.574,207.571 54.574 C 206.563 54.574,205.994 54.045,205.994 53.107 C 205.994 51.967,207.333 51.416,208.538 52.062 M171.151 58.812 C 171.888 59.937,171.305 60.883,169.874 60.883 C 169.103 60.883,168.692 60.696,168.443 60.231 C 167.963 59.335,168.808 58.044,169.874 58.044 C 170.346 58.044,170.844 58.344,171.151 58.812 M231.368 58.652 C 232.582 59.994,230.743 61.779,229.193 60.763 C 228.266 60.156,228.172 59.440,228.913 58.621 C 229.591 57.872,230.674 57.886,231.368 58.652 M151.894 70.664 C 152.718 71.574,152.109 72.871,150.858 72.871 C 149.785 72.871,149.211 72.360,149.211 71.404 C 149.211 70.085,150.939 69.608,151.894 70.664 M250.410 70.410 C 251.354 71.354,250.615 72.871,249.211 72.871 C 248.264 72.871,247.634 72.351,247.634 71.568 C 247.634 70.327,249.534 69.534,250.410 70.410 M186.837 82.035 C 186.703 82.156,184.961 82.790,182.965 83.443 C 180.204 84.346,169.743 88.415,162.539 91.387 C 162.108 91.565,161.963 84.700,162.340 81.951 L 162.534 80.532 172.671 76.548 C 178.246 74.357,183.730 72.228,184.858 71.818 L 186.909 71.071 186.995 76.443 C 187.043 79.397,186.972 81.914,186.837 82.035 M218.124 72.876 C 220.388 73.730,225.718 75.820,229.968 77.521 L 237.697 80.614 237.783 86.048 C 237.831 89.037,237.821 91.483,237.762 91.483 C 237.702 91.483,233.802 89.939,229.094 88.053 C 224.387 86.167,218.829 84.073,216.744 83.400 L 212.953 82.177 212.943 76.544 C 212.935 71.366,212.977 70.927,213.471 71.117 C 213.766 71.230,215.860 72.021,218.124 72.876 M202.353 85.983 C 203.000 86.407,203.785 87.878,203.785 88.666 C 203.785 90.667,199.133 91.704,197.287 90.116 C 194.488 87.708,199.164 83.893,202.353 85.983 M158.651 97.978 C 159.850 98.987,159.940 100.374,158.908 101.925 C 156.733 105.190,152.681 104.239,152.681 100.463 C 152.681 97.710,156.462 96.136,158.651 97.978 M246.432 98.387 C 248.572 100.781,246.695 104.528,243.644 103.955 C 241.359 103.527,239.517 99.939,240.773 98.364 C 242.032 96.786,245.012 96.798,246.432 98.387 M266.640 102.741 C 266.944 102.820,267.441 102.820,267.744 102.741 C 268.048 102.662,267.800 102.597,267.192 102.597 C 266.585 102.597,266.337 102.662,266.640 102.741 M258.915 103.062 C 259.308 103.138,259.876 103.135,260.177 103.056 C 260.479 102.977,260.158 102.915,259.464 102.919 C 258.770 102.922,258.523 102.987,258.915 103.062 M265.704 117.780 C 268.529 118.976,268.373 123.032,265.501 123.027 C 262.479 123.022,260.878 118.726,263.504 117.669 C 264.453 117.287,264.550 117.291,265.704 117.780 M137.278 118.188 C 138.565 119.353,136.777 123.044,134.936 123.024 C 132.445 122.997,131.345 120.341,133.099 118.588 C 134.185 117.501,136.296 117.299,137.278 118.188 " stroke="none" fill="#182024" fill-rule="evenodd"></path><path id="path1" d="M186.879 76.972 C 186.879 79.834,186.927 81.006,186.985 79.574 C 187.044 78.143,187.044 75.800,186.985 74.369 C 186.927 72.938,186.879 74.109,186.879 76.972 M213.061 77.129 C 213.062 79.905,213.110 80.999,213.169 79.559 C 213.227 78.120,213.227 75.848,213.168 74.512 C 213.109 73.175,213.061 74.353,213.061 77.129 M197.950 102.343 C 186.893 105.125,165.929 110.893,165.394 111.301 C 165.013 111.592,161.812 115.024,158.281 118.927 C 154.750 122.831,150.353 127.605,148.509 129.535 C 145.959 132.204,145.086 133.337,144.865 134.267 C 144.418 136.141,139.667 155.597,139.489 156.281 C 139.384 156.682,140.037 156.285,141.445 155.091 C 154.415 144.088,173.837 135.530,195.191 131.407 C 197.491 130.963,199.834 130.583,200.396 130.563 C 200.959 130.543,201.171 130.461,200.868 130.382 C 200.352 130.247,200.315 129.298,200.315 116.065 C 200.315 104.923,200.231 101.898,199.921 101.920 C 199.704 101.934,198.817 102.125,197.950 102.343 M250.145 128.155 C 250.918 128.979,251.592 129.653,251.643 129.653 C 251.880 129.653,251.629 129.370,250.237 128.063 L 248.738 126.656 250.145 128.155 M195.268 168.912 C 178.184 172.826,164.564 177.802,154.790 183.702 C 146.387 188.774,128.354 203.025,127.781 205.047 C 127.499 206.042,117.748 245.892,115.953 253.387 C 115.515 255.214,115.360 256.369,115.570 256.240 C 115.764 256.120,117.258 254.899,118.890 253.526 C 138.223 237.272,166.570 222.043,194.981 212.648 L 199.899 211.022 200.107 203.224 C 200.390 192.576,200.370 167.819,200.079 167.844 C 199.949 167.855,197.784 168.336,195.268 168.912 M262.855 199.902 C 263.159 199.981,263.655 199.981,263.959 199.902 C 264.263 199.823,264.014 199.758,263.407 199.758 C 262.800 199.758,262.551 199.823,262.855 199.902 M195.051 278.531 C 162.356 290.562,128.527 308.941,99.166 330.626 L 96.282 332.756 95.434 336.331 C 94.967 338.297,91.900 350.752,88.618 364.008 C 85.335 377.265,82.650 388.150,82.650 388.197 C 82.650 388.244,84.034 387.493,85.726 386.529 C 99.544 378.653,125.088 367.556,143.691 361.348 C 159.024 356.232,191.078 347.335,198.265 346.200 L 199.527 346.001 199.654 311.486 C 199.730 291.032,199.666 276.978,199.497 276.986 C 199.340 276.994,197.339 277.690,195.051 278.531 M288.568 333.031 C 288.961 333.106,289.529 333.103,289.830 333.024 C 290.132 332.945,289.811 332.884,289.117 332.887 C 288.423 332.891,288.176 332.955,288.568 333.031 " stroke="none" fill="#a4bbc3" fill-rule="evenodd"></path><path id="path2" d="M220.505 128.424 C 216.019 128.693,206.047 129.753,202.445 130.343 L 200.315 130.692 200.315 149.100 C 200.315 166.421,200.348 167.508,200.868 167.508 C 201.171 167.508,202.555 167.289,203.943 167.022 C 213.529 165.175,235.431 162.932,255.241 161.769 L 261.744 161.387 261.300 159.484 C 261.056 158.437,259.739 153.036,258.374 147.481 C 257.009 141.927,255.718 136.601,255.506 135.647 C 255.058 133.631,254.557 132.543,253.739 131.808 C 252.455 130.654,241.769 128.925,232.650 128.396 C 226.769 128.055,226.653 128.055,220.505 128.424 M262.776 200.019 C 244.545 200.758,224.772 204.073,205.172 209.677 L 200.091 211.129 199.858 243.758 C 199.730 261.703,199.694 276.455,199.778 276.540 C 199.863 276.624,200.470 276.468,201.128 276.193 C 216.674 269.698,254.758 262.260,281.020 260.591 C 283.508 260.433,285.581 260.257,285.629 260.199 C 285.676 260.142,284.546 255.339,283.117 249.527 C 281.689 243.715,278.434 230.371,275.885 219.874 C 273.335 209.377,271.179 200.540,271.092 200.237 C 270.976 199.826,270.637 199.697,269.774 199.734 C 269.135 199.761,265.986 199.889,262.776 200.019 M291.009 333.026 C 276.851 333.467,252.467 335.943,236.909 338.519 C 226.670 340.214,199.890 345.668,199.520 346.133 C 199.484 346.178,199.358 358.316,199.239 373.107 L 199.023 400.000 259.606 400.000 C 300.233 400.000,320.189 399.895,320.189 399.681 C 320.189 399.506,317.790 389.746,314.858 377.993 C 311.927 366.241,308.217 351.266,306.614 344.716 L 303.701 332.808 298.775 332.872 C 296.065 332.908,292.571 332.977,291.009 333.026 " stroke="none" fill="#9b1c1c" fill-rule="evenodd"></path><path id="path3" d="M182.492 72.877 C 180.237 73.732,174.842 75.836,170.505 77.553 L 162.618 80.675 162.532 85.958 C 162.463 90.140,162.529 91.207,162.847 91.078 C 163.068 90.989,166.585 89.567,170.662 87.919 C 174.740 86.271,180.028 84.250,182.413 83.429 L 186.751 81.936 186.751 77.113 C 186.751 74.461,186.837 72.067,186.942 71.792 C 187.207 71.102,187.111 71.126,182.492 72.877 M213.041 71.967 C 213.151 72.377,213.243 74.788,213.245 77.324 L 213.249 81.936 217.587 83.434 C 220.952 84.597,229.491 87.932,237.153 91.076 C 237.471 91.206,237.537 90.141,237.468 85.957 L 237.382 80.674 230.284 77.869 C 213.173 71.106,212.774 70.969,213.041 71.967 M200.315 116.118 L 200.315 130.284 201.049 130.284 C 201.453 130.284,203.265 130.076,205.075 129.822 C 222.592 127.363,238.230 127.614,250.527 130.553 L 252.946 131.131 248.792 126.677 C 246.507 124.227,242.366 119.701,239.590 116.620 C 234.906 111.421,234.429 110.984,232.965 110.569 C 231.359 110.112,202.320 102.433,201.025 102.122 L 200.315 101.952 200.315 116.118 M257.729 161.726 C 255.217 161.863,243.094 162.733,238.486 163.106 C 223.726 164.302,201.061 167.161,200.462 167.902 C 200.427 167.946,200.323 177.658,200.232 189.486 L 200.065 210.991 201.531 210.537 C 221.202 204.441,244.679 200.441,264.595 199.792 C 270.239 199.609,270.970 199.525,270.830 199.082 C 270.666 198.562,265.853 178.655,263.254 167.744 L 261.769 161.514 260.616 161.573 C 259.982 161.605,258.683 161.674,257.729 161.726 M280.284 260.779 C 250.565 263.245,230.045 267.114,205.808 274.820 L 199.786 276.734 199.595 311.151 C 199.491 330.080,199.464 345.626,199.536 345.698 C 199.609 345.771,202.049 345.300,204.960 344.652 C 238.304 337.235,267.369 333.394,293.879 332.902 L 303.688 332.721 300.715 320.856 C 299.079 314.330,295.121 298.344,291.920 285.331 C 288.718 272.319,286.022 261.424,285.930 261.120 C 285.760 260.561,284.107 260.461,280.284 260.779 " stroke="none" fill="#fbfbfb" fill-rule="evenodd"></path><path id="path4" d="M138.977 110.390 L 137.732 111.830 139.119 110.500 C 139.881 109.768,140.441 109.121,140.363 109.060 C 140.285 109.000,139.661 109.598,138.977 110.390 M262.934 110.095 C 263.611 110.789,264.236 111.356,264.321 111.356 C 264.407 111.356,264.011 110.876,263.441 110.288 C 262.705 109.528,262.528 109.170,262.827 109.051 C 263.059 108.958,262.901 108.871,262.475 108.858 C 261.735 108.834,261.755 108.888,262.934 110.095 M267.192 114.669 C 268.135 115.623,268.977 116.404,269.064 116.404 C 269.150 116.404,268.450 115.623,267.508 114.669 C 266.565 113.715,265.723 112.934,265.637 112.934 C 265.550 112.934,266.250 113.715,267.192 114.669 M134.385 115.300 C 133.619 116.080,133.063 116.719,133.149 116.719 C 133.236 116.719,133.934 116.080,134.700 115.300 C 135.467 114.519,136.023 113.880,135.936 113.880 C 135.849 113.880,135.151 114.519,134.385 115.300 M194.637 131.696 C 172.247 136.224,152.378 145.203,140.481 156.169 L 139.137 157.408 134.074 178.467 C 131.289 190.050,128.758 200.538,128.447 201.773 L 127.884 204.019 130.740 201.596 C 154.095 181.786,170.086 173.758,196.785 168.438 L 200.315 167.735 200.315 149.167 C 200.315 138.955,200.209 130.609,200.079 130.622 C 199.949 130.634,197.500 131.117,194.637 131.696 M194.637 212.904 C 165.519 222.706,138.540 237.291,118.452 254.089 L 114.980 256.992 110.916 273.528 C 108.680 282.622,104.479 299.610,101.580 311.279 L 96.309 332.495 97.287 331.757 C 124.778 311.020,160.612 291.298,192.587 279.306 L 199.527 276.704 199.720 259.882 C 200.082 228.286,200.042 211.356,199.606 211.360 C 199.389 211.362,197.153 212.057,194.637 212.904 M197.634 346.438 C 196.940 346.611,192.397 347.741,187.539 348.947 C 146.498 359.140,112.501 371.716,86.301 386.397 C 84.406 387.459,82.770 388.328,82.667 388.328 C 82.563 388.328,81.826 390.954,81.028 394.164 L 79.577 400.000 139.264 400.000 L 198.951 400.000 199.160 384.333 C 199.438 363.533,199.425 346.049,199.132 346.089 C 199.002 346.107,198.328 346.264,197.634 346.438 " stroke="none" fill="#641414" fill-rule="evenodd"></path><path id="path5" d="M191.180 52.509 C 190.337 53.524,191.636 54.868,193.031 54.426 C 194.452 53.975,193.986 52.050,192.457 52.050 C 191.963 52.050,191.389 52.257,191.180 52.509 M206.321 52.659 C 205.694 53.830,206.789 54.865,208.186 54.422 C 208.964 54.175,209.318 53.108,208.820 52.509 C 208.262 51.836,206.712 51.929,206.321 52.659 M169.164 58.390 C 167.835 58.885,168.423 60.883,169.898 60.883 C 170.774 60.883,171.371 60.169,171.239 59.279 C 171.115 58.445,170.139 58.028,169.164 58.390 M229.416 58.390 C 228.087 58.885,228.676 60.883,230.151 60.883 C 231.026 60.883,231.623 60.169,231.491 59.279 C 231.367 58.445,230.391 58.028,229.416 58.390 M248.703 70.358 C 247.759 70.715,247.573 71.464,248.228 72.272 C 248.908 73.112,250.318 72.909,250.630 71.926 C 250.981 70.822,249.869 69.917,248.703 70.358 M149.553 70.789 C 148.999 71.457,149.425 72.518,150.341 72.747 C 151.355 73.002,152.107 72.350,151.988 71.320 C 151.874 70.344,150.222 69.983,149.553 70.789 M198.220 85.785 C 196.219 86.643,195.934 89.425,197.751 90.352 C 199.473 91.230,202.794 90.669,203.274 89.418 C 204.249 86.877,201.044 84.573,198.220 85.785 M154.701 97.762 C 153.231 98.429,152.997 98.851,152.997 100.829 C 152.997 104.389,157.488 104.875,159.095 101.488 C 160.544 98.433,157.991 96.268,154.701 97.762 M241.885 97.637 C 239.064 99.218,240.905 103.780,244.366 103.784 C 247.078 103.788,248.211 99.493,245.898 97.978 C 244.766 97.236,242.885 97.077,241.885 97.637 M133.216 118.772 C 132.023 119.964,131.970 120.975,133.039 122.161 C 134.327 123.590,137.855 121.822,137.855 119.748 C 137.855 117.519,135.057 116.931,133.216 118.772 M262.776 118.297 C 261.924 119.148,261.982 120.263,262.937 121.397 C 264.717 123.512,267.060 123.188,267.674 120.742 C 268.203 118.636,264.357 116.716,262.776 118.297 " stroke="none" fill="#f5f504" fill-rule="evenodd"></path><path id="path6" d="M237.668 85.804 C 237.668 88.667,237.716 89.838,237.774 88.407 C 237.833 86.976,237.833 84.633,237.774 83.202 C 237.716 81.771,237.668 82.942,237.668 85.804 M162.203 86.830 C 162.171 89.389,162.252 91.483,162.382 91.483 C 162.512 91.484,162.581 90.100,162.535 88.408 C 162.379 82.708,162.262 82.149,162.203 86.830 M153.701 83.912 C 153.701 84.519,153.766 84.767,153.845 84.464 C 153.925 84.160,153.925 83.663,153.845 83.360 C 153.766 83.056,153.701 83.304,153.701 83.912 M254.416 100.946 C 255.094 101.640,255.720 102.208,255.806 102.208 C 255.893 102.208,255.410 101.640,254.732 100.946 C 254.054 100.252,253.429 99.685,253.342 99.685 C 253.255 99.685,253.739 100.252,254.416 100.946 M261.435 102.752 C 261.999 102.822,262.922 102.822,263.486 102.752 C 264.050 102.682,263.588 102.625,262.461 102.625 C 261.333 102.625,260.871 102.682,261.435 102.752 M153.766 123.738 L 152.839 124.763 153.864 123.837 C 154.820 122.973,155.035 122.713,154.791 122.713 C 154.737 122.713,154.275 123.174,153.766 123.738 M246.372 124.073 C 246.372 124.128,246.834 124.589,247.397 125.099 L 248.423 126.025 247.496 125.000 C 246.633 124.044,246.372 123.830,246.372 124.073 M148.728 129.101 L 146.845 131.073 148.817 129.190 C 150.648 127.441,150.933 127.129,150.700 127.129 C 150.651 127.129,149.764 128.017,148.728 129.101 M221.688 128.304 C 222.252 128.374,223.174 128.374,223.738 128.304 C 224.302 128.234,223.841 128.177,222.713 128.177 C 221.585 128.177,221.124 128.234,221.688 128.304 M230.052 128.302 C 230.531 128.375,231.241 128.373,231.629 128.298 C 232.017 128.223,231.625 128.164,230.757 128.166 C 229.890 128.168,229.572 128.230,230.052 128.302 M140.516 155.915 L 139.590 156.940 140.615 156.014 C 141.179 155.504,141.640 155.043,141.640 154.988 C 141.640 154.745,141.380 154.959,140.516 155.915 M256.546 161.732 C 256.849 161.811,257.346 161.811,257.650 161.732 C 257.953 161.652,257.705 161.587,257.098 161.587 C 256.491 161.587,256.242 161.652,256.546 161.732 M265.214 199.912 C 265.774 199.982,266.767 199.983,267.422 199.915 C 268.076 199.846,267.618 199.789,266.404 199.788 C 265.189 199.787,264.654 199.843,265.214 199.912 M284.227 260.374 C 284.227 260.441,284.645 260.558,285.157 260.633 C 285.668 260.708,286.015 260.653,285.927 260.511 C 285.771 260.258,284.227 260.134,284.227 260.374 M291.094 333.036 C 291.661 333.106,292.513 333.105,292.987 333.033 C 293.461 332.961,292.997 332.904,291.956 332.905 C 290.915 332.907,290.527 332.966,291.094 333.036 " stroke="none" fill="#917378" fill-rule="evenodd"></path></g></svg>